<svg xmlns="http://www.w3.org/2000/svg" fill="none" viewBox="0 0 3000 3000" width="3000" height="3000"><defs><clipPath id="assetClipPath_o3f9uXPq"><path d="m0 0 h 1878.299 v 1429.611 h -1878.299 v -1429.611 z" id="path_tYPoPjjW" fill="#ffffff" /></clipPath><clipPath id="assetClipPath_VzaaXAHm"><path d="m0 0 h 2250.435 v 2505 h -2250.435 v -2505 z" id="path_YUUaJLdi" fill="#ffffff" /></clipPath><clipPath id="assetClipPath_Qs9uEYP5"><path d="m0 0 h 831.991 v 1062.008 h -831.991 v -1062.008 z" id="path_g7UHCHPg" fill="#ffffff" /></clipPath><clipPath id="assetClipPath_Fhiy8rgX"><path d="m0 0 h 972.838 v 775.761 h -972.838 v -775.761 z" id="path_QhXLbRD6" fill="#ffffff" /></clipPath><clipPath id="assetClipPath_D8SoWJ2G"><path d="m0 0 h 375.394 v 235.097 h -375.394 v -235.097 z" id="path_JHJ_94vg" fill="#ffffff" /></clipPath><clipPath id="assetClipPath_QiCrGQL4"><path d="m0 0 h 464.891 v 659.644 h -464.891 v -659.644 z" id="path_sxCEaW5w" fill="#ffffff" /></clipPath></defs><g transform="translate(349 921)" data-asset-index="0"><g clip-path="url(#assetClipPath_o3f9uXPq)" transform="scale(0.991854864427868 0.9932771921872453)" data-asset-index="0"><g id="Armchair">
    <g id="z5GSy-zulBb2iKpJaKens">
      <path d="M33.146,420.808c-74.235,237.067-16.837,484.017,207.675,708.877,191.91,192.208,587.427,344.65,1005.232,283.886,153.755-22.362,351.397-64.458,514.374-287.88,33.685-46.178,159.215-218.265,99.488-334.449-76.674-149.149-385.573-64.013-450.871-211.677-41.797-94.518,69.572-163.751,44.452-281.53C1415.144,118.217,1099.247,15.612,871.385,3.805,615.546-9.451,141.525,74.702,33.146,420.808Z" fill="#FF523B" id="j6uTrweQsTGkdFmMR_Dt" />
      <path d="M1057.754,1429.596c-134.862,0-270.408-20.42-399.772-60.717-170.223-53.024-319.002-137.344-418.931-237.428C24.379,916.446-47.647,670.451,30.76,420.061c25.576-81.677,73.167-153.731,141.449-214.159,59.613-52.756,134.933-96.727,223.867-130.691,76.558-29.238,161.106-50.43,251.298-62.988C724.512,1.481,802.02-2.292,871.514,1.309c122.143,6.329,257.845,37.85,363.003,84.321,88.763,39.225,199.23,107.825,221.423,211.885,12.483,58.527-7.838,104.235-27.49,148.437-19.532,43.933-37.981,85.43-17.12,132.603,14.583,32.978,41.882,56.208,85.912,73.107,39.145,15.024,87.161,23.021,133.595,30.754,94.599,15.756,192.418,32.048,231.301,107.683,25.719,50.029,20.789,115.85-14.653,195.633-28.235,63.561-68.041,118.129-85.038,141.432-73.331,100.528-158.906,172.534-261.614,220.133-87.736,40.66-174.129,57.07-254.42,68.748-62.238,9.052-125.387,13.551-188.658,13.551ZM33.145,420.808l2.386.747c-77.815,248.501-6.216,492.758,207.058,706.363,153.535,153.773,460.05,296.752,814.756,296.767,61.531.002,124.459-4.297,188.348-13.589,118.635-17.253,339.461-49.37,512.714-286.878,105.045-144.005,138.449-255.649,99.284-331.833-37.734-73.402-134.294-89.484-227.675-105.037-46.68-7.774-94.949-15.814-134.565-31.019-44.732-17.168-73.744-41.947-88.693-75.753-21.758-49.201-2.871-91.681,17.124-136.656,19.327-43.472,39.313-88.425,27.169-145.363-21.754-101.995-130.858-169.601-218.555-208.355-104.631-46.237-239.674-77.602-361.241-83.9-154.782-8.021-331.754,19.486-473.396,73.579C208.127,152.341,82.836,270.49,35.531,421.555l-2.386-.747Z" fill="#000000" id="eArRiXwA9HAq9XNcJHt" />
    </g>
    <path d="M666.387,813.666c-142.902-147.609-379.184-260.224-575.913-260.224,0,0,141.082,365.291,229.461,457.964,121.82,127.738,576.867,298.54,576.867,298.54-28.296-233.132-87.513-348.671-230.415-496.28Z" fill="#FF523B" id="oF2MyzIXRaspVrdWdSQR6" />
    <path d="M894.316,1310.215c-23.457-216.766-81.425-341.624-229.726-494.81-159.633-164.892-354.134-259.463-533.63-259.463v-5c94.145,0,191.39,25.244,289.034,75.032,88.065,44.903,173.887,109.205,248.188,185.954,75.874,78.373,125.26,146.162,160.13,219.802,36.662,77.422,58.551,163.145,70.974,277.948l-4.971.538Z" fill="#000000" id="Mdtx845Xt3U1XHX7ArT" />
  </g></g></g><g transform="translate(401 249)" data-asset-index="1"><g clip-path="url(#assetClipPath_VzaaXAHm)" transform="scale(0.9993623455020918 0.9988023952095808)" data-asset-index="1"><g id="A_young_woman_with_headphones" data-name="A young woman with headphones">
    <g id="Hv9R2NvOAI3l0BfUaKhlw">
      <path d="M1089.242,222.329c-27.36-177.961-155.608-204.541-198.377-203.461-74.101-35.713-175.267-6.79-219.927,27.65-47.623,36.726-53.327,78.509-98.506,119.245-30.789,27.761-51.494,16.401-75.465,46.369-21.561,26.955,1.943,66.124-15.461,82.311-20.913,19.45-55.891,10.5-83.127,63.148-34.14,65.994,10.369,74.806-40.736,121.467-27.581,25.182-84.295,48.07-97.706,82.926-19.703,51.211,2.341,111.866,42.87,148.855,40.529,36.989,95.953,53.592,150.494,59.606h429.403l19.951-664.032,186.585,115.917Z" fill="#5D310A" id="bXFIUZl-2gOX8Uz6FawmF" />
      <path d="M885.131,772.944l-432.103-.015c-64.829-7.148-115.937-27.417-151.905-60.244-20.656-18.852-36.54-43.783-44.725-70.201-8.787-28.36-8.37-56.508,1.207-81.398,9.064-23.558,36.279-41.182,62.597-58.227,13.56-8.782,26.369-17.077,35.757-25.648,27.015-24.667,26.485-37.829,25.752-56.045-.612-15.209-1.375-34.138,14.449-64.724,18.332-35.435,39.858-43.552,58.851-50.712,9.647-3.638,17.979-6.779,24.794-13.118,7.319-6.807,6.503-18.695,5.56-32.461-1.11-16.196-2.369-34.553,9.651-49.581,13.166-16.46,25.479-20.905,38.515-25.612,11.38-4.108,23.147-8.357,37.228-21.052,21.011-18.944,33.515-38.321,45.607-57.059,14.137-21.907,27.49-42.6,53.046-62.308,45.114-34.79,147.227-63.835,221.997-28.182,10.478-.178,57.633,1.09,105.863,35.058,22.95,16.164,42.325,37.228,57.588,62.606,18.061,30.031,30.46,66.343,36.853,107.929l.826,5.371-187.514-116.494-19.894,662.118ZM453.44,767.944h426.839l20.009-665.947,185.615,115.314c-12.309-73.281-43.079-127.699-91.511-161.81-47.941-33.765-94.591-34.36-103.464-34.134l-.604.015-.544-.262c-73.003-35.184-173.115-6.707-217.314,27.378-24.875,19.183-38.001,39.524-51.899,61.06-12.269,19.012-24.956,38.672-46.46,58.061-14.809,13.352-27.596,17.969-38.878,22.042-12.891,4.654-24.023,8.673-36.309,24.032-10.803,13.506-9.615,30.831-8.567,46.115.989,14.417,1.922,28.034-7.143,36.464-7.536,7.009-16.716,10.47-26.436,14.135-18.151,6.844-38.724,14.601-56.174,48.332-15.214,29.41-14.512,46.843-13.893,62.225.758,18.831,1.357,33.704-27.377,59.939-9.694,8.851-22.671,17.255-36.41,26.153-25.647,16.61-52.168,33.785-60.648,55.825-18.036,46.878-.674,106.961,42.222,146.11,35.144,32.075,85.258,51.909,148.946,58.952Z" fill="#000000" id="MCBiG543f3XK2moLbIoVI" />
    </g>
    <path d="M1009.408,554.38s-28.587-13.483-43.599-18.587c-99.836-46.203-212.496-50.588-320.577-50.733l-13.593,31.975c43.469,95.604,171.487,119.986,267.592,119.957,47.759-2.448,110.177-82.613,110.177-82.613Z" fill="#000000" id="c_NF284rgqRfwT5XnN9Di" />
    <path d="M1051.914,1006.998l-48.39-386.615c98.032-64.802,232.043,32.516,301.676,104.464,55.309,59.183,171.97,223.873,228.156,330.094,57.877,109.416-37.15,251.229-89.52,279.934-77.269,42.354-212.636,31.3-284.794-100.784-55.422-98.536-107.128-227.094-107.128-227.094Z" fill="#157E39" id="A43cWm7uViszEPjKMx44Y" />
    <path d="M1428.618,902.069s-161.93-12.589-237.758,116.327c-81.782,139.038,7.475,281.122,7.475,281.122,20.435,28.397,169.926,119.688,315.269-.967,151.777-125.995,88.868-376.596-84.986-396.482Z" fill="#157E39" id="NNrrptxoJPYRgquJuUqxC" />
    <path d="M1515.201,1300.474l-3.193-3.847c72.794-60.429,102.179-158.737,74.862-250.452-23.488-78.857-84.235-133.124-158.536-141.623l.568-4.968c39.185,4.482,75.155,21.103,104.023,48.065,27.023,25.239,47.333,58.815,58.736,97.098,13.052,43.819,13.679,90.261,1.814,134.304-12.813,47.562-39.88,89.549-78.274,121.422Z" fill="#000000" id="EMdD1Qdim_pb_9thuepau" />
    <g id="ejPYSYN3N1ykF_bCbmNKE">
      <path id="Body" d="M1130.809,796.052l-25.937-192.114s-98.001-52.45-229.358-72.18c-97.294-14.614-220.302-8.796-350.642,33.548l-99.256,394.367,106.234,460.789s340.681-79.727,419.429-75.612c0,0,274.73-24.195,293.253-23.482-4.138-28.143-10.099-54.949-17.073-79.958-30.904-110.825-81.682-186.341-81.682-186.341,0,0-.943-176.693-14.967-259.016Z" fill="#FCDABE" />
      <g id="LcwicLu9bzEKB-xEfBAZ">
        <path d="M1130.809,796.052l-25.937-192.114s-98.001-52.45-229.358-72.18c-97.294-14.614-220.301-8.796-350.642,33.548l-99.256,394.367,29.579,128.3s169.016,21.163,345.592,21.197c68.799.013,130.85.087,200.29-8.468,92.981-11.455,206.18-49.475,206.18-49.475,0,0-62.424-172.852-76.449-255.175Z" fill="#FFFFFF" id="PZw0YilqoelVdwu_Sow1L" />
        <path d="M810.272,1111.671c-2.67,0-5.345,0-8.027,0h-1.458c-174.71-.034-344.21-21.005-345.902-21.217l-1.733-.217-30.106-130.589.147-.584,99.593-395.707,1.314-.427c62.026-20.15,125.372-33.018,188.278-38.247,56.751-4.717,111.763-3.168,163.507,4.604,130.276,19.568,229.182,71.921,230.166,72.448l1.127.603,26.102,193.337c13.842,81.179,75.706,252.978,76.329,254.704l.869,2.405-2.424.814c-1.134.381-114.505,38.231-206.67,49.586-66.331,8.172-127.191,8.488-191.111,8.488ZM457.238,1085.703c18.354,2.213,178.634,20.935,343.55,20.966h1.458c69.601.008,129.729.026,198.526-8.449,84.2-10.374,186.33-43.026,203.267-48.564-7.605-21.284-62.695-176.88-75.695-253.184l-.013-.085-25.764-190.831c-11.271-5.815-105.497-53.011-227.425-71.325-108.3-16.266-231.904-4.534-348.184,33.027l-98.771,392.44,29.05,126.005Z" fill="#000000" id="r7uMA6nzk3Yzk2rRp88q8" />
      </g>
      <path d="M866.002,1088.42c-16.693,0-34.174-.261-52.602-.78l.141-4.998c105.291,2.961,228.209.063,341.567-43.894l1.808,4.662c-50.329,19.516-105.605,32.309-168.987,39.11-36.937,3.964-76.517,5.899-121.927,5.899Z" fill="#000000" id="yux45d0DWAvgZiC3JguU3" />
      <path d="M866.533,721.337c-31.399,0-76.455-5.684-111.626-21.919l2.096-4.54c47.658,22,113.698,24.252,137.277,19.332,33.875-7.067,66.703-39.039,79.829-77.749l4.735,1.605c-6.341,18.7-17.692,36.936-31.963,51.348-15.454,15.607-33.29,25.875-51.58,29.69-6.696,1.397-16.729,2.233-28.768,2.233Z" fill="#000000" id="OPP7UAcjE6Km2JMBFneiS" />
      <g id="YrUOCw30E7HPCb5ABCsy2">
        <path d="M841.622,688.514c-66.815-6.571-102.68-26.774-140.024-59.405-27.938-24.412-43.027-60.371-41.348-97.433l10.275-226.733,301.572,13.666-12.524,276.373c-2.743,60.53-50.689,100.148-117.951,93.533Z" fill="#FCDABE" id="cOMeJIJFPy6FEOn2iAyOr" />
        <path d="M855.854,691.722c-4.747,0-9.578-.239-14.477-.721-68.26-6.713-104.721-27.938-141.424-60.011-28.551-24.948-43.933-61.188-42.2-99.429l10.388-229.231,306.566,13.893-12.637,278.87c-1.325,29.239-12.744,53.977-33.024,71.54-18.925,16.39-44.53,25.088-73.193,25.088ZM672.91,307.553l-10.162,224.236c-1.664,36.71,13.097,71.496,40.495,95.437,35.958,31.421,71.691,52.218,138.624,58.8,33.097,3.253,62.896-4.975,83.907-23.172,19.217-16.643,30.041-40.152,31.302-67.987l12.411-273.875-296.577-13.439Z" fill="#000000" id="pzdQ789t0jLL8Tt7dFPUs" />
      </g>
      <path d="M908.296,913.044c-.23,0-.458,0-.688,0l.015-5c22.404.04,44.672-3.107,66.171-9.427l1.41,4.797c-21.74,6.392-44.249,9.631-66.907,9.631Z" fill="#000000" id="pHuDn5UtVVh9KSA9fVtDy" />
    </g>
    <g id="sGkOnW2sFiizpVzo0js5">
      <g id="KjQE3EASevIy6HO4G_u00">
        <polygon points="1744.567 1361.908 1277.479 1361.908 1291.938 1160.216 1897.392 1041.08 1744.567 1361.908" fill="#C7E4F5" id="LQ4Jm_b8CWl82grNA5Vrj" />
        <path d="M1746.145,1364.408h-471.352l14.787-206.276,1.874-.369,610.332-120.096-155.642,326.741ZM1280.165,1359.408h462.824l150.008-314.916-598.702,117.808-14.13,197.108Z" fill="#000000" id="iyR0uTLMKQLE09nP2qIo3" />
      </g>
      <g id="R2TZCDby6auTV3KL0VXU1">
        <g id="cy3Mnq5nrbWNvzpg9v_nr">
          <path d="M619.946,1532.472c-56.43,132.971,24.367,271.607,157.338,328.037,51.649,21.919,106.4,25.954,157.36,14.908,236.978-35.006,503.611-162.427,503.611-162.427,0,0,32.584-17.523,58.036-17.389l.05-.7c41.802-1.251,83.651-14.886,119.722-41.782,93.494-69.71,112.774-202.014,43.064-295.507-33.629-45.102-81.825-72.927-133.203-81.829v-.004c-56.2-12.687-727.29,104.55-727.29,104.55l.027.221c-77.395,18.964-145.192,72.927-178.715,151.922Z" fill="#FCDABE" id="KI-r3-FYl6dGYd5M-gPRb" />
          <g id="JRmqKrf7zylSAMhczXGAu">
            <path d="M1491.463,1274.579l-977.321,73.775c-35.482,107.509-26.716,261.954,33.846,357.607,60.561,95.654,165.296,162.119,277.663,175.932,145.426,17.877,421.797,5.292,697.486-131.372,72.882-36.129,218.041-206.757,168.834-335.583-39.423-103.211-117.878-143.675-200.508-140.36Z" fill="#C7E4F5" id="OiFy1EYm6RDj16gg0vgTf" />
            <path d="M939.427,1890.799c-50.223,0-88.996-3.34-114.081-6.424-55.475-6.819-110.557-26.753-159.292-57.646-48.697-30.869-90.254-72.167-120.178-119.431-28.744-45.399-47.679-107.722-53.318-175.488-5.401-64.907,1.421-130.338,19.211-184.241l.523-1.583,979.072-73.906c43.522-1.744,84.306,8.847,117.917,30.633,37.482,24.296,66.089,61.754,85.027,111.333,11.684,30.589,13.276,65.292,4.731,103.146-7.386,32.72-22.047,66.909-43.576,101.617-42.405,68.365-97.744,117.36-131.215,133.952-123.956,61.447-257.976,103.123-398.337,123.872-72.429,10.707-135.383,14.166-186.484,14.166ZM515.997,1350.722c-36.754,113.175-22.188,264.996,34.103,353.903,60.564,95.658,163.688,161,275.856,174.788,167.167,20.549,437.812-3.108,696.071-131.13,32.856-16.288,87.297-64.576,129.187-132.108,45.875-73.958,59.521-145.108,38.422-200.343-35.583-93.156-105.937-142.426-198.026-138.756l-975.612,73.646Z" fill="#000000" id="YDtBYKb-PxpqcRQdZJK8V" />
          </g>
        </g>
        <g id="t8uuTN0qB6eyyF0wP4CcA">
          <g id="STGV_TqHvzDpXCSSlWXhh">
            <path d="M1942.171,2130.274s-226.789,66.742-219.083,89.598l-93.635,8.662s-14.174,32.113-13.726,51.739c0,0,.641,46.961,31.998,79.795,0,0-20.258,76.37,38.882,94.51,36.14,11.085,64.234,9.774,80.62,7.077,28.066-4.619,56.955-.402,82.197,12.709.899.467,1.807.946,2.723,1.438,43.961,23.616,150.786,36.112,238.603,18.221,53.583-10.917,77.649-19.943,104.488-35.923,55.37-32.966,59.723-81.082,46.334-132.949-.244-.943-6.314-.315-6.775-1.175-18.407-34.419-61.794-71.493-292.627-193.702Z" fill="#FFFFFF" id="zkqDNwP8id24QsMb585V0" />
            <path d="M2000.949,2505.02c-62.157.001-120.381-11.113-149.984-27.016-.906-.486-1.803-.96-2.692-1.422-24.258-12.601-52.896-17.027-80.639-12.461-17.349,2.856-45.618,3.931-81.758-7.154-25.211-7.733-40.208-27.158-43.371-56.177-2.022-18.548,1.35-35.188,2.47-39.998-30.749-33.087-31.72-78.548-31.746-80.486-.456-19.931,13.35-51.45,13.938-52.783l.593-1.344,92.724-8.578c.136-.82.426-1.659.869-2.51,3.348-6.437,16.752-14.728,40.978-25.349,18.744-8.217,43.879-17.782,74.708-28.429,52.437-18.108,103.912-33.288,104.426-33.439l.976-.287.899.476c223.07,118.1,273.045,157.021,293.193,193.867.518.047,1.226.077,1.712.098,2.769.117,5.159.218,5.747,2.498,16.403,63.544,1.317,106.67-47.476,135.721-28.563,17.006-54.142,25.809-105.268,36.225-29.144,5.938-60.188,8.547-90.301,8.548ZM1789.093,2457.37c21.501,0,42.745,5.041,61.484,14.774.909.472,1.827.957,2.753,1.455,43.176,23.193,148.679,35.951,236.921,17.973,50.497-10.288,75.697-18.944,103.708-35.621,46.258-27.541,60.746-68.509,45.53-128.851-.481-.035-1.044-.059-1.454-.076-2.639-.112-4.545-.192-5.442-1.87-18.922-35.382-69.108-74.848-290.692-192.195-57.541,16.976-205.671,64.369-216.112,84.44-.36.693-.472,1.256-.331,1.673l1.01,2.997-95.301,8.816c-2.625,6.234-13.319,32.715-12.939,49.33.007.482,1.024,46.416,31.307,78.125l.967,1.012-.358,1.354c-.049.188-4.935,19.004-2.654,39.671,3.001,27.187,16.409,44.618,39.852,51.808,35.214,10.801,62.658,9.769,79.481,7,7.392-1.216,14.848-1.817,22.271-1.817Z" fill="#000000" id="YYVQrcZdrt5aAuq77ywt2" />
          </g>
          <path d="M2177.641,2244.442c-28.793-22.147-100.099-50.826-100.099-50.826,0,0-114.913-79.546-154.212-95.961,0,0,5.653-28.124-23.413-56.788-34.394-33.919-144.935,32.357-162.253,63.121-9.543,16.951-22.117,30.631,1.325,81.808,7.553,16.489-61.103,56.078-116.521,29.44-22.845-10.981-38.243-.149-37.05,15.778,2.238,29.903,31.383,28.937,30.806,37.361-4.328,63.154,31.504,91.693,31.504,91.693,0,0,74.712,10.238,102.406,10.617,18.677.256,49.175-9.549,75.92,21.329,11.111,17.561,31.756,11.946,67.745,22.138,0,0,60.213,11.723,110.224,10.945,59.937-.933,106.172-11.427,139.419-22.366,74.205-24.417,93.394-57.237,97.094-64.707,0,0,16.152-32.782-62.894-93.582Z" fill="#F4F4F4" id="Ettd2aBOOnBzaKrw4ZThi" />
          <path d="M1982.435,2343.262c-11.504,0-23.127-.597-34.828-1.799-12.626-1.298-29.072-3.616-44.298-10.078-7.909-3.356-15.364-7.764-22.573-12.026-4.291-2.537-8.729-5.161-13.179-7.509-25.737-13.583-55.887-19.784-84.892-17.46l-.399-4.984c29.939-2.397,61.06,4.002,87.625,18.022,4.557,2.405,9.047,5.06,13.39,7.627,7.068,4.179,14.378,8.5,21.981,11.728,14.612,6.201,30.578,8.445,42.856,9.707,55.83,5.738,109.949-2.508,156.506-23.846,13.872-6.358,33.503-16.869,43.782-34.667,8.618-14.923,8.95-38.281-5.541-49.998l3.144-3.888c16.765,13.555,16.586,39.314,6.728,56.386-10.993,19.037-31.534,30.07-46.029,36.712-37.595,17.231-80.014,26.073-124.272,26.074Z" fill="#B6B6B6" id="x7jPM0AF_oDt-OyJHzk" />
          <path d="M1999.24,2427.633c-48.699,0-105.334-10.914-105.92-11.028l-.203-.049c-8.736-2.474-16.645-4.592-23.622-6.46-21.803-5.839-37.555-10.058-53.255-18.391-21.967-11.66-45.457-18.237-66.142-18.521-27.531-.377-99.654-10.222-102.711-10.64l-.681-.093-.538-.428c-1.505-1.199-36.808-30.089-32.44-93.819.092-1.344-3.378-3.115-6.735-4.827-8.968-4.576-22.521-11.491-24.07-32.177-.597-7.973,2.534-14.915,8.59-19.047,7.961-5.432,19.638-5.131,32.037.829,43.39,20.857,92.428.167,107.869-14.991,4.562-4.478,6.493-8.544,5.297-11.155-22.14-48.334-12.663-64.511-3.497-80.154.762-1.3,1.523-2.601,2.267-3.921,12.745-22.638,76.493-66.095,125.111-72.938,18.399-2.589,32.217.528,41.076,9.263,25.535,25.183,25.158,49.852,24.399,57.024,40.043,17.583,145.498,90.334,152.664,95.291,5.462,2.206,72.28,29.407,100.43,51.059,79.753,61.343,64.309,95.254,63.613,96.668-4.659,9.406-25.527,41.947-98.556,65.976-42.989,14.146-90.146,21.713-140.161,22.492-1.596.025-3.207.037-4.822.037ZM1894.375,2411.717c2.8.537,61.407,11.63,109.608,10.88,49.51-.771,96.167-8.254,138.677-22.242,71.184-23.422,91.197-54.48,95.635-63.442.133-.286,13.768-32.075-62.178-90.49h0c-28.19-21.683-98.797-50.203-99.507-50.488l-.26-.104-.23-.159c-1.147-.794-115.145-79.584-153.753-95.709l-1.892-.79.404-2.01c.052-.263,4.944-27.237-22.717-54.516-7.69-7.584-20.095-10.232-36.869-7.872-45.808,6.447-109.182,48.646-121.451,70.439-.758,1.345-1.534,2.67-2.31,3.995-8.911,15.209-17.328,29.575,3.729,75.545,2.156,4.707-.096,10.675-6.34,16.805-13.378,13.132-41.54,25.093-71.404,25.095-14.125,0-28.626-2.674-42.133-9.166-10.745-5.165-20.605-5.604-27.052-1.205-4.542,3.098-6.882,8.399-6.422,14.543,1.339,17.883,12.909,23.786,21.356,28.096,5.242,2.674,9.769,4.984,9.451,9.623-3.902,56.944,25.839,85.4,30.075,89.143,7.786,1.054,75.602,10.143,101.375,10.496,21.464.294,45.762,7.079,68.417,19.104,15.199,8.067,29.92,12.009,52.205,17.978,6.966,1.865,14.857,3.979,23.587,6.45Z" fill="#000000" id="noVQca0JcVcEYodzivHaQ" />
          <g id="N_D3nWl9VaNxdSd7_sK9N">
            <g id="VsCc_1WtULy2HHqIWmSE">
              <g id="mmbZ6UP04-mNlUMJNg-qm">
                <path d="M1826.413,2230.965c-2.851,0-5.655-1.352-7.401-3.874-2.828-4.083-1.809-9.684,2.274-12.512,52.941-36.664,104.38-69.472,184.215-61.591,4.942.488,8.553,4.89,8.066,9.832-.488,4.942-4.899,8.546-9.832,8.066-74.067-7.313-122.09,23.769-172.211,58.479-1.561,1.081-3.345,1.601-5.111,1.601Z" fill="#B6B6B6" id="ERJiQL0ayevhdpo4LdOO4" />
                <path d="M1826.413,2233.465c-3.775,0-7.311-1.851-9.457-4.951-1.748-2.523-2.408-5.577-1.858-8.597.549-3.02,2.241-5.646,4.765-7.394,57.552-39.858,107.783-69.739,185.884-62.024,6.306.623,10.931,6.26,10.309,12.565-.622,6.299-6.261,10.927-12.562,10.31-75.902-7.496-126.185,27.324-170.545,58.045-1.932,1.338-4.191,2.045-6.534,2.045ZM1981.799,2154.291c-63.532,0-108.408,27.243-159.09,62.343-1.426.988-2.382,2.471-2.692,4.177-.311,1.706.062,3.431,1.05,4.856,1.213,1.751,3.211,2.797,5.346,2.797,1.321,0,2.596-.399,3.687-1.156,45.069-31.211,96.15-66.588,173.88-58.911,3.564.341,6.747-2.267,7.099-5.824.351-3.562-2.262-6.747-5.824-7.099-8.105-.8-15.917-1.185-23.456-1.185Z" fill="#000000" id="mgAWw2IWhTb4MI9EB1Ozv" />
              </g>
              <g id="hz0hV0Uz5lb9SRgzykru">
                <path d="M1855.524,2259.194c-1.452,0-2.925-.352-4.29-1.095-4.363-2.375-5.974-7.834-3.6-12.197,7.502-13.785,65.67-91.943,122.978-120.493,4.448-2.216,9.845-.405,12.059,4.038,2.215,4.446.406,9.845-4.038,12.059-52.452,26.131-109.283,102.118-115.201,112.992-1.631,2.997-4.719,4.695-7.907,4.695Z" fill="#B6B6B6" id="I7yyzzNOE7jk_lNE32xKY" />
                <path d="M1855.524,2261.694c-1.906,0-3.803-.484-5.485-1.399-5.565-3.03-7.629-10.022-4.601-15.588,7.566-13.903,66.238-92.731,124.059-121.536,2.748-1.37,5.865-1.587,8.776-.611,2.91.975,5.266,3.025,6.635,5.772s1.586,5.864.611,8.775c-.975,2.911-3.025,5.268-5.772,6.636-51.95,25.88-108.255,101.174-114.12,111.95-2.014,3.701-5.885,6-10.103,6ZM1974.616,2126.961c-.992,0-1.977.23-2.89.685-56.795,28.294-114.458,105.783-121.897,119.451-1.71,3.145-.544,7.095,2.6,8.806.951.518,2.021.791,3.095.791,2.385,0,4.573-1.299,5.711-3.39,5.971-10.973,63.329-87.655,116.282-114.036,1.552-.773,2.71-2.104,3.261-3.749.551-1.645.428-3.405-.346-4.958-.773-1.552-2.104-2.71-3.749-3.261-.677-.227-1.374-.34-2.067-.34Z" fill="#000000" id="ezFd7SQ2ombM8dwwgIe7" />
              </g>
            </g>
            <g id="EZl8YPTo-ZH7nWkP3xDvM">
              <path d="M1856.408,2259.489c-2.851,0-5.655-1.352-7.401-3.874-2.828-4.083-1.809-9.684,2.274-12.512,52.941-36.664,112.943-69.505,192.778-61.624,4.942.488,8.553,4.89,8.066,9.832-.488,4.942-4.899,8.546-9.832,8.066-74.067-7.313-130.653,23.802-180.774,58.512-1.561,1.081-3.345,1.601-5.111,1.601Z" fill="#B6B6B6" id="JA5bLFkLsMggJIYkP3Dy4" />
              <path d="M1856.408,2261.989c-3.776,0-7.311-1.851-9.457-4.952-1.748-2.523-2.408-5.576-1.859-8.597.549-3.02,2.241-5.646,4.765-7.394,53.333-36.936,113.807-70.018,194.447-62.057,6.305.623,10.93,6.259,10.309,12.565-.622,6.299-6.26,10.927-12.562,10.31-73.258-7.235-129.377,23.639-179.108,58.079-1.932,1.338-4.192,2.045-6.535,2.045ZM2020.404,2182.801c-67.604,0-120.469,29.647-167.7,62.357-1.426.988-2.382,2.471-2.692,4.178-.31,1.706.063,3.431,1.05,4.855,1.212,1.752,3.211,2.798,5.346,2.798,1.321,0,2.596-.4,3.688-1.156,50.515-34.983,107.578-66.337,182.443-58.944,3.562.342,6.747-2.267,7.099-5.824.351-3.562-2.262-6.747-5.824-7.099-7.999-.79-15.797-1.166-23.409-1.166Z" fill="#000000" id="ieEl8QWa27pnS1gic86S" />
            </g>
            <g id="reTWI2KZY4Nf9yAk38hzt">
              <path d="M1885.519,2287.718c-1.452,0-2.925-.352-4.29-1.095-4.363-2.375-5.974-7.834-3.6-12.197,7.502-13.785,65.67-91.943,122.978-120.493,4.448-2.216,9.845-.405,12.059,4.038,2.215,4.446.406,9.845-4.038,12.059-52.452,26.131-109.283,102.118-115.201,112.992-1.631,2.997-4.719,4.695-7.907,4.695Z" fill="#B6B6B6" id="syXP4w6L8Llcc3yEmMa" />
              <path d="M1885.519,2290.218c-1.906,0-3.803-.483-5.485-1.398-5.566-3.029-7.63-10.022-4.602-15.588,7.566-13.903,66.24-92.731,124.059-121.536,2.748-1.37,5.866-1.587,8.776-.611,2.91.975,5.267,3.025,6.635,5.772,1.369,2.748,1.586,5.864.611,8.775-.975,2.911-3.025,5.268-5.772,6.636-51.951,25.881-108.256,101.174-114.12,111.949-2.014,3.701-5.885,6-10.103,6ZM2004.611,2155.486c-.991,0-1.977.23-2.89.685-56.794,28.294-114.458,105.782-121.897,119.45-1.71,3.145-.544,7.095,2.6,8.807.95.517,2.021.791,3.095.791,2.385,0,4.573-1.299,5.711-3.39,5.971-10.973,63.327-87.654,116.282-114.035,1.552-.773,2.71-2.104,3.261-3.749.551-1.645.428-3.405-.346-4.958-.773-1.552-2.104-2.71-3.748-3.261-.677-.227-1.374-.34-2.068-.34Z" fill="#000000" id="x-6B7bEdlI1CEfXv0Ac9y" />
            </g>
          </g>
        </g>
        <g id="EDyhKQHgeBTmdserAeor-">
          <path d="M1987.169,2082.558c-21.172-20.981-70.394-51.788-70.394-51.788,0,0,11.788-14.448,5.976-36.95-8.595-33.277-36.582-81.951-42.744-109.523-30.034-134.391-73.218-265.84-128.736-391.859-25.415-57.689-52.763-107.589-93.907-155.35-14.834-17.22-38.599-55.435-74.497-68.04-36.762-12.908-85.496,0-85.496,0l-224.068,5.344s-43.379,228.582,31.276,468.372c27.008,86.748,8.292,112.931,52.032,240.088,45.553,132.428,91.757,387.607,146.655,445.248,117.481,22.349,247.502-102.801,334.268-192.538,3.809-3.939,10.334-10.54,13.982-14.316,23.448-24.267,58.865-50.69,94.525-62.749,38.992-13.187,71.933-11.153,71.933-11.153,0,0-9.634-43.806-30.805-64.787Z" fill="#C7E4F5" id="gkYN4FBLvUW_ZpkyPlxC3" />
          <g id="LMVSebADTH4eq_NYV1Ngc">
            <path d="M1531.559,2433.225c-9.641,0-19.234-.857-28.761-2.669l-.789-.15-.554-.582c-36.528-38.354-68.732-161.113-99.876-279.832-16.329-62.242-31.751-121.033-47.332-166.327-23.502-68.323-27.659-108.195-31.326-143.375-3.211-30.801-5.984-57.401-20.683-96.65-6.293-16.805-39.594-28.407-69.806-32.451l.663-4.956c29.369,3.931,66.325,15.627,73.825,35.653,14.923,39.848,17.727,66.743,20.974,97.885,3.64,34.913,7.765,74.484,31.081,142.267,15.642,45.471,31.087,104.35,47.44,166.685,30.824,117.5,62.691,238.978,98.112,277.069,122.915,22.67,259.643-118.211,341.408-202.458,23.696-24.416,62.23-54.894,99.318-67.209,31.126-10.336,59.996-11.312,69.527-11.322-2.626-10.239-12.172-43.425-29.372-60.469-20.73-20.544-69.47-51.138-69.96-51.444l-2.402-1.503,1.792-2.196c.443-.549,10.894-13.83,5.492-34.744-4.266-16.514-13.419-36.987-22.271-56.786-8.933-19.979-17.371-38.851-20.492-52.817-29.953-134.032-73.215-265.717-128.583-391.396-7.741-17.57-23.014-48.219-45.397-91.093l4.433-2.313c22.433,42.972,37.755,73.72,45.54,91.391,55.5,125.976,98.864,257.972,128.888,392.321,3.011,13.476,11.349,32.124,20.177,51.867,8.937,19.987,18.177,40.655,22.547,57.576,4.771,18.471-1.657,31.739-4.857,36.854,9.936,6.316,49.802,32.09,68.614,50.733,21.449,21.256,31.087,64.208,31.487,66.026l.697,3.17-3.244-.135c-.336-.013-34.03-1.262-71.039,11.027-36.232,12.031-74.022,41.955-97.307,65.947-76.381,78.7-200.326,206.408-317.964,206.408Z" fill="#000000" id="gVUytCq71Yt1zbC7p7BxJ" />
            <path d="M1655.78,2391.281c-57.066-56.012-83.45-146.779-106.728-226.86-1.733-5.963-3.444-11.848-5.144-17.634-24.144-82.191-55.781-159.867-86.375-234.986-30.642-75.233-62.327-153.029-86.542-235.462-4.466-15.203-14.226-37.539-21.626-53.599-.301-.654-4.028-6.358-41.541-5.194-22.105.685-44.542,3.471-53.464,5.769-71.291,18.366-231.757,58.145-328.801,77.243-32.502,6.396-55.838,10.073-69.358,10.927-55.848,3.528-98.791-.479-131.288-12.249-29.151-10.557-47.384-26.198-65.017-41.324-9.131-7.833-18.573-15.932-29.426-23.216-54.93-36.866-63.409-173.524-58.909-233.929l4.986.371c-2.22,29.8-1.476,78.47,7.271,125.697,6.805,36.742,20.905,84.56,49.438,103.709,11.098,7.449,20.654,15.646,29.895,23.572,36.044,30.919,70.092,60.125,192.734,52.377,13.303-.84,36.42-4.488,68.708-10.843,96.932-19.076,257.277-58.826,328.52-77.179,9.186-2.367,32.104-5.23,54.557-5.925,41.902-1.296,45.166,5.775,46.237,8.099,7.471,16.212,17.332,38.79,21.882,54.282,24.144,82.191,55.78,159.867,86.375,234.986,30.642,75.233,62.327,153.029,86.542,235.462,1.701,5.791,3.413,11.681,5.148,17.648,23.106,79.493,49.296,169.592,105.429,224.688l-3.502,3.568Z" fill="#000000" id="Bw2yMc1UAhDONJYIru3TO" />
            <path d="M1694.326,2240.766l-3.002-3.999c41.554-31.193,70.727-68.162,98.939-103.914,38.405-48.667,71.572-90.697,125.896-104.507l1.231,4.846c-52.681,13.392-85.361,54.806-123.202,102.758-27.087,34.326-57.789,73.231-99.862,104.815Z" fill="#000000" id="yMQq7pjky4NrNUnH_Naa" />
          </g>
          <path d="M1484.9,2414.552l-.482-4.977c83.3-8.066,164.125-42.554,227.587-97.11,23.675-20.354,45.307-43.732,66.227-66.34,19.729-21.321,40.128-43.368,62.287-62.948,25.202-22.269,51.272-39.287,77.485-50.582,30.615-13.191,60.629-18.124,89.208-14.657l-.602,4.964c-51.226-6.211-109.029,16.526-162.781,64.022-21.97,19.413-42.283,41.366-61.928,62.597-21.015,22.711-42.745,46.196-66.637,66.736-64.236,55.222-146.048,90.131-230.365,98.295Z" fill="#000000" id="FxnOs36FbyTqrVRucN-n7" />
        </g>
      </g>
      <g id="oQOO2gH4Mi2VwPMWXjg">
        <rect x="1537.075" y="1633.491" width="180.816" height="136.063" fill="#000000" id="PtdmjQB7ud6LlM_QBSpPb" />
        <g id="Er_avw-3CATUCAVjSbFhN">
          <rect x="1350.507" y="1491.019" width="215.581" height="153.117" transform="translate(979.164 -519.133) rotate(30)" fill="#FCDABE" id="FRKAYbTUROEhZTmBe2t8g" />
          <path d="M1513.367,1690.274c-.435,0-.867-.114-1.25-.335l-186.699-107.791c-1.196-.69-1.605-2.219-.915-3.415l76.558-132.603c.332-.574.877-.993,1.518-1.165.64-.17,1.322-.082,1.897.25l186.699,107.791c1.196.69,1.605,2.219.915,3.415l-76.558,132.603c-.332.574-.877.993-1.518,1.165-.213.057-.43.085-.647.085ZM1330.084,1579.069l182.369,105.291,74.058-128.273-182.369-105.291-74.058,128.273Z" fill="#000000" id="g5T1Ajn0MrYGx9RHwUwI" />
        </g>
        <g id="yXAzv0gHu8RZfYJn34q2t">
          <path d="M1423.338,1574.056c57.087,39.082,215.801,124.59,296.325,207.824,62.762,64.873,43.205,116.59,43.205,116.59,0,0,43.844-31.109,66.638-82.957,26.015-59.173,16.39-99.705,16.39-99.705,0,0,35.09-25.102,53.905-47.404,42.19-50.008,98.734-119.975,159.108-193.628,22.621-27.596,86.133-101.447,101.897-196.412,12.086-72.806,3.052-153.365-61.292-195.62-91.111-59.833-176.479-55.054-245.365-33.394-85.444,26.866-148.48,89.29-249.24,187.189-24.313,23.623-69.551,75.459-128.327,122.27-98.752,78.651-215.382,168.106-232.051,215.14,67.783-51.148,143.279-24.215,178.806.106Z" fill="#C7E4F5" id="nWe65Vhk7g3SVfIag6e8v" />
          <path d="M1757.631,1905.252l2.899-7.666c.045-.121,4.666-12.821,1.747-33.083-2.702-18.751-12.6-48.005-44.41-80.885-59.538-61.541-160.648-123.516-234.476-168.767-25.054-15.356-46.69-28.618-61.464-38.732-42.597-29.162-114.222-46.705-175.888-.173l-6.642,5.012,2.779-7.842c15.509-43.762,113.197-121.284,207.668-196.253,8.474-6.725,16.891-13.404,25.182-20.008,43.767-34.857,79.571-72.058,105.714-99.221,8.716-9.056,16.243-16.876,22.428-22.886l6.077-5.905c96.273-93.564,159.875-155.375,244.155-181.875,40.187-12.636,77.905-17.206,115.314-13.968,45.55,3.941,90.02,19.976,132.173,47.658,74.748,49.087,71.171,145.198,62.386,198.12-15.228,91.735-74.25,163.375-99.453,193.967-1.057,1.283-2.051,2.49-2.977,3.62-17.958,21.908-35.561,43.469-52.583,64.32-39.544,48.438-76.895,94.188-106.547,129.335-16.96,20.103-46.385,42.015-53.043,46.871,1.537,8.322,6.563,46.322-16.874,99.632-22.809,51.881-67.036,83.674-67.48,83.989l-6.684,4.742ZM1424.75,1571.993c14.67,10.043,36.257,23.274,61.253,38.595,74.056,45.391,175.479,107.557,235.457,169.553,32.888,33.995,43.068,64.45,45.817,84.013,1.722,12.253.865,21.823-.222,27.874,12.484-10.252,42.739-37.888,60.163-77.521,25.324-57.602,16.339-97.725,16.246-98.124l-.383-1.63,1.362-.978c.349-.25,35.056-25.181,53.449-46.982,29.626-35.116,66.965-80.852,106.496-129.273,17.024-20.853,34.628-42.416,52.589-64.328.928-1.132,1.926-2.343,2.985-3.629,24.948-30.282,83.371-101.196,98.379-191.607,8.586-51.722,12.182-145.589-60.198-193.121-75.928-49.863-155.495-60.69-243.242-33.1-83.146,26.144-146.41,87.626-242.17,180.691l-6.077,5.906c-6.125,5.951-13.625,13.744-22.31,22.768-26.24,27.263-62.177,64.602-106.202,99.665-8.293,6.605-16.713,13.287-25.189,20.013-84.051,66.701-178.63,141.758-202.346,185.788,28.729-19.2,60.874-27.05,95.69-23.35,38.915,4.138,67.829,21.503,78.454,28.777Z" fill="#000000" id="U2GMR-BkSuVVftT7unNZ6" />
        </g>
        <path d="M1411.692,1569.44l-3.642-3.426c29.34-31.186,63.343-57.27,101.066-77.529,8.431-4.528,17.153-8.812,25.588-12.956,14.579-7.161,29.653-14.566,43.523-23.39,25.452-16.192,47.571-37.541,68.961-58.187,11.403-11.005,26.375-32.051,40.854-52.403,14.611-20.538,29.721-41.775,41.456-53.102,23.322-22.509,44.011-37.153,64.019-51.314,24.435-17.295,47.515-33.63,73.462-62.707,10.749-12.045,21.609-29.473,33.106-47.924,20.28-32.545,43.265-69.433,74.51-92.264l2.95,4.037c-30.464,22.259-53.177,58.71-73.217,90.871-11.614,18.639-22.584,36.243-33.619,48.609-26.326,29.5-49.631,45.996-74.304,63.459-19.855,14.054-40.387,28.585-63.435,50.831-11.403,11.005-26.375,32.051-40.854,52.403-14.611,20.538-29.721,41.775-41.456,53.102-21.569,20.818-43.873,42.345-69.75,58.808-14.102,8.971-29.303,16.438-44.002,23.659-8.395,4.124-17.076,8.388-25.428,12.874-37.246,20.003-70.82,45.758-99.79,76.549Z" fill="#000000" id="OyDDkKx4HXcB4i7xSqgrk" />
        <g id="GIZzRxYpa3d3ijWuFMiX">
          <g id="gFlcSQFW0M0pk-GC7q5Gk">
            <path d="M1745.72,1813.574c-31.59-47.416-82.8-80.184-112.559-90.636-5.725-2.01-11.62-3.803-16.695-7.128-6.846-4.486-39.899-45.411-51.06-64.531-11.161-19.12-26.544-37.02-47.299-44.725-16.312-6.056-87.009-3.082-103.173-9.525-16.164-6.443-4.313-46.816-33.409-63.027-20.619-11.488-78.579,6.655-106.298,21.064-52.41,27.244-93.811,74.012-124.979,113.341l569.353,349.628c72.344-79.393,61.62-151.175,26.119-204.46Z" fill="#F4F4F4" id="NBaHQwrzRejZpsPmUXDS6" />
            <path d="M1720.055,2021.247l-573.517-352.186,1.75-2.208c30.508-38.496,72.376-86.244,125.786-114.007,27.185-14.13,86.747-33.241,108.668-21.029,17.567,9.787,21.042,27.722,23.835,42.133,1.922,9.918,3.583,18.483,9.283,20.756,7.821,3.118,30.195,3.959,51.832,4.774,22.059.831,42.895,1.615,51.285,4.729,18.507,6.871,34.855,22.283,48.588,45.809,11.558,19.801,44.124,59.673,50.271,63.701,4.143,2.714,8.862,4.341,13.859,6.064.766.264,1.531.528,2.294.796,27.696,9.728,80.86,42.151,113.811,91.609,31.358,47.067,52.241,121.278-26.352,207.53l-1.393,1.529ZM1153.961,1667.752l565.179,347.065c74.783-83.207,54.684-154.551,24.5-199.857-32.27-48.437-84.245-80.159-111.307-89.664-.753-.265-1.51-.525-2.267-.787-5.067-1.747-10.306-3.554-14.97-6.609-7.252-4.752-40.507-45.932-51.849-65.363-13.135-22.5-28.615-37.184-46.01-43.642-7.639-2.836-29.038-3.642-49.732-4.42-23.076-.869-44.873-1.689-53.496-5.126-8.238-3.284-10.139-13.092-12.34-24.449-2.731-14.091-5.826-30.062-21.36-38.716-18.661-10.399-74.019,5.551-103.929,21.098-51.558,26.8-92.378,72.762-122.419,110.469Z" fill="#000000" id="wk165q2gTZ5GfeiNfzc_T" />
          </g>
          <g id="m0EZvnzXNj4d1T6LTy2X">
            <path d="M1224.354,1855.311c44.697,26.767,97.117,46.941,141.304,74.304,30.759,19.047,151.308,106.284,249.274,111.439,28.82,1.516,80.903.229,80.903.229,0,0,29.573-22.651,45.215-55.739,53.162-112.457-56.316-180.404-89.992-197.022-39.098-19.294-204.998-53.448-223.482-61.429-35.104-15.157-65.582-39.079-97.13-60.683-40.28-27.582-111.981-48.293-161.818-17.869-12.982,7.925-51.26,66.394-51.26,66.394,0,0,77.054,122.451,106.986,140.375Z" fill="#F4F4F4" id="v0LwB-OKKjW7NCKooquE" />
            <path d="M1652.688,2044.288c-13.295,0-27.219-.176-37.887-.737-86.749-4.564-191.019-72.958-235.544-102.163-6.263-4.108-11.209-7.353-14.916-9.647-22.851-14.15-48.387-26.6-73.083-38.639-22.921-11.175-46.623-22.73-68.189-35.645-30.099-18.024-104.658-136.168-107.817-141.188l-.855-1.358.879-1.342c1.576-2.407,38.739-59.034,52.049-67.159,53.657-32.758,127.793-7.218,164.534,17.939,6.436,4.407,12.929,8.982,19.208,13.407,24.473,17.244,49.78,35.075,77.5,47.044,6.717,2.9,35.052,9.739,67.861,17.659,58.37,14.089,131.013,31.623,155.736,43.823,11.493,5.671,51.116,26.998,78.451,63.31,14.194,18.855,22.945,38.94,26.01,59.699,3.67,24.855-.81,50.871-13.315,77.324-15.72,33.253-44.728,55.715-45.955,56.655l-.646.494-.813.02c-.327.008-20.878.506-43.209.506ZM1120.343,1714.961c8.528,13.428,77.888,121.792,105.296,138.205,21.382,12.805,44.985,24.312,67.812,35.44,24.807,12.094,50.459,24.6,73.525,38.883,3.761,2.329,8.732,5.59,15.025,9.717,44.187,28.983,147.665,96.857,233.064,101.351,26.41,1.389,73.071.402,79.877.246,4.323-3.474,29.906-24.832,43.85-54.327,54.678-115.664-64.41-181.658-88.838-193.712-24.224-11.954-99.634-30.155-154.696-43.446-34.394-8.302-61.561-14.859-68.671-17.929-28.195-12.175-53.717-30.157-78.398-47.547-6.266-4.415-12.746-8.98-19.154-13.368-35.667-24.423-107.472-49.318-159.103-17.798-9.983,6.094-38.345,47.223-49.588,64.286Z" fill="#000000" id="NIRIOpJMWjWURrN9MTrj1" />
          </g>
          <g id="bbroETeBwUk0xHARgpWx5">
            <path d="M1204.542,1890.226c44.697,26.767,97.117,46.941,141.304,74.304,30.759,19.047,151.308,106.284,249.274,111.439,76.854,4.043,116.142-46.493,124.053-66.101,46.54-115.355-54.25-169.812-87.927-186.431-39.098-19.294-204.998-53.448-223.482-61.429-35.104-15.157-65.582-39.079-97.13-60.683-50.772-34.767-151.469-58.617-195.372,17.099-48.433,83.528,59.348,153.877,89.28,171.802Z" fill="#F4F4F4" id="aOFkllriffn9nRG9zaEnC" />
            <path d="M1603.776,2078.698c-2.874,0-5.801-.076-8.787-.233-86.748-4.564-191.018-72.957-235.542-102.162-6.263-4.108-11.21-7.353-14.917-9.648-22.851-14.15-48.387-26.6-73.083-38.639-22.922-11.175-46.624-22.73-68.19-35.645-17.728-10.616-51.003-32.771-74.681-61.866-14.077-17.297-22.978-34.801-26.457-52.023-4.212-20.854-.518-41.482,10.98-61.311,14.803-25.529,36.786-41.748,65.34-48.207,46.399-10.496,100.539,7.655,133.607,30.299,6.436,4.407,12.929,8.982,19.208,13.406,24.473,17.244,49.78,35.075,77.501,47.045,6.717,2.9,35.052,9.739,67.861,17.659,58.37,14.089,131.013,31.623,155.736,43.823,12.233,6.037,49.458,24.407,74.906,56.889,29.686,37.893,34.475,82.546,14.232,132.719-7.33,18.168-44.272,67.895-117.715,67.896ZM1207.089,1670.895c-9.339,0-18.594.919-27.547,2.945-27.142,6.139-48.041,21.562-62.118,45.838-20.041,34.563-14.984,70.789,15.03,107.67,23.195,28.503,55.926,50.285,73.372,60.732h0c21.381,12.805,44.985,24.312,67.812,35.44,24.807,12.094,50.459,24.6,73.524,38.883,3.762,2.33,8.733,5.59,15.027,9.719,44.187,28.983,147.664,96.856,233.062,101.349,2.9.152,5.749.227,8.539.227,70.69.002,106.07-47.43,113.064-64.767,30.917-76.633.932-140.001-86.715-183.254-24.224-11.954-99.634-30.155-154.697-43.446-34.394-8.302-61.56-14.859-68.67-17.929-28.195-12.175-53.717-30.158-78.398-47.548-6.266-4.415-12.745-8.98-19.153-13.368-25.761-17.64-64.607-32.492-102.132-32.492Z" fill="#000000" id="gJ55yZdFcpxCRPEQkxAcc" />
          </g>
          <path d="M1615.936,1718.252c-37.506-8.149-88.287-6.141-110.797-2.22l-.858-4.926c22.899-3.99,74.559-6.032,112.717,2.26l-1.062,4.886Z" fill="#000000" id="grGtHfl20k7ewvsJ7-N3y" />
        </g>
        <path d="M1843.619,1716.84c-4.768-10.526-9.638-20.632-14.348-30.405-25.662-53.247-47.824-99.233-26.838-161.142l4.735,1.605c-20.33,59.973.383,102.952,26.607,157.365,4.723,9.799,9.606,19.933,14.398,30.513l-4.555,2.062Z" fill="#000000" id="Dv1Fv1ENuTggOLr5NZCDS" />
      </g>
      <g id="BXB6Yb7bSDWtdDB9Pd-2D">
        <path d="M1511.997,1544.949l-88.66,29.107c57.087,39.082,220.956,119.894,296.325,207.824,56,65.332,54.491,115.438,54.491,115.438,0,0,32.558-29.956,55.353-81.805,17.42-39.623,17.909-87.221,17.909-87.221l-335.418-183.343Z" fill="#C7E4F5" id="Wjh0Rf5plfKSTe0kjHkBC" />
        <path d="M1770.659,1907.103l.125-6.229c.011-.571.44-58.04-52.979-117.321-57.05-63.311-158.784-124.151-233.067-168.575-25.68-15.358-47.858-28.621-62.813-38.859l2.824-4.126c14.829,10.152,36.946,23.378,62.555,38.694,74.555,44.587,176.661,105.65,234.215,169.519,28.617,31.758,41.842,62.822,47.897,83.289,4.146,14.013,5.6,24.986,6.104,31.35,9.516-10.606,33.98-40.042,51.695-80.337,25.324-57.602,16.339-97.725,16.246-98.124l4.866-1.152c.401,1.688,9.519,42.03-16.534,101.289-22.719,51.677-56.402,85.83-56.739,86.168l-4.396,4.414Z" fill="#000000" id="ItfA2Klk5vdABQ8fYTFi6" />
        <path d="M1798.486,1873.887l-4.879-1.091c8.085-36.15-7.779-61.084-29.358-89.924-27.156-36.291-59.16-68.995-85.61-87.483-27.597-19.289-56.027-38.294-83.521-56.674l-88.399-59.095c-7.331-4.901-14.79-10.142-22.686-15.69-30.873-21.693-65.864-46.28-100.11-53.991-39.046-8.792-74.747-.833-109.142,24.327l-2.952-4.035c35.628-26.063,72.652-34.296,113.192-25.17,35.212,7.928,70.634,32.818,101.886,54.778,7.872,5.531,15.307,10.755,22.59,15.625l88.399,59.095c27.516,18.394,55.968,37.414,83.607,56.732,26.863,18.776,59.292,51.893,86.749,88.586,22.36,29.883,38.785,55.78,30.235,94.01Z" fill="#000000" id="Wk6p1dchDw5gNqyxraSh2" />
      </g>
      <g id="sQMjHw1aViCprEYmpYiAF">
        <path d="M1195.252,1150.092s-55.786,28.706-154.681,43.847c-62.098,9.507-182.961,18.893-294.346,15.164-137.718-4.611-262.513-23.915-262.513-23.915l35.92,462.366s7.159-99.802,82.09-153.32c134.859-96.322,654.8-103.325,654.8-103.325-8.923-60.688-2.865-110.88-15.991-148.89-19.766-57.242-45.279-91.926-45.279-91.926Z" fill="#C7E4F5" id="zT0pyKGmLwVHZl68Zr54X" />
        <path d="M522.284,1661.202c-28.57-67.429-39.047-194.646-42.806-289.494-4.067-102.629-1.371-190.524-1.344-191.4l.095-3.004,2.937.641c.647.141,65.883,14.22,166.968,22.869,93.271,7.979,237.002,12.835,392.082-9.348,97.389-13.931,153.306-43.283,153.859-43.578l1.919-1.022,1.279,1.759c.415.57,41.766,58.288,68.078,166.223l-4.857,1.185c-23.556-96.631-59.099-152.416-66.061-162.725-10.851,5.338-65.448,30.512-153.509,43.109-155.586,22.256-299.761,17.381-393.312,9.372-89.296-7.645-150.739-19.522-164.563-22.342-.428,16.199-2.214,96.234,1.427,188.097,5.367,135.404,20.033,234.893,42.412,287.711l-4.604,1.95Z" fill="#000000" id="beQ_cRzbSWFC8Sh5EXLrw" />
        <path d="M1149.51,1364.296c-49.191-15.213-144.888-39.285-233.116-29.562l-.548-4.97c89.129-9.823,185.58,14.426,235.141,29.755l-1.478,4.776Z" fill="#000000" id="Qgp9XNeqa7cTFW6giT9hn" />
        <g id="gnlqMyxipbLjZmCpZViK">
          <path d="M691.112,1282.642c-103.765,0-188.985-6.626-223.345-18.592l1.645-4.722c48.086,16.745,205.333,22.934,365.769,14.395,86.157-4.585,166.114-12.941,231.227-24.164,75.179-12.958,128.752-29.206,159.23-48.29l2.653,4.238c-82.39,51.591-302.174,68.384-392.845,73.209-49.848,2.653-98.877,3.925-144.334,3.925Z" fill="#000000" id="Hv-L45oFKPVE6JMi8ww_q" />
          <path d="M1147.88,1311.537c-5.966-17.663-29.292-53.412-43.787-67.107l-.585-.553-.152-.791c-4.605-23.86-12.761-42.341-24.242-54.929l3.694-3.369c11.982,13.138,20.494,32.167,25.304,56.567,14.953,14.487,38.433,50.603,44.506,68.581l-4.737,1.601Z" fill="#000000" id="CZ30Gwos1I2dd5RuRdwjB" />
          <g id="ppF_FC5A8lp57SnebaIhm">
            <path d="M925.744,1203.388l-30.953,1.652c8.969,28.349,14.964,55.612,17.856,85.206l34.189-4.372c-1.887-27.655-12.422-57.275-21.092-82.486Z" fill="#C7E4F5" id="LtGU8_9cFOAx5KEg4BJs" />
            <path d="M910.409,1293.053l-.25-2.563c-2.758-28.219-8.398-55.131-17.752-84.695l-.974-3.078,36.062-1.925,1.701,4.943c8.579,24.905,18.303,53.133,20.135,79.97l.161,2.352-39.082,4.997ZM898.138,1207.365c8.612,27.814,13.962,53.411,16.739,80.076l29.285-3.744c-2.179-25.49-11.468-52.457-19.693-76.334l-.474-1.377-25.856,1.379Z" fill="#000000" id="d7r-iYnCKXxhon-rBRGnn" />
          </g>
          <g id="Z_RSwLXCcO3KhI4ajWnrY">
            <path d="M1113.604,1205.564c3.694,12.574,16.922,17.659,27.11,15.232,7.925-1.887,15.83-9.616,11.084-19.665-4.04-8.555-16.447-13.011-27.164-11.105-7.881,1.401-13.623,6.291-11.03,15.538Z" fill="#F4F4F4" id="gqBbfacejxBWuM9uXpuLw" />
            <path d="M1135.666,1223.873c-10.097,0-21.024-5.907-24.46-17.604l-.009-.029c-1.27-4.529-.881-8.471,1.156-11.715,2.245-3.575,6.34-5.981,11.844-6.96,12.393-2.203,25.512,3.287,29.863,12.5,2.145,4.542,2.23,9.124.248,13.25-2.281,4.747-7.268,8.546-13.014,9.915-1.807.43-3.703.645-5.627.645ZM1116.007,1204.875c3.271,11.104,15.068,15.647,24.128,13.489,4.252-1.013,8.046-3.845,9.666-7.215,1.327-2.761,1.238-5.772-.263-8.95-3.378-7.153-14.352-11.511-24.466-9.711-4.019.714-7.032,2.382-8.485,4.696-1.253,1.996-1.449,4.583-.58,7.691Z" fill="#000000" id="IJQbLpoiP-yiGtBR0aMSW" />
          </g>
        </g>
      </g>
      <g id="CS_mnej3SRm3INad4soAB">
        <path d="M1603.76,2054.717c-2.473,0-5-.067-7.51-.199-80.272-4.224-180.743-70.123-223.646-98.263-6.398-4.197-11.446-7.509-15.45-9.988-11.931-7.388-25.217-14.781-41.812-23.265l-2.378-1.216,84.272-140.927,2.012.869c8.234,3.555,29.099,8.661,71.743,18.954,51.138,12.343,128.418,30.997,150.75,42.016,11.025,5.441,44.563,21.993,66.641,50.174,24.354,31.086,27.91,66.727,10.871,108.958-4.507,11.171-33.925,52.887-95.494,52.887ZM1319.995,1919.769c15.621,8.042,28.318,15.143,39.792,22.247,4.059,2.514,9.131,5.841,15.554,10.055,42.57,27.922,142.248,93.302,221.171,97.455,2.424.127,4.862.192,7.248.192,58.768,0,86.616-39.248,90.857-49.758,16.311-40.428,12.984-74.448-10.17-104.003-21.376-27.285-54.146-43.458-64.915-48.772-21.836-10.775-98.791-29.35-149.713-41.641-39.857-9.621-60.824-14.744-70.511-18.404l-79.312,132.63Z" fill="#B6B6B6" id="DRz5Lki6qOzxVHTnBFvK" />
        <path d="M1269.882,1900.564l-2.035-1c-17.128-8.421-35.315-17.613-52.27-27.766-16.376-9.807-47.039-30.178-68.402-56.429-11.598-14.252-18.849-28.261-21.551-41.635-3.06-15.151-.371-29.719,8.22-44.535,15.125-26.086,39.747-39.313,73.179-39.313,29.698,0,65.604,11.447,91.475,29.163,6.331,4.335,12.745,8.854,18.947,13.225h0c12.191,8.59,24.798,17.474,37.826,25.73l2.09,1.325-87.479,141.235ZM1207.023,1694.885c-31.521,0-54.687,12.389-68.854,36.821-7.951,13.713-10.452,27.136-7.644,41.037,2.54,12.572,9.446,25.852,20.528,39.469,20.881,25.658,50.999,45.658,67.093,55.295,16.131,9.66,33.442,18.468,49.874,26.567l82.489-133.178c-12.387-7.938-24.352-16.37-35.943-24.537h0c-6.189-4.361-12.589-8.87-18.893-13.186-25.095-17.185-59.892-28.289-88.65-28.289Z" fill="#B6B6B6" id="TjaBo7wVBmI0m-fbIoX" />
      </g>
      <path d="M1151.204,1364.218l-1.912-4.62c.385-.159,39.25-16.095,106.18-30.962,61.717-13.709,160.683-29.315,281.675-25.81l-.145,4.998c-120.409-3.491-218.888,12.028-280.299,25.66-66.551,14.773-105.117,30.576-105.499,30.734Z" fill="#000000" id="dEsB7i0TZefqnyISBEepg" />
    </g>
    <g id="Bb_nMRX1lb-Iwq0Cm5MzU">
      <g id="opy_8z7KELRchvRdYpUW8">
        <path d="M895.483,1394.809c-24.433-84.557-40.441-143.396-49.229-231.336-3.205-32.072,24.123-251.549,12.404-312.171-14.709-76.089-70.841-122.965-117.624-184.75-24.411-32.239-85.833-137.101-85.833-137.101l-264.997,60.028c-62.101,46.467-119.237,136.152-144.553,209.465-8.366,24.227-14.324,49.207-20.268,74.14-17.961,75.338,13.564,188.976,17.407,301.064,6.009,175.309,35.711,389.535,62.026,403.938,46.331,25.358,121.231,51.474,161.377,62.919,36.885,10.516,75.102,15.623,113.31,18.975,105.945,9.294,273.375-34.448,378.327-51.649-17.602-82.235-37.015-125.858-62.345-213.522Z" fill="#157E39" id="Q4QvwH25SBIqbZjKTRgl" />
        <path d="M611.321,1663.777c-11.146,0-21.852-.413-32.037-1.307-31.553-2.768-73-7.435-113.777-19.061-39.051-11.133-114.392-37.133-161.891-63.131-16.744-9.164-30.94-83.07-39.9-143.455-11.744-79.145-20.501-177.31-23.424-262.591-1.461-42.625-6.907-85.245-12.174-126.461-8.425-65.936-16.384-128.215-5.166-175.268,5.861-24.585,11.922-50.008,20.336-74.376,22.839-66.14,78.088-160.271,145.419-210.65l.426-.319.52-.118,266.782-60.432.925,1.579c.613,1.047,61.626,105.103,85.669,136.855,11.621,15.348,23.942,29.916,35.858,44.004,36.544,43.207,71.061,84.018,82.228,141.781,7.434,38.458-.5,137.675-6.875,217.398-3.575,44.708-6.663,83.319-5.496,94.999,8.665,86.712,24.347,145.075,49.144,230.891,9.32,32.256,17.681,58.057,25.767,83.009,13.67,42.186,25.477,78.618,36.622,130.684l.549,2.566-2.59.424c-26.953,4.417-58.156,10.612-91.191,17.17-85.223,16.92-180.359,35.808-255.721,35.808ZM391.277,591.799c-56.843,42.739-115.707,128.161-143.263,207.96-8.334,24.135-14.366,49.436-20.2,73.903-11.006,46.166-3.104,108.005,5.262,173.475,5.281,41.33,10.742,84.066,12.211,126.924,2.917,85.104,11.655,183.058,23.373,262.027,12.07,81.345,26.035,133.607,37.355,139.803,47.139,25.8,122.026,51.637,160.862,62.708,40.371,11.51,81.512,16.14,112.843,18.889,78.344,6.873,188.849-15.068,286.347-34.424,32.026-6.358,62.332-12.375,88.765-16.773-10.93-50.46-22.534-86.268-35.937-127.627-8.098-24.989-16.471-50.829-25.814-83.162-24.875-86.088-40.607-144.647-49.315-231.781-1.212-12.126,1.745-49.093,5.487-95.894,6.017-75.23,14.255-178.262,6.951-216.051-10.918-56.48-45.026-96.807-81.136-139.501-11.958-14.139-24.324-28.759-36.026-44.214-22.58-29.822-77.271-122.507-85.07-135.769l-262.694,59.506Z" fill="#000000" id="PAV_UtBQ95imzLMC5qx4n" />
      </g>
      <path d="M1244.532,1043.945c-28.297-11.114-17.473-59.142-32.766-108.34-2.573-8.276-5.22-16.749-7.923-25.364-31.387-100.019-36.776-228.999-55.03-284.579-6.466-19.686-43.941-21.723-43.941-21.723,0,0-76.291-50.684-139.636-62.716l15.784,250.97c2.806,49.862,49.142,81.108,69.405,131.868,37.738,94.538,91.662,159.025,104.984,183.005,23.043,41.477,79.931,149.204,107.168,222.922,50.688-26.081,160.761-108.603,174.632-198.356-52.791-56.589-115.915-57.538-192.677-87.686Z" fill="#157E39" id="lrbYNSeonRa1iDvo9vo" />
      <path d="M1261.21,1333.502l-.979-2.648c-26.143-70.756-81.428-176.53-107.009-222.575-3.34-6.012-9.392-14.781-17.054-25.884-22.385-32.438-59.852-86.728-88.066-157.408-8.267-20.708-20.996-38.209-33.306-55.134-17.787-24.454-34.587-47.551-36.273-77.521l-15.985-254.167,3.164.601c59.96,11.389,132.164,57.625,139.882,62.65,2.639-.029,10.925.376,26.318,4.92l-1.416,4.795c-17.563-5.185-25.35-4.703-25.425-4.701l-.85.061-.723-.471c-.746-.496-74.062-48.866-135.554-61.71l15.58,247.725c1.605,28.516,17.984,51.036,35.326,74.877,12.491,17.173,25.408,34.932,33.906,56.221,28.005,70.157,65.272,124.157,87.538,156.421,7.739,11.214,13.852,20.072,17.31,26.296,25.325,45.586,79.704,149.599,106.335,220.603,48.673-26.081,161.218-114.801,170.667-193.968-5.246-5.761-9.086-11.374-12.493-16.353-7.846-11.467-13.514-19.753-30.272-21.915-4.655-.605-11.955,4.433-18.396,8.874-9.264,6.387-18.843,12.992-25.479,7.215-34.394-29.941-69.448-59.23-91.481-76.437-11.673-9.115-29.741-12.21-29.922-12.241l-2.99-.499,1.059-2.841c.125-.334,12.448-33.863,13.481-77.34.949-39.929-7.719-96.712-54.4-140.473l3.42-3.647c21.237,19.909,36.669,44.06,45.867,71.781,7.343,22.132,10.744,46.563,10.108,72.617-.904,37.061-9.866,67.051-12.839,76.046,5.873,1.298,19.424,4.949,29.294,12.657,22.098,17.257,57.23,46.61,91.687,76.605,3.709,3.23,11.665-2.256,19.357-7.561,7.532-5.192,15.317-10.561,21.874-9.716,18.98,2.449,25.829,12.459,33.759,24.051,3.475,5.078,7.413,10.834,12.807,16.617l.779.835-.122,1.136c-8.86,82.74-127.848,175.55-175.974,200.313l-2.511,1.292Z" fill="#000000" id="j-raVwPNTiBePxFiu5Usd" />
      <g id="WkQ3VEvgipYH2IqgQF3_">
        <path d="M1017.952,557.806s-8.666-11.929-19.056-20c-6.399-4.971-33.291-7.348-41.068-9.622,7.407,83.721.075,144.354-17.602,209.752l40.793,54.257c19.922-38.242,25.469-77.236,28.78-120.228,1.504-19.534,8.153-114.158,8.153-114.158Z" fill="#449A39" id="wSIxztnmD6RR87ZVrfbQ5" />
        <path d="M981.404,796.864l-43.91-58.402.318-1.179c19.268-71.28,24.346-131.796,17.526-208.879l-.323-3.647,3.515,1.028c2.468.722,7.357,1.516,12.532,2.357,13.948,2.267,24.968,4.272,29.368,7.69,10.55,8.194,19.183,20.006,19.545,20.505l.535.736-.064.908c-.066.946-6.667,94.856-8.154,114.174-3.65,47.393-9.784,84.198-29.056,121.192l-1.833,3.517ZM942.957,737.408l37.653,50.08c17.461-35.067,23.213-70.479,26.697-115.716,1.406-18.267,7.392-103.335,8.086-113.213-2.021-2.659-9.486-12.142-18.031-18.778-3.743-2.908-17.244-5.102-27.103-6.704-3.666-.596-7.003-1.138-9.644-1.67,6.387,75.653,1.225,135.688-17.659,206.001Z" fill="#000000" id="Kmdric5KNhuojpon-lWez" />
      </g>
      <path d="M1580.54,1027.764c-25.733-65.727-76.897-110-140.373-121.469l-1.038-.187-.59-.874c-50.345-74.553-103.401-144.689-135.167-178.68-27.71-28.63-83.915-80.655-148.66-107.051-31.26-12.744-49.679-13.063-49.862-13.064l-.705-.007-.601-.374c-.14-.088-14.149-8.854-24.775-15.119l2.539-4.307c9.454,5.574,21.554,13.106,24.313,14.828,3.813.16,21.858,1.542,50.979,13.414,65.592,26.741,122.382,79.291,150.395,108.235,31.834,34.064,84.796,104.032,135.099,178.457,33.043,6.16,62.603,20.752,87.874,43.381,23.69,21.214,42.788,49.222,55.227,80.994l-4.656,1.823Z" fill="#000000" id="RuPpUug2gGsCAaR9F1K3d" />
      <g id="Fr-kNLv9qwZh0hRPn0MUN">
        <path d="M717.021,599.117c-35.033-46.307-56.77-67.441-72.682-108.507l-47.949,52.163c10.917,28.926,30.975,58.276,45.195,81.241,30.622,49.457,61.647,84.737,109.476,131.055,12.15,11.766,77.098,55.005,100.847,70.774v-80.413c-39.727-35.464-103.225-104.464-134.886-146.314Z" fill="#449A39" id="e7ZIPehTTh6iHlONklU8U" />
        <path d="M854.407,830.504l-3.883-2.579c-58.734-39-92.784-62.908-101.203-71.061-44.955-43.535-77.343-79.014-109.862-131.535-2.393-3.864-4.928-7.873-7.611-12.116-13.42-21.222-28.631-45.274-37.796-69.558l-.544-1.441,51.711-56.255,1.452,3.747c12.053,31.108,27.892,51.163,49.814,78.918,6.711,8.499,14.319,18.13,22.53,28.983,32.079,42.401,94.956,110.605,134.558,145.957l.835.746v86.193ZM599.278,543.325c9.041,23.329,23.77,46.619,36.795,67.216,2.69,4.254,5.231,8.272,7.637,12.157,32.246,52.079,64.417,87.313,109.09,130.575,8.017,7.764,40.512,30.604,96.607,67.907v-74.632c-39.838-35.73-102.369-103.611-134.38-145.923h0c-8.18-10.812-15.77-20.422-22.466-28.901-21.316-26.989-36.951-46.783-49.074-76.493l-44.209,48.094Z" fill="#000000" id="aSKaIAjRYreA44IokRvL2" />
      </g>
      <path d="M1279.555,977.191l-4.64-1.862c13.228-32.954,75.533-88.483,166.091-73.963l-.791,4.937c-87.777-14.07-147.951,39.227-160.66,70.889Z" fill="#000000" id="uvT0NcjXqX9Z1uvXTTG" />
    </g>
    <g id="W1kuxoLnh_dBPuOfBVjg0">
      <g id="ghIjEryouFakg2Jaekfti">
        <path d="M1649.724,1088.017c-26.262-30.808-72.791-70.338-111.452-82.345-139.478-43.321-192.316,47.071-204.096,76.224-11.012,27.253-5.499,30.8-20.326,56.179-4.346,7.44-31.786,31.413-11.152,50.697,26.54,24.803,58.756-6.523,71.446-19.56,13.4-13.768,33.384-50.516,33.384-50.516,0,0,40.302,10.416,67.099,30.525,37.732,28.315,66.47,55.378,81.04,67.787,9.696,8.258,26.824,9.816,37.335,2.624,10.511-7.191,12.274-22.145,8.367-34.855,12.567,6.522,36.457,21.759,57.116.524,19.164-19.698-7.06-39.529-7.06-39.529,0,0,27.429-23.581-1.702-57.755Z" fill="#FCDABE" id="fcmDLxxjux2GC3zW4-u72" />
        <path d="M1576.733,1226.682c-8.227,0-16.674-2.651-22.686-7.771-3.49-2.973-7.802-6.793-12.795-11.217-15.715-13.924-39.464-34.967-68.124-56.474-22.843-17.142-56.172-27.271-64.36-29.59-4.188,7.557-20.869,37.036-32.832,49.326-7.937,8.154-18.658,18.305-31.219,24.471-16.775,8.234-31.486,6.611-43.726-4.828-18.657-17.437-1.47-38.524,6.79-48.659,1.734-2.128,3.232-3.966,3.91-5.126,8.435-14.438,10.1-21.481,12.208-30.399,1.538-6.504,3.28-13.876,7.959-25.456,3.944-9.761,19.576-43.402,55.119-66.451,40.437-26.222,91.588-29.999,152.037-11.225,39.03,12.123,85.735,51.58,112.612,83.111,25.424,29.826,9.52,52.45,3.467,59.199,3.967,3.576,12.036,12.068,12.834,22.575.515,6.777-2.059,13.127-7.65,18.875-19.457,19.999-41.978,9.513-55.194,2.533,2.048,11.771-.385,25.082-10.669,32.118-4.903,3.354-11.225,4.987-17.682,4.987ZM1407.529,1116.196c.208,0,.417.026.625.08,1.665.43,41.09,10.771,67.975,30.945,28.822,21.629,52.663,42.752,68.439,56.73,4.973,4.407,9.268,8.212,12.721,11.153,8.995,7.661,25.024,8.813,34.302,2.464,9.842-6.733,10.803-20.952,7.389-32.056-.296-.963.015-2.009.788-2.655.774-.645,1.859-.763,2.753-.299.904.47,1.867.983,2.882,1.525,13.308,7.107,33.417,17.847,51.291-.525,4.548-4.675,6.65-9.725,6.249-15.009-.872-11.467-12.903-20.69-13.024-20.782-.603-.456-.967-1.16-.991-1.916-.024-.755.295-1.481.869-1.974,1.035-.898,25.122-22.444-1.974-54.238h0c-26.425-31-72.21-69.752-110.291-81.579-58.961-18.314-108.7-14.732-147.833,10.645-34.314,22.252-49.397,54.71-53.203,64.128-4.536,11.227-6.232,18.402-7.729,24.733-2.117,8.955-3.945,16.688-12.756,31.771-.874,1.496-2.409,3.379-4.352,5.763-10.884,13.354-21.318,28.701-7.252,41.847,17.263,16.133,39.488,9.762,67.947-19.478,13.005-13.362,32.781-49.603,32.979-49.967.445-.819,1.297-1.306,2.196-1.306Z" fill="#000000" id="rmD0vtBjkbwRc97dLJHgw" />
      </g>
      <path d="M1599.259,1186.117c-19.153-30.173-48.771-60.297-79.23-80.583l2.771-4.161c31.011,20.653,61.172,51.332,80.681,82.065l-4.222,2.68Z" fill="#000000" id="Ixi2VdGo1S0nDilN6hc6z" />
      <path d="M1650.693,1148.383c-21.984-22.235-62.333-61.455-85.564-74.307l2.421-4.375c22.587,12.496,59.614,47.773,86.699,75.166l-3.556,3.516Z" fill="#000000" id="PYdJNuvgqp7DXuSHniHz" />
    </g>
    <g id="jo7R6uo1icWOQfWUjRisO">
      <g id="t3R0fekh5HoWVcIZrc57a">
        <path d="M877.508,600.542c-97.429-12.592-189.972-111.222-193.779-226.338-6.303,4.546-13.506,7.561-21.326,8.633-29.819,4.05-57.237-21.9-61.236-57.983-4.019-36.069,21.997-78.184,43.802-98.901,31.005-29.458,178.407-137.125,276.584-124.439,111.509,14.415,186.982,137.036,168.575,273.893-18.42,136.837-101.108,239.534-212.62,225.136Z" fill="#FCDABE" id="C90ivP47DvCsGilNXKsC" />
        <path d="M898.396,604.404c-6.984,0-14.052-.459-21.208-1.383h0c-48.043-6.209-96.721-33.746-133.553-75.549-37.388-42.435-59.38-95.101-62.214-148.755-5.8,3.476-12.064,5.69-18.678,6.596-13.24,1.798-26.727-2.052-37.988-10.84-14.333-11.187-23.836-29.172-26.072-49.345-4.335-38.909,24.276-81.711,44.565-100.989,32.918-31.275,180.245-137.819,278.626-125.106,46.976,6.073,90.157,31.987,121.588,72.969,41.388,53.963,59.3,128.222,49.144,203.737-9.253,68.74-34.831,129.334-72.021,170.621-34.439,38.232-76.342,58.044-122.19,58.044ZM877.829,598.063c52.421,6.771,100.504-12.267,139.042-55.049,36.523-40.546,61.66-100.188,70.78-167.941,9.98-74.205-7.572-147.112-48.156-200.027-30.616-39.919-72.616-65.152-118.262-71.053-51.951-6.71-116.751,21.38-161.96,46.129-53.047,29.04-97.207,63.036-112.581,77.643-23.596,22.419-46.699,63.968-43.04,96.812,2.088,18.843,10.901,35.593,24.179,45.956,10.189,7.952,22.35,11.44,34.236,9.828,7.251-.993,14.048-3.746,20.2-8.183l3.806-2.745.155,4.69c3.586,108.43,91.329,210.982,191.601,223.941h0Z" fill="#000000" id="YQp-6R9cFhpdVWi_fiJ31" />
      </g>
      <path d="M987.523,446.178c-1.938,0-3.887-.129-5.839-.389-6.419-.856-12.41-3.058-17.805-6.542l2.713-4.2c4.771,3.082,10.071,5.029,15.753,5.787,10.208,1.363,20.352-1.343,28.557-7.617,8.206-6.274,13.475-15.352,14.836-25.562,1.361-10.204-1.344-20.341-7.619-28.545-6.275-8.205-15.353-13.473-25.562-14.835-6.021-.803-11.954-.213-17.629,1.755l-1.639-4.724c6.419-2.227,13.125-2.896,19.929-1.988,11.533,1.538,21.786,7.488,28.873,16.753,7.085,9.265,10.141,20.716,8.603,32.244-1.538,11.533-7.488,21.787-16.755,28.873-7.698,5.886-16.907,8.991-26.417,8.991Z" fill="#000000" id="Fb3lTkS0btnaJ258RPwp" />
      <g id="hT3STcjdPLocr0qQvcsi7">
        <path d="M716.098,347.03s27.197-103.293,124.023-142.045c96.826-38.752,118.826-69.6,118.826-69.6,0,0,3.85,1.092,10.272,3.566,57.156,22.02,100.275,70.249,116.147,129.409,3.006,11.204,3.449,22.463,5.673,32.902,0,0,20.451-151.306-84.158-232.195-14.609-11.297-31.657-21.22-51.541-29.166-22.871-9.14-44.688-12.975-65.241-17.2-31.055-6.384-59.243-10.275-83.989-7.857-82.105,8.024-131.759,57.068-160.477,97.446-43.102,60.602-49.764,147.122-44.01,191.339,0,0,9.416-43.527,47.049-46.867,19.756-1.753,38.904,8.314,48.86,25.468,7.553,13.014,13.609,33.174,11.673,63.881l6.891.919Z" fill="#5D310A" id="xkqZ5pjWyFd_Q44OXqH72" />
        <path d="M717.954,349.799l-11.389-1.52.146-2.327c1.621-25.694-2.195-46.712-11.34-62.469-9.508-16.381-27.748-25.897-46.477-24.232-35.322,3.135-44.736,44.49-44.828,44.907l-4.886-1.059c.098-.453,10.256-45.366,49.271-48.828,20.655-1.83,40.765,8.649,51.243,26.703,9.368,16.141,13.449,37.315,12.139,62.964l2.452.327c2.041-6.837,9.386-29.083,25.385-55.039,17.444-28.301,48.87-66.292,99.521-86.563,94.661-37.885,117.504-68.433,117.724-68.737l1.024-1.419,1.688.471c.162.046,4.034,1.151,10.489,3.638,57.608,22.194,101.594,71.201,117.662,131.094,1.173,4.371,2.117,8.679,2.889,12.818,1.22-22.273.395-60.822-13.244-105.081-8.928-28.972-24.119-58.544-40.638-79.105l3.897-3.131c16.894,21.027,32.415,51.219,41.519,80.763,21.777,70.672,11.397,127.192,11.29,127.754l-3.195,16.739-1.748-16.951c-.907-8.798-2.363-20.444-5.601-32.511-15.656-58.355-58.508-106.102-114.631-127.724-3.872-1.492-6.806-2.476-8.479-3.009-5.583,6.614-32.901,34.656-118.792,69.031-49.384,19.765-80.073,56.886-97.122,84.545-18.494,30.004-25.345,55.561-25.413,55.816l-.562,2.133Z" fill="#000000" id="WVvjfWnyMcrN7Po0oQIPi" />
      </g>
      <circle cx="910.538" cy="335.187" r="16.21" transform="translate(380.058 1147.603) rotate(-77.066)" fill="#000000" id="cyt8zupHVHNU-dZySSBGY" />
      <circle cx="1040.611" cy="345.22" r="16.21" transform="translate(471.239 1282.164) rotate(-77.066)" fill="#000000" id="HJ4Jzkb51nsysy1_lkx_X" />
      <path d="M963.047,503.338c-18.444,0-36.542-4.849-47.357-10.513l2.319-4.43c17.444,9.136,54.794,16.092,79.563,2.003l2.472,4.347c-10.892,6.195-24.032,8.593-36.997,8.593Z" fill="#000000" id="Ewam_dxDEtojtC6Mp9Sqj" />
    </g>
    <g id="j_cTN_Tmqxe_79ZEHReA">
      <g id="zuSVunn-s9htTjTtNJlpn">
        <path d="M546.004,554.182c-83.456-18.187-191.821,31.725-256.464,73.832-67.092,45.391-186.412,173.163-246.336,285.188-58.384,109.146-39.998,210.594,4.67,250.233,65.907,58.486,182.849,78.548,293.2-23.802,67.9-62.977,230.825-231.444,284.569-377.035,35.016-94.856-54.782-202.999-79.639-208.416Z" fill="#157E39" id="vlIRypibKFuJDm_0jaBut" />
        <path d="M175.764,1214.341c-50.437,0-95.899-19.175-129.55-49.036-23.758-21.083-38.999-57.809-41.815-100.758-2.241-34.178,2.29-88.384,36.6-152.524,58.727-109.788,177.381-238.884,247.14-286.08,34.707-22.607,74.208-42.527,111.264-56.112,47.715-17.494,90.519-24.612,127.212-21.156,6.029.567,16.84,2.502,19.336,2.956l22.746-5.148,1.104,4.877-23.746,5.374-.504-.093c-.128-.024-12.924-2.378-19.404-2.988-75.922-7.147-171.301,34.807-235.242,76.456-69.238,46.844-187.113,175.127-245.497,284.273-33.753,63.099-38.218,116.311-36.019,149.839,2.73,41.647,17.362,77.128,40.145,97.345,67.209,59.643,182.897,75.425,289.841-23.765,19.739-18.308,122.315-115.474,203.483-230.774l4.089,2.878c-81.457,115.71-184.369,213.195-204.172,231.562-55.888,51.835-114.178,72.875-167.01,72.875Z" fill="#000000" id="KFd6HeK-E8qVL7BUwKcsP" />
      </g>
      <g id="XVqKt80WgWHIHqxxK06pw">
        <path d="M38.711,921.886c-27.963,54.872-44.621,111.938-31.845,167.517,12.776,55.579,48.333,101.333,85.352,144.713,37.02,43.379,178.734,175.47,214.246,192.33,35.513,16.86,80.239,20.247,112.526-2.179,22.257-15.46,97.15-106.568,120.985-127.565,9.786-8.621,56.053-41.504,38.141-122.964-8.288-37.695-36.782-66.821-64.252-93.932-20.812-20.54-41.019-41.693-60.585-63.423-30.5-33.874-59.888-69.554-97.277-95.624-37.39-26.071-84.977-41.698-129.009-29.915" fill="#157E39" id="QuQsEL49gT-2g_SY-DPeE" />
        <path d="M365.147,1442.633c-21.542,0-42.756-5.86-59.754-13.93-36.694-17.421-180.179-152.074-215.075-192.965-36.273-42.504-72.783-88.772-85.887-145.776-11.332-49.298-.847-104.648,32.054-169.212l4.455,2.271c-32.346,63.475-42.695,117.715-31.636,165.822,12.851,55.902,48.947,101.617,84.818,143.65,38.608,45.241,179.218,175.458,213.417,191.694,30.779,14.612,75.846,21.767,110.027-1.975,12.298-8.542,42.294-42.102,68.759-71.711,21.332-23.867,41.481-46.41,52-55.676.59-.521,1.311-1.127,2.141-1.826,12.796-10.774,51.738-43.56,35.21-118.726-8.412-38.257-38.994-68.438-63.566-92.689-20.759-20.487-41.177-41.862-60.687-63.53-4.308-4.784-8.593-9.604-12.882-14.428-25.612-28.808-52.096-58.596-83.967-80.818-41.836-29.171-88.102-39.942-126.933-29.55l-1.292-4.83c40.256-10.773,88.037.263,131.084,30.279,32.355,22.561,59.039,52.573,84.844,81.598,4.282,4.816,8.561,9.628,12.861,14.405,19.444,21.596,39.794,42.898,60.483,63.317,25.042,24.714,56.208,55.472,64.938,95.174,17.176,78.118-23.505,112.369-36.873,123.625-.797.671-1.49,1.254-2.057,1.753-10.295,9.068-30.347,31.503-51.577,55.256-27.951,31.272-56.854,63.608-69.635,72.486-16.874,11.72-36.201,16.314-55.27,16.314Z" fill="#000000" id="ZSM4mAUfD-HSbX96ijnB" />
        <g id="xugh8y83o8ZessaZkVkzq">
          <g id="zRZPdXo2M6LSk5pqywAq9">
            <path d="M777.216,1388.146c-70.943-34.72-136.303-77.692-202.118-138.022,0,0-55.689-3.935-103.715,44.145-45.353,45.404-32.094,104.604-32.094,104.604,13.948,42.848,52.727,90.411,80.1,111.987.472,11.369-8.842,32.307-6.188,48.851,2.203,13.738,15.179,24.221,25.848,25.743,12.199,1.74,24.27-3.196,34.568-24.302,5.403-11.073,13.018-27.537,13.766-41.597,1.131-21.259-8.065-39.442-8.065-39.442l28.939,34.378s3.361,49.856,9.01,60.601c5.649,10.744,16.975,19.443,29.055,18.241,12.543-1.249,27.621-6.345,29.77-24.746,1.463-12.52,3.858-42.489,3.858-42.489,0,0,3.823,49.337,36.015,54.468,12.889,2.055,27.728-1.025,34.104-12.413,4.491-8.021-8.115-73.346-15.723-94.718-4.635-13.02-17.996-29.698-17.996-29.698,0,0,61.326,22.602,73.043,24.954,16.707,3.354,31.264-.384,38.393-20.59,10.6-30.045-30.963-50.357-50.572-59.953Z" fill="#FCDABE" id="KZQ2jC9TCERCfn43dIG2u" />
            <path d="M644.02,1595.946c-12.832,0-23.666-9.615-28.964-19.692-5.487-10.438-8.756-54.007-9.234-60.778l-19.184-22.788c2.037,7.237,3.789,16.735,3.243,26.999-.728,13.684-7.494,29.194-14.016,42.561-9.51,19.491-21.666,27.892-37.168,25.681-11.567-1.65-25.547-12.756-27.963-27.822-1.646-10.262,1.023-21.821,3.378-32.019,1.395-6.042,2.719-11.776,2.792-16.011-29.028-23.271-66.6-71.292-79.991-112.431-.024-.075-.045-.151-.062-.228-.139-.621-3.38-15.45-1.004-36.107,2.194-19.077,9.833-46.847,33.77-70.81,25.212-25.241,52.539-36.097,71.024-40.76,20.082-5.066,34.05-4.155,34.635-4.112.563.04,1.097.269,1.513.651,62.254,57.067,126.301,100.801,201.527,137.619h0s-.005-.002,0,0l-1.099,2.246,1.147-2.222c20.486,10.026,63.114,30.888,51.782,63.007-6.665,18.892-20.54,26.362-41.242,22.209-9.338-1.874-48.48-15.962-65.518-22.169,4.377,6.167,10.424,15.496,13.318,23.624,6.6,18.537,20.964,87.107,15.549,96.778-7.401,13.219-24.385,15.621-36.679,13.661-20.731-3.304-30.313-23.167-34.658-38.486-.757,8.698-1.652,18.459-2.338,24.329-1.836,15.725-12.904,25.042-32.005,26.944-.857.085-1.709.126-2.551.127ZM579.319,1477.613c.716,0,1.422.306,1.913.89l28.939,34.377c.342.406.546.912.582,1.442.925,13.721,4.297,51.177,8.729,59.605,4.865,9.253,14.976,18.077,26.594,16.917,16.717-1.664,25.981-9.25,27.535-22.548,1.44-12.331,3.825-42.099,3.849-42.398.104-1.299,1.189-2.3,2.492-2.3h.002c1.304,0,2.389,1.005,2.491,2.305.037.474,4.058,47.435,33.916,52.193,10.704,1.706,25.386-.194,31.53-11.166,3.7-6.61-8.025-70.545-15.897-92.659-4.438-12.466-17.461-28.81-17.592-28.974-.702-.876-.733-2.113-.077-3.024.656-.91,1.837-1.274,2.893-.884.611.225,61.275,22.562,72.67,24.849,18.384,3.69,29.676-2.339,35.543-18.97,9.85-27.922-30.077-47.462-49.265-56.853l-.048-.023c-75.402-36.903-139.626-80.708-202.035-137.809-7.097-.204-57.499-.026-100.93,43.453-42.921,42.97-32.024,99.382-31.445,102.188,13.279,40.653,50.693,88.18,79.229,110.673.573.452.92,1.131.951,1.86.207,4.986-1.235,11.228-2.904,18.457-2.252,9.752-4.805,20.805-3.313,30.102,1.991,12.414,13.879,22.258,23.733,23.664,8.341,1.192,20.731.108,31.969-22.923,6.302-12.916,12.836-27.844,13.517-40.634,1.081-20.302-7.711-38.006-7.8-38.182-.571-1.133-.203-2.514.855-3.213.422-.279.901-.414,1.376-.414Z" fill="#000000" id="O3MjBQtnOIR3yrlDvHzPt" />
          </g>
          <path d="M677.47,1526.405c-2.016-16.174-4.343-29.646-9.151-42.819-3.427-9.389-35.445-48.495-47.493-62.771l3.821-3.225c1.792,2.123,43.938,52.142,48.369,64.282,4.969,13.615,7.357,27.402,9.416,43.915l-4.962.618Z" fill="#000000" id="KdsxqoF-KHgoSh5BxCftZ" />
          <path d="M723.727,1458.53c-1.178-1.664-2.524-3.576-4.007-5.683-12.436-17.658-35.583-50.526-48.789-64.207l3.598-3.473c13.474,13.958,36.766,47.032,49.279,64.801,1.481,2.104,2.825,4.012,4,5.673l-4.081,2.889Z" fill="#000000" id="madBia2WrXtpaZIer_6b" />
          <path d="M577.926,1484.06c-.795-.969-19.507-23.774-21.478-26.696l4.145-2.797c1.528,2.265,15.82,19.768,21.199,26.321l-3.865,3.172Z" fill="#000000" id="hBwSfjZ1v1-rNfsWd0XZG" />
        </g>
        <path d="M625.215,770.55l-4.955-.667c4.573-33.959.347-69.003-12.561-104.158-9.688-26.387-22.028-45.908-27.2-52.543l3.943-3.073c.63.808,15.574,20.187,27.95,53.893,13.191,35.926,17.505,71.774,12.822,106.548Z" fill="#000000" id="hpJ7ya2BM2sosIF1BAwVd" />
        <g id="EfAVH4WoSYAZe-z55no1M">
          <path d="M594.845,1267.719s3.302-4.844-.248-11.651c-3.657-7.011-14.739-22.626-14.739-22.626-30.273,0-82.918,13.375-117.316,55.1-48.453,58.773-45.744,116.742-40.451,130.273l30.433,10.195c-1.299-38.089,16.28-78.89,44.107-106.476,27.827-27.586,61.856-52.219,98.214-54.815Z" fill="#449A39" id="txIinHwyumTwuLXmf5BGr" />
          <path d="M455.145,1432.525l-34.957-11.71-.426-1.088c-3.182-8.133-4.555-27.115-.052-49.573,4.059-20.246,14.451-51.115,40.902-83.201,36.449-44.213,92.105-56.01,119.245-56.01h1.292l.747,1.053c.457.643,11.224,15.836,14.917,22.917,4.194,8.042.266,13.967.097,14.215l-.681,1-1.206.086c-30.076,2.148-62.587,20.349-96.631,54.097-28.004,27.761-44.623,67.847-43.369,104.615l.123,3.6ZM424.034,1416.83l25.924,8.685c-.146-37.114,16.857-76.942,44.914-104.755,34.384-34.085,67.467-52.724,98.36-55.42.535-1.451,1.099-4.375-.852-8.115-2.993-5.739-11.275-17.657-13.812-21.273-26.704.367-79.399,12.094-114.096,54.182-45.501,55.192-45.68,110.771-40.438,126.697Z" fill="#000000" id="HaJ1l8dhzdZg49-IJdSwD" />
        </g>
      </g>
    </g>
    <g id="hhgcIJyA4qGjPDe0gviL">
      <g id="eiJ7HIu2z67cbggfU9uJ6">
        <path d="M701.82,167.042s-10.683,29.954-13.703,55.745l-15.786-4.784s4.624-37.736,13.351-53.128l16.137,2.167Z" fill="#DBDBDB" id="SAvbpq-BsDx9nH9-Q1tvx" />
        <path d="M690.253,226.047l-20.659-6.261.256-2.087c.191-1.561,4.787-38.411,13.658-54.057l.833-1.47,20.87,2.803-1.036,2.907c-.106.297-10.624,29.994-13.575,55.196l-.348,2.969ZM675.089,216.227l10.923,3.311c2.791-20.345,9.843-42.598,12.458-50.422l-11.4-1.531c-6.765,13.41-10.912,40.882-11.981,48.643Z" fill="#000000" id="pjSfqdFyuY3qEtegiB40K" />
      </g>
      <g id="huoc7wZd-kMtwETZozgLS">
        <g id="hzsO85I2bCWHW-GCXe6qS">
          <path d="M687.986,207.532s75.692,16.13,72.977,100.915c-1.632,50.963-17.824,85.35-30.482,104.675-10.786,16.466-27.473,28.371-46.72,32.499-10.909,2.34-24.299,4.439-41.185-1.357-51.002-17.507-76.554-54.182-75.762-90.225.881-40.11,25.506-127.844,57.882-143.825,0,0,20.995-13.795,63.29-2.682Z" fill="#B6B6B6" id="a2Idmtq7LY2WmWQNYY" />
          <path d="M664.465,450.517c-6.803,0-14.31-1.009-22.701-3.889-24.635-8.456-44.845-21.93-58.446-38.966-12.851-16.096-19.422-34.657-19.004-53.678.91-41.406,25.906-129.346,59.15-145.949,2.096-1.314,23.578-13.831,65.104-2.934,1.422.311,19.989,4.58,38.471,19.13,17.408,13.706,37.858,39.455,36.422,84.296-1.637,51.104-17.701,85.831-30.889,105.964-11.245,17.167-28.845,29.404-48.287,33.573-5.931,1.272-12.463,2.453-19.82,2.453ZM656.957,205.735c-20.41,0-30.751,6.479-30.895,6.572l-.259.147c-31.175,15.388-55.625,102.271-56.489,141.637-.839,38.189,27.545,71.834,74.074,87.806,16.253,5.579,29.091,3.584,39.849,1.277,18.166-3.896,34.624-15.349,45.153-31.424,12.837-19.597,28.475-53.442,30.075-103.385,1.097-34.244-10.463-61.188-34.359-80.082-17.917-14.167-36.457-18.269-36.642-18.308l-.112-.027c-11.836-3.11-21.974-4.214-30.394-4.214Z" fill="#000000" id="I-je6DxwymUJFFiPfQouX" />
        </g>
        <path d="M660.97,449.958l-2.592-4.275c15.674-9.503,30.185-22.915,37.869-35.001,19.853-31.228,30.978-73.735,33.065-126.343,1.113-28.058-6.252-49.258-21.891-63.01-11.659-10.252-23.853-12.333-23.975-12.353l.789-4.938c.547.087,13.54,2.255,26.273,13.348,11.669,10.166,25.271,30.068,23.8,67.151-2.124,53.501-13.509,96.845-33.842,128.827-8.071,12.695-23.206,26.717-39.497,36.594Z" fill="#000000" id="DrzQkyaOk2DzCh0yv0pq" />
      </g>
      <g id="s9S_c-zzuFt-_XMnFCSBE">
        <path d="M697.173,172.294c-2.715-.159-5.332-.528-7.827-1.154-5.941-1.491-9.313-7.763-7.352-13.565,5.031-14.89,17.249-45.134,39.221-66.773,0,0-9.986-20.592,19.058-42.999,42.083-32.467,111.619-37.997,162.728-31.019,80.298,10.964,116.723,51.181,116.723,51.181,13.957,13.535,46.765,52.041,54.528,88.305,0,0-37.662-85.049-157.865-92.847-66.657-4.324-112.401,28.81-112.401,28.81,0,0-34.535,25.541-62.493,13.245,0,0-21.188,19.907-33.722,59.453-1.451,4.579-5.802,7.644-10.598,7.363Z" fill="#B6B6B6" id="Ggoce-fyMZa-oP9p_m3W" />
        <path d="M1081.723,179.227l-9.756-21.943c-.093-.209-9.589-21.197-33.441-42.834-21.989-19.947-61.057-44.559-122.301-48.532-65.011-4.212-110.322,28.013-110.773,28.34-1.411,1.044-34.754,25.326-63.363,14.174-4.477,4.702-21.399,24.012-31.936,57.255-1.808,5.706-7.198,9.458-13.126,9.104-2.948-.172-5.737-.584-8.29-1.225-3.488-.875-6.479-3.192-8.206-6.356-1.74-3.188-2.07-6.991-.907-10.435,5.299-15.682,17.31-44.939,38.673-66.593-1.875-5.677-5.377-24.435,20.448-44.359,43.886-33.858,116.092-38.138,164.593-31.517,79.465,10.85,115.982,49.516,118.181,51.918,15.757,15.299,47.49,53.614,55.177,89.522l5.026,23.481ZM863.153,16.662c-41.854,0-89.433,8.494-121.353,33.12-26.926,20.773-18.693,39.169-18.33,39.942l.754,1.603-1.255,1.256c-21.355,21.031-33.354,50.248-38.606,65.792-.729,2.156-.53,4.443.559,6.438,1.076,1.972,2.863,3.357,5.033,3.902,2.25.564,4.728.929,7.365,1.083,3.625.211,6.952-2.1,8.068-5.623,12.586-39.709,33.509-59.688,34.393-60.519l1.205-1.132,1.513.666c26.327,11.579,59.667-12.72,60.001-12.967.485-.352,47.27-33.627,114.049-29.294,62.815,4.075,102.935,29.436,125.529,49.993,10.08,9.17,17.625,18.135,23.045,25.578-12.177-28.097-34.75-54.725-47.14-66.74l-.113-.116c-.358-.394-36.866-39.686-115.208-50.382-11.973-1.635-25.421-2.598-39.509-2.598Z" fill="#000000" id="uorSrQCnmubvy6_2F2aiv" />
      </g>
      <path d="M759.659,94.239c-.783,0-1.574-.023-2.375-.072-22.564-1.366-26.474-14.67-26.914-16.551-.563-1.743-4.316-15.202,7.912-31.324l3.983,3.021c-11.115,14.655-7.291,26.319-7.123,26.809l.097.358c.095.446,2.662,11.504,22.347,12.696,13.544.821,24.2-6.457,35.486-14.16,6.085-4.154,12.378-8.449,19.2-11.41,40.608-17.622,79.432-19.001,108.715-18.236,64.177,1.679,120.297,43.572,120.856,43.994l-3.015,3.989c-.547-.413-55.432-41.348-117.972-42.984-28.771-.754-66.886.593-106.594,17.824-6.386,2.771-12.479,6.93-18.372,10.953-10.88,7.427-22.112,15.094-36.231,15.094Z" fill="#000000" id="HY03r3cM_RRvj18n9_nB_" />
    </g>
  </g></g></g><g transform="translate(402 1132)" data-asset-index="2"><g clip-path="url(#assetClipPath_Qs9uEYP5)" transform="scale(1.0012127535033433 0.9981092421149369)" data-asset-index="2"><g id="Upload">
    <g id="iQGSeHSryZ_nDDKLJOz7">
      <path d="M599.076,565.459C456.174,417.85,219.892,305.235,23.163,305.235c0,0,141.082,365.291,229.461,457.964,121.82,127.738,576.867,298.54,576.867,298.54-28.296-233.132-87.513-348.671-230.415-496.28Z" fill="#FF523B" id="qmaQvskk-O0E5kXrFK5k" />
      <path d="M827.005,1062.008c-23.457-216.766-81.425-341.624-229.726-494.81C437.646,402.305,243.145,307.734,63.649,307.734v-5c94.145,0,191.391,25.244,289.034,75.032,88.065,44.903,173.888,109.205,248.188,185.954,75.874,78.373,125.26,146.162,160.13,219.802,36.662,77.422,58.552,163.145,70.975,277.948l-4.971.538Z" fill="#000000" id="tdLeLoXTZT59hFRs-JT11" />
    </g>
    <g id="ErCd8l0gPZxKZ5DpzVi6n">
      <path d="M38.711,37.531C10.748,92.403-5.91,149.469,6.866,205.048c12.776,55.579,48.333,101.333,85.352,144.713,37.02,43.379,178.734,175.47,214.246,192.33s80.239,20.247,112.526-2.179c22.257-15.46,97.15-106.568,120.985-127.565,9.786-8.621,56.053-41.504,38.141-122.964-8.288-37.695-36.782-66.821-64.252-93.932-20.812-20.54-41.019-41.693-60.585-63.423-30.5-33.874-59.888-69.554-97.277-95.624C318.612,10.331,271.025-5.296,226.993,6.487" fill="#157E39" id="GT_x4Dc1OMcYrHeEFgqoi" />
      <path d="M365.147,558.279c-21.543,0-42.757-5.86-59.755-13.931-36.692-17.42-180.179-152.074-215.075-192.965C54.043,308.878,17.533,262.611,4.429,205.607c-11.332-49.299-.847-104.648,32.055-169.212l4.455,2.27C8.592,102.14-1.755,156.38,9.302,204.487c12.851,55.902,48.947,101.617,84.817,143.65,38.609,45.241,179.219,175.458,213.417,191.694,30.779,14.613,75.848,21.768,110.028-1.974,12.297-8.542,42.293-42.102,68.758-71.711,21.333-23.867,41.482-46.41,52.001-55.676.591-.521,1.312-1.127,2.142-1.826,12.796-10.774,51.737-43.56,35.21-118.725-8.412-38.258-38.994-68.439-63.566-92.69-20.759-20.486-41.177-41.86-60.687-63.529-4.308-4.784-8.593-9.604-12.882-14.427-25.612-28.808-52.097-58.596-83.968-80.819C312.737,9.282,266.472-1.488,227.64,8.902l-1.293-4.83c40.259-10.774,88.037.263,131.085,30.279,32.356,22.561,59.04,52.574,84.845,81.599,4.282,4.816,8.561,9.628,12.86,14.404,19.445,21.596,39.795,42.899,60.483,63.316,25.042,24.714,56.208,55.472,64.938,95.175,17.177,78.117-23.504,112.368-36.873,123.624-.797.671-1.489,1.254-2.057,1.753-10.295,9.069-30.348,31.504-51.577,55.256-27.951,31.272-56.854,63.608-69.635,72.486-16.873,11.72-36.2,16.314-55.27,16.315Z" fill="#000000" id="NvMyAIoltjobxBvKIXjiW" />
      <g id="GkPoh-6cHWR-HRdjPcXWD">
        <g id="aZeg07yQKa0LTOdYcwkzC">
          <path d="M777.216,503.79c-70.943-34.72-136.303-77.692-202.118-138.022,0,0-55.689-3.935-103.715,44.145-45.353,45.404-32.094,104.604-32.094,104.604,13.948,42.848,52.727,90.411,80.1,111.987.472,11.369-8.842,32.307-6.188,48.851,2.203,13.738,15.179,24.221,25.848,25.743,12.199,1.74,24.27-3.196,34.568-24.302,5.403-11.073,13.018-27.537,13.766-41.597,1.131-21.259-8.065-39.442-8.065-39.442l28.939,34.378s3.361,49.856,9.01,60.601c5.649,10.744,16.975,19.443,29.055,18.241,12.543-1.249,27.621-6.345,29.77-24.746,1.463-12.52,3.858-42.489,3.858-42.489,0,0,3.823,49.337,36.015,54.468,12.889,2.055,27.728-1.025,34.104-12.413,4.491-8.021-8.115-73.346-15.723-94.718-4.635-13.02-17.996-29.698-17.996-29.698,0,0,61.326,22.602,73.043,24.954,16.707,3.354,31.264-.384,38.393-20.59,10.6-30.045-30.963-50.357-50.572-59.953Z" fill="#FCDABE" id="DpjcizKClO07nRbwpPbHb" />
          <path d="M644.02,711.591c-12.831,0-23.666-9.615-28.965-19.691-5.487-10.438-8.755-54.007-9.233-60.778l-19.185-22.789c2.037,7.237,3.789,16.736,3.243,27-.728,13.685-7.493,29.195-14.016,42.561-9.511,19.493-21.676,27.892-37.169,25.681-11.566-1.649-25.546-12.755-27.964-27.821-1.646-10.263,1.024-21.822,3.379-32.02,1.396-6.042,2.72-11.775,2.792-16.01-29.028-23.271-66.6-71.292-79.991-112.431-.024-.075-.046-.151-.062-.228-.14-.621-3.38-15.45-1.004-36.107,2.193-19.077,9.833-46.846,33.77-70.81,25.211-25.241,52.539-36.097,71.024-40.76,20.081-5.066,34.053-4.154,34.635-4.112.563.04,1.097.269,1.514.651,62.26,57.071,126.296,100.801,201.527,137.62h0l-1.099,2.246,1.148-2.222c20.485,10.026,63.111,30.888,51.78,63.006-6.666,18.893-20.538,26.364-41.242,22.209-9.338-1.875-48.48-15.962-65.519-22.169,4.378,6.167,10.425,15.496,13.318,23.624,6.599,18.537,20.964,87.106,15.55,96.777-7.401,13.219-24.387,15.622-36.68,13.661-20.731-3.304-30.312-23.167-34.658-38.486-.757,8.697-1.652,18.459-2.338,24.328-1.837,15.726-12.904,25.043-32.006,26.944-.857.085-1.709.126-2.551.126ZM579.319,593.257c.716,0,1.422.307,1.913.89l28.939,34.377c.343.406.547.912.582,1.442.926,13.721,4.297,51.177,8.728,59.606,4.866,9.253,14.968,18.065,26.595,16.916,16.717-1.664,25.981-9.25,27.534-22.549,1.441-12.332,3.826-42.099,3.85-42.398.104-1.299,1.189-2.3,2.492-2.3h.002c1.305,0,2.389,1.005,2.49,2.305.037.474,4.059,47.435,33.916,52.193,10.706,1.705,25.387-.194,31.529-11.166,3.7-6.61-8.024-70.545-15.897-92.658-4.438-12.467-17.46-28.811-17.591-28.974-.702-.876-.733-2.113-.077-3.024.658-.911,1.842-1.273,2.893-.884.611.225,61.276,22.562,72.671,24.849,18.379,3.69,29.675-2.338,35.543-18.971,9.851-27.92-30.076-47.461-49.264-56.852l1.05-2.27-1.099,2.246c-75.401-36.902-139.626-80.708-202.036-137.809-7.102-.207-57.499-.026-100.93,43.453-42.99,43.039-32.026,99.39-31.446,102.187,13.279,40.652,50.694,88.181,79.231,110.674.572.452.92,1.131.95,1.86.207,4.986-1.235,11.228-2.904,18.456-2.252,9.752-4.805,20.806-3.313,30.103,1.991,12.414,13.879,22.258,23.732,23.663,8.35,1.192,20.731.108,31.969-22.923,6.303-12.916,12.837-27.843,13.518-40.634,1.083-20.357-7.71-38.004-7.8-38.18-.572-1.133-.206-2.515.854-3.214.422-.279.901-.414,1.377-.414Z" fill="#000000" id="ZgnFol4C_YdZ7DaPdsyQM" />
        </g>
        <path d="M677.471,642.05c-2.017-16.177-4.345-29.649-9.151-42.819-3.428-9.39-35.445-48.496-47.492-62.771l3.82-3.225c1.792,2.123,43.938,52.142,48.369,64.281,4.968,13.613,7.356,27.401,9.415,43.916l-4.961.618Z" fill="#000000" id="VBqqyAfVJ92yfwvep-0q" />
        <path d="M723.727,574.175c-1.18-1.667-2.528-3.583-4.016-5.694-12.434-17.655-35.577-50.518-48.78-64.195l3.598-3.473c13.472,13.955,36.76,47.023,49.271,64.789,1.485,2.108,2.832,4.021,4.01,5.685l-4.082,2.889Z" fill="#000000" id="eauxcnTIhAdf2U_CcTKJD" />
        <path d="M577.925,599.705c-.796-.969-19.507-23.775-21.478-26.696l4.145-2.796c1.527,2.264,15.82,19.767,21.198,26.32l-3.865,3.172Z" fill="#000000" id="TuIemqHmOIgoLAkDhWl0p" />
      </g>
      <g id="irZHhKk41d3ROxJzfYE0">
        <path d="M594.845,383.364s3.302-4.844-.248-11.651c-3.657-7.011-14.739-22.626-14.739-22.626-30.273,0-82.918,13.375-117.316,55.1-48.453,58.773-45.744,116.742-40.451,130.273l30.433,10.195c-1.299-38.089,16.28-78.89,44.107-106.476,27.827-27.586,61.856-52.219,98.214-54.815Z" fill="#449A39" id="h5CN7pkrovwUMukW-UJjX" />
        <path d="M455.145,548.17l-34.956-11.71-.426-1.088c-3.182-8.133-4.556-27.115-.053-49.573,4.06-20.246,14.451-51.115,40.903-83.202,36.448-44.213,92.104-56.01,119.244-56.01h1.291l.748,1.053c.456.643,11.224,15.836,14.917,22.917,4.194,8.042.266,13.967.097,14.215l-.681,1-1.207.086c-30.076,2.148-62.588,20.349-96.632,54.097-28.004,27.761-44.621,67.847-43.368,104.615l.122,3.6ZM424.035,532.475l25.923,8.685c-.146-37.114,16.858-76.943,44.914-104.755,34.383-34.085,67.467-52.724,98.36-55.42.535-1.45,1.1-4.375-.852-8.115-2.992-5.739-11.275-17.657-13.812-21.274-26.704.367-79.4,12.094-114.097,54.182-45.502,55.194-45.68,110.772-40.437,126.697Z" fill="#000000" id="opK2okK937-Drgu9UUJM8" />
      </g>
    </g>
  </g></g></g><g transform="translate(1471 865)" data-asset-index="3"><g clip-path="url(#assetClipPath_Fhiy8rgX)" transform="scale(1.0053061249663355 1.0054643118176863)" data-asset-index="3"><g id="Laptop">
    <g id="nKrewqB7tRZTst_vMnhTx">
      <path d="M496.423,727.316l-489.065,11.462,401.299-290.558c3.962-2.911,8.723-4.535,13.638-4.65l439.264-9.951-365.135,293.697Z" fill="#B6B6B6" id="uAJTBrDJS0LECNVag01vG" />
      <path d="M7.357,741.278c-1.07,0-2.025-.683-2.369-1.702-.35-1.037.016-2.181.903-2.823l401.299-290.559c4.383-3.221,9.59-4.997,15.046-5.125l439.265-9.951c1.056-.033,2.038.636,2.405,1.642.367,1.006.053,2.134-.782,2.806l-365.135,293.697c-.428.345-.958.539-1.508.552l-489.065,11.462c-.02,0-.04,0-.059,0ZM854.254,436.284l-431.903,9.785c-4.423.104-8.648,1.544-12.214,4.165L15.332,736.09l480.185-11.254,358.738-288.552ZM496.423,727.315h.01-.01Z" fill="#000000" id="rlrbXAuk1niDhuvtxohDp" />
    </g>
    <polyline points="671.086 515.386 459.353 685.694 183.253 692.165 419.537 521.085 671.086 515.386" fill="#686765" id="q-YtibHZY7ATg8ZPAHag4" />
    <g id="NWfJc4CXrsMgSIMRSYT1p">
      <path d="M578.507,229.648l-73.964,536.478,390.531-328.218L970.216,19.449c.991-4.968-4.245-8.849-8.71-6.457l-370.524,198.468c-6.865,3.677-11.517,10.459-12.475,18.188Z" fill="#FFA7B7" id="BiJJfiSFzHEqzp3PQS5H" />
      <path d="M504.543,768.626c-.414,0-.83-.103-1.208-.312-.905-.5-1.409-1.505-1.268-2.53l73.961-536.458c1.061-8.516,6.208-16.019,13.774-20.071L960.326,10.788c2.927-1.568,6.402-1.314,9.071.664,2.667,1.978,3.921,5.229,3.271,8.485l-75.133,418.412c-.103.575-.405,1.096-.852,1.472l-390.531,328.218c-.461.388-1.033.586-1.609.586ZM964.35,14.768c-.562,0-1.129.142-1.663.428l-370.524,198.468c-6.141,3.289-10.318,9.379-11.175,16.292l-.004.034-73.077,530.044,384.866-323.458L967.756,19.007c.28-1.407-.223-2.712-1.337-3.538-.627-.465-1.344-.701-2.069-.701ZM578.507,229.648h.01-.01Z" fill="#000000" id="ExTOyNpmEvbzBmKQ2pEoF" />
    </g>
    <g id="DpgZzQRSvofunJhBonoWI">
      <path d="M948.246,3.981c-2.23-.899-4.46-2.254-6.93-.923l-370.525,198.469c-6.87,3.669-11.522,10.455-12.481,18.189l-62.401,505.143-481.699,11.29c-6.599.155-11.832,5.614-11.707,12.214l.249,13.136c.124,6.549,5.482,11.787,12.033,11.762l475.195-1.782c11.883-.268,21.776-9.199,23.254-20.992l65.278-520.843c.947-7.721,5.6-14.508,12.47-18.189L961.507,12.997c1.594-.864,3.297-.911,4.772-.396-3.933-1.93-15.899-7.769-18.033-8.621Z" fill="#FFA7B7" id="yMWzlT9GHGXfEbLwCOjZ7" />
      <path d="M14.739,775.761c-7.845,0-14.338-6.365-14.487-14.215l-.249-13.136c-.151-7.953,6.195-14.575,14.147-14.761l479.541-11.239,62.137-503c1.058-8.535,6.211-16.043,13.785-20.087L940.136.854c3.183-1.716,6.06-.473,8.161.435.292.126.583.252.875.37h0c2.559,1.021,17.57,8.386,18.208,8.699l-1.927,4.604c-.645-.225-1.646-.367-2.756.234l-370.536,198.463c-6.146,3.293-10.321,9.382-11.168,16.289l-65.279,520.85c-1.619,12.921-12.659,22.887-25.679,23.18l-475.242,1.783h-.054ZM943.496,5.001c-.353,0-.669.083-.994.257l-370.53,198.473c-6.144,3.281-10.323,9.371-11.181,16.292l-62.666,507.284-483.857,11.34c-5.208.122-9.365,4.459-9.266,9.667l.249,13.136c.098,5.153,4.345,9.338,9.524,9.31l475.195-1.782c10.515-.237,19.469-8.321,20.783-18.803l65.278-520.843c1.044-8.512,6.192-16.021,13.77-20.081L958.68,11.675c-5.068-2.459-10.141-4.886-11.36-5.372l-.009-.003c-.332-.134-.664-.277-.997-.421-1.296-.56-2.126-.878-2.818-.878Z" fill="#000000" id="fY6Wacwt6yfyal-f_Jct1" />
    </g>
  </g></g></g><g transform="translate(1693 1240)" data-asset-index="4"><g clip-path="url(#assetClipPath_D8SoWJ2G)" transform="scale(0.9962865682456299 0.995333840925235)" data-asset-index="4"><g id="Upload">
    <g id="uxtRx6M7JJSQFFUCMNPXv">
      <path d="M357.127,96.396c-26.262-30.808-72.791-70.338-111.452-82.345C106.197-29.27,53.359,61.122,41.579,90.275c-11.012,27.253-5.499,30.8-20.326,56.179-4.346,7.44-31.786,31.413-11.152,50.697,26.54,24.803,58.756-6.523,71.446-19.56,13.4-13.768,33.384-50.516,33.384-50.516,0,0,40.302,10.416,67.099,30.525,37.732,28.315,66.47,55.378,81.04,67.787,9.696,8.258,26.824,9.816,37.335,2.624,10.511-7.191,12.274-22.145,8.367-34.855,12.567,6.522,36.457,21.759,57.116.524,19.164-19.698-7.06-39.529-7.06-39.529,0,0,27.429-23.581-1.702-57.755Z" fill="#FCDABE" id="ODQG36Gnkm7H66i2CMuwa" />
      <path d="M284.136,235.062c-8.228,0-16.674-2.652-22.687-7.772-3.489-2.972-7.8-6.792-12.792-11.214-15.715-13.925-39.465-34.968-68.127-56.477-22.843-17.142-56.172-27.271-64.359-29.591-4.188,7.557-20.869,37.036-32.832,49.326-7.937,8.155-18.658,18.305-31.219,24.471-16.774,8.235-31.484,6.611-43.726-4.828-18.657-17.436-1.471-38.523,6.788-48.657,1.735-2.128,3.233-3.967,3.911-5.127,8.436-14.438,10.101-21.481,12.208-30.399,1.538-6.504,3.28-13.876,7.959-25.456,3.945-9.762,19.577-43.402,55.119-66.451C134.817-3.336,185.97-7.11,246.416,11.663c39.031,12.123,85.736,51.581,112.613,83.111,25.425,29.826,9.52,52.45,3.467,59.199,3.967,3.576,12.036,12.068,12.835,22.576.515,6.776-2.06,13.126-7.65,18.874-19.457,20.001-41.979,9.513-55.194,2.533,2.048,11.771-.385,25.083-10.668,32.119-4.904,3.354-11.226,4.987-17.683,4.988ZM114.931,124.574c.207,0,.417.026.626.08,1.665.43,41.091,10.772,67.975,30.946,28.823,21.63,52.665,42.755,68.441,56.733,4.972,4.405,9.266,8.21,12.718,11.15,8.995,7.661,25.024,8.812,34.304,2.464,9.841-6.733,10.802-20.952,7.388-32.057-.296-.962.015-2.009.788-2.654.774-.646,1.86-.762,2.753-.299.904.47,1.867.984,2.883,1.526,7.849,4.191,18.065,9.646,28.792,9.648,7.461,0,15.166-2.637,22.498-10.174,4.548-4.675,6.65-9.725,6.249-15.008-.872-11.467-12.904-20.691-13.025-20.783-.603-.456-.968-1.16-.991-1.916-.023-.755.296-1.481.869-1.974,1.035-.898,25.131-22.441-1.974-54.238h0c-26.425-31-72.21-69.751-110.291-81.579C185.97-1.876,136.232,1.706,97.1,27.082c-34.313,22.252-49.397,54.711-53.203,64.129-4.537,11.227-6.233,18.402-7.729,24.733-2.117,8.955-3.945,16.688-12.757,31.771-.873,1.496-2.409,3.38-4.353,5.765-10.883,13.353-21.315,28.7-7.25,41.845,17.263,16.132,39.487,9.762,67.948-19.478,13.005-13.361,32.78-49.602,32.979-49.967.445-.819,1.297-1.306,2.196-1.306Z" fill="#000000" id="QlJ8nPJWBZsKOCGmB5XFN" />
    </g>
    <path d="M306.662,194.496c-19.153-30.173-48.772-60.298-79.23-80.583l2.771-4.161c31.011,20.652,61.171,51.331,80.68,82.064l-4.221,2.68Z" fill="#000000" id="DQUUJk6G_WzVsHOO4ZX-4" />
    <path d="M358.096,156.762c-21.986-22.236-62.337-61.457-85.564-74.307l2.42-4.375c22.585,12.495,59.613,47.772,86.699,75.167l-3.555,3.516Z" fill="#000000" id="KL8D_709M1YsfQKq9meHl" />
  </g></g></g><g transform="translate(1976 865)" data-asset-index="5"><g clip-path="url(#assetClipPath_QiCrGQL4)" transform="scale(1.0174427984194143 1.0141834080200836)" data-asset-index="5"><g id="Upload">
    <g id="hUyv5VJLngmPvrNZSAgda">
      <path d="M88.492,211.46c-6.865,3.677-11.517,10.459-12.475,18.188l-53.575,427.496,204.078-180.313,59.837-371.356-197.865,105.985Z" fill="#FFA7B7" id="dGR4WX9bqET_eOjCWoJn" />
      <path d="M22.445,659.645c-.104,0-.208-.007-.313-.02-1.37-.171-2.342-1.421-2.17-2.792l53.575-427.496c1.056-8.518,6.205-16.026,13.774-20.081l197.865-105.985c1.217-.652,2.731-.195,3.385,1.023.651,1.217.193,2.732-1.023,3.384l-197.865,105.985c-6.141,3.289-10.317,9.379-11.174,16.292l-53.576,427.5c-.158,1.264-1.235,2.189-2.478,2.189Z" fill="#000000" id="AL-FbF2OSsxska3kjXt7H" />
    </g>
    <g id="RAGiEQQHCBFXOmkgXiOXC">
      <path d="M445.756,3.981c-2.23-.899-4.46-2.254-6.93-.923L68.301,201.527c-6.87,3.669-11.522,10.455-12.481,18.189L3.449,643.657l19.988,5.552,52.585-419.566c.947-7.721,5.6-14.508,12.47-18.189L459.017,12.997c1.594-.864,3.297-.911,4.772-.396-3.933-1.93-15.899-7.769-18.033-8.621Z" fill="#FFA7B7" id="y5upHoHIgrEOZa_ttua1H" />
      <path d="M24.923,657.455l-4.961-.622,53.58-427.501c1.044-8.512,6.192-16.021,13.77-20.081L456.191,11.675c-5.066-2.458-10.139-4.885-11.361-5.372-.34-.138-.673-.281-1.006-.425-1.957-.845-2.851-1.137-3.812-.62L69.482,203.731c-6.145,3.281-10.323,9.371-11.181,16.292L4.963,651.799,0,651.186,53.338,219.409c1.059-8.534,6.212-16.043,13.785-20.087L437.646.854c3.183-1.715,6.06-.473,8.16.434.295.127.59.255.885.374,2.558,1.02,17.562,8.382,18.2,8.695l-1.926,4.604c-.646-.226-1.646-.368-2.758.234L89.673,213.658c-6.146,3.293-10.321,9.382-11.169,16.289l-53.581,427.508Z" fill="#000000" id="uGOKEqbiNBAjv--hlno8j" />
    </g>
  </g></g></g></svg>