<svg height="578.607" viewBox="0 0 1563.247 578.607" width="1563.247" xmlns="http://www.w3.org/2000/svg"><path d="m1560.101 270.732s-219.56 71.98-496.67 149.77c-23.292 24.062-70.51 19.57-71.85 19.94-186.02 50.99-390.59 102.06-569.02 134.96-8.61 1.58-17.47.52-25.33-3.34-89.96-44.26-342.94-256.58-392.73-298.42-3.6-3.02-2.09-8.86 2.52-9.76l959.4-188.06s585.97 184.1 591.11 185.24c5.15 1.14 2.57 9.67 2.57 9.67z" fill="#5d310a"/><path d="m414.821 578.615c-6.527 0-12.875-1.452-18.693-4.31-82.144-40.413-302.366-222.387-393.236-298.749-2.408-2.02-3.417-5.167-2.631-8.212s3.192-5.312 6.281-5.916l960.021-188.181.606.19c5.836 1.833 583.603 183.35 590.932 185.19 1.733.383 3.137 1.395 4.028 2.918 2.154 3.68.554 9.283.364 9.91l-.376 1.246-1.237.406c-2.195.719-222.443 72.774-496.134 149.621-9.945 9.977-30.302 21.363-71.099 20.226-.654-.019-1.333-.004-1.644-.036-222.14 60.884-413.574 106.285-568.99 134.942-2.745.503-5.485.753-8.193.754zm551.457-500.218-958.776 187.938c-1.199.234-2.095 1.078-2.399 2.259-.304 1.179.071 2.35 1.005 3.133 90.732 76.246 310.576 257.92 392.227 298.092 7.261 3.566 15.482 4.647 23.775 3.125 155.332-28.642 346.708-74.032 568.81-134.912.509-.14.914-.129 2.868-.074 39.632 1.093 58.779-9.827 67.847-19.194l.47-.485.65-.183c262.823-73.779 476.47-143.182 495.245-149.306.314-1.65.413-3.701-.187-4.72-.156-.266-.356-.464-.823-.567-5.148-1.141-559.251-175.22-590.712-185.104z"/><path d="m416.479 556.585c135.987-7.233 656.123-159.93 656.123-159.93s343.732-79.948 437.294-126.08c9.678-4.772 20.599-10.553 17.522-19.813-10.984-33.057-5.305-49.736-7.065-62.057 0 0-389.156-140.408-560.689-183.035-14.813-3.681-30.226-4.167-45.236-1.397-75.083 13.855-349.406 60.977-408.166 101.657 0 0-465.52 77.343-466.831 85.198-6.09 36.493-5.41 39.624-14.668 67.621-2.917 8.823 4.872 17.91 12.144 23.695 58.713 46.698 343.687 276.05 379.572 274.141z" fill="#efe6c1"/><path d="m416.088 559.095c-15.851 0-70.449-35.231-166.817-107.644-77.356-58.125-160.453-124.41-200.387-156.264-5.317-4.241-9.867-7.871-13.534-10.788-10.92-8.687-15.645-18.322-12.962-26.437 7.373-22.296 8.361-28.515 11.637-49.121.815-5.126 1.739-10.938 2.938-18.125.428-2.565.737-4.419 75.493-18.671 38.788-7.395 92.771-17.127 160.451-28.926 111.163-19.38 223.571-38.098 232.396-39.565 55.292-37.614 287.444-79.729 386.738-97.743 8.47-1.536 15.854-2.876 21.932-3.998 15.434-2.85 31.011-2.367 46.291 1.429 88.695 22.042 236.499 70.66 344.873 107.563 61.349 20.891 116.824 40.317 152.561 52.937 20.242 7.148 36.426 12.914 46.438 16.492 5.49 1.962 9.756 3.491 12.648 4.53q5.629 2.022 5.977 3.271l.065.315c.556 3.885.416 8.07.254 12.916-.364 10.936-.864 25.914 6.709 48.706 3.878 11.668-9.762 18.393-18.788 22.843-92.317 45.519-431.229 124.733-437.763 126.257-8.539 2.504-522.351 152.866-656.627 160.008-.169.01-.344.014-.523.014zm-374.354-366.578c-1.118 6.723-1.993 12.228-2.77 17.11-3.238 20.364-4.328 27.225-11.828 49.906-2.822 8.534 6.981 17.497 11.327 20.954 3.668 2.917 8.22 6.548 13.54 10.791 39.916 31.84 122.974 98.094 200.273 156.176 116.926 87.859 153.656 106.645 163.681 106.645.134 0 .264-.004.389-.01 134.143-7.136 650.354-158.308 655.552-159.833l.138-.036c3.435-.799 344.52-80.41 436.755-125.888 9.885-4.874 18.566-9.825 16.255-16.782-7.855-23.641-7.339-39.136-6.962-50.449.133-3.968.249-7.47-.035-10.568-26.157-9.426-392.788-141.135-558.988-182.438-14.586-3.624-29.449-4.083-44.179-1.364-6.082 1.123-13.471 2.463-21.947 4.001-90.717 16.458-331.693 60.175-385.251 97.254l-.46.318-.553.092c-178.966 29.734-447.759 76.228-464.937 84.121z"/><path d="m1020.397 340.302c-64.283-43.598-510.599-230.186-515.1-232.065l1.927-4.613c4.505 1.881 451.284 188.664 515.979 232.54l-2.807 4.139z"/><path d="m421.853 472.605-.573-.242c-72.338-30.604-370.744-269.144-383.412-279.283l3.125-3.904c3.089 2.473 308.919 246.958 381.665 278.338 15.091-1.375 291.951-27.386 426.647-90.218 6.198-2.891 12.089-5.676 17.73-8.342 56.985-26.934 88.648-41.898 152.98-33.483 3.714-9.801 26.661-46.195 163.929-58.413 148.746-13.238 333.595-89.887 335.444-90.659l1.928 4.613c-1.857.776-187.403 77.719-336.929 91.026-78.914 7.024-118.316 22.137-137.475 33.578-20.526 12.258-22.626 22.913-22.646 23.019l-.419 2.368-2.388-.294c-64.291-8.824-95.548 5.948-152.29 32.766-5.648 2.67-11.547 5.458-17.753 8.353-72.478 33.809-185.275 56.677-267.137 69.907-88.616 14.321-161.086 20.753-161.808 20.816l-.62.055z"/><path d="m1008.178 359.042s5.322-29.597 17.78-18.732c2.119 1.848 3.611 4.306 4.466 6.984 3.15 9.859 14.577 41.346 34.83 51.506 0 0-17.398 29.172-83.3 23.88 0 0 19.4-25.423 26.224-63.638z"/><path d="m419.1 492.676-.8-.566c-2.321-1.643-233.064-165.198-317.334-249.188l3.529-3.541c81.483 81.212 300.834 237.389 315.894 248.08 148.684-19.878 340.98-78.579 342.909-79.171l1.467 4.779c-1.938.595-195.457 59.672-344.691 79.479l-.973.129z"/></svg>