<svg xmlns="http://www.w3.org/2000/svg" fill="none" viewBox="0 0 3000 3000" width="3000" height="3000"><defs><clipPath id="assetClipPath_fBrE1fKJ"><path d="m0 0 h 1158.968 v 1158.968 h -1158.968 v -1158.968 z" id="path_ZxR2k3sh" fill="#ffffff" /></clipPath><clipPath id="assetClipPath_5NdFPijL"><path d="m0 0 h 1159.605 v 1912.17 h -1159.605 v -1912.17 z" id="path_EVR1G2Vp" fill="#ffffff" /></clipPath><clipPath id="assetClipPath_sV3qY06z"><path d="m0 0 h 194.502 v 139.698 h -194.502 v -139.698 z" id="path__5HpCZCi" fill="#ffffff" /></clipPath><clipPath id="assetClipPath_lqklgQUh"><path d="m0 0 h 125.76 v 85.237 h -125.76 v -85.237 z" id="path_Pu-WWKEG" fill="#ffffff" /></clipPath><clipPath id="assetClipPath_H65Oh-wo"><path d="m0 0 h 341.318 v 1092.558 h -341.318 v -1092.558 z" id="path_QTK6Aakx" fill="#ffffff" /></clipPath><clipPath id="assetClipPath_imxR3tii"><path d="m0 0 h 172.654 v 125.986 h -172.654 v -125.986 z" id="path_jKTDWgSU" fill="#ffffff" /></clipPath><clipPath id="assetClipPath_6yWFQ9Vt"><path d="m0 0 h 410 v 270.894 h -410 v -270.894 z" id="path_IEQYLrnO" fill="#ffffff" /></clipPath></defs><g transform="translate(146 1243)" data-asset-index="0"><g clip-path="url(#assetClipPath_fBrE1fKJ)" transform="scale(1.1846746415776794 1.1846746415776794)" data-asset-index="0"><g id="Babina_with_a_film">
    <path d="M4.261,538.828v563.652s200,0,200,0v-563.652s-200,0-200,0ZM37.594,1085.813H15.372s0-22.222,0-22.222h22.222s0,22.222,0,22.222ZM37.594,1041.369H15.372s0-22.222,0-22.222h22.222s0,22.222,0,22.222ZM37.594,996.924H15.372s0-22.222,0-22.222h22.222s0,22.222,0,22.222ZM37.594,952.48H15.372s0-22.222,0-22.222h22.222s0,22.222,0,22.222ZM193.15,1085.813h-22.222s0-22.222,0-22.222h22.222s0,22.222,0,22.222ZM193.15,1041.369h-22.222s0-22.222,0-22.222h22.222s0,22.222,0,22.222ZM193.15,996.924l-14.253-5.706-7.969-16.516h22.222s0,22.222,0,22.222ZM193.15,952.48h-22.222s0-22.222,0-22.222h22.222s0,22.222,0,22.222ZM170.927,852.48v-22.222s22.222,0,22.222,0v22.222s-22.222,0-22.222,0ZM193.15,874.702v22.222s-22.222,0-22.222,0v-22.222s22.222,0,22.222,0ZM170.927,808.035v-22.222s22.222,0,22.222,0v22.222s-22.222,0-22.222,0ZM170.927,763.591v-22.222s22.222,0,22.222,0v22.222s-22.222,0-22.222,0ZM15.372,852.48v-22.222s22.222,0,22.222,0v22.222s-22.222,0-22.222,0ZM37.594,874.702v22.222s-22.222,0-22.222,0v-22.222s22.222,0,22.222,0ZM15.372,808.035v-22.222s22.222,0,22.222,0v22.222s-22.222,0-22.222,0ZM15.372,763.591v-22.222s22.222,0,22.222,0v22.222s-22.222,0-22.222,0ZM170.927,555.494h22.222s0,22.223,0,22.223h-22.222s0-22.223,0-22.223ZM170.927,599.939h22.222s0,22.222,0,22.222h-22.222s0-22.222,0-22.222ZM170.927,644.384h22.222s0,22.222,0,22.222h-22.222s0-22.222,0-22.222ZM170.927,688.828h22.222s0,22.222,0,22.222h-22.222s0-22.222,0-22.222ZM15.372,555.494h22.222s0,22.223,0,22.223H15.372s0-22.223,0-22.223ZM15.372,599.939h22.222s0,22.222,0,22.222H15.372s0-22.222,0-22.222ZM15.372,644.384h22.222s0,22.222,0,22.222H15.372s0-22.222,0-22.222ZM15.372,688.828h22.222s0,22.222,0,22.222H15.372s0-22.222,0-22.222Z" fill="#000000" id="PJK8vI7UC7Cs0iZWn0FW" />
    <g id="pp5lCLOSf03guQc8R1RQE">
      <path d="M10.02,504.2c-41.578,314.506,179.674,603.17,494.18,644.748,314.506,41.578,603.17-179.674,644.748-494.18C1190.526,340.262,969.274,51.598,654.768,10.02,340.262-31.558,51.598,189.694,10.02,504.2Z" fill="#686765" id="g6p3h0lBRJXsakq5Onw6K" />
      <path d="M580.441,1156.497c-25.439,0-50.983-1.688-76.568-5.07-77.21-10.207-150.114-35.232-216.685-74.378-64.298-37.811-120.012-87.136-165.594-146.605-45.582-59.469-78.734-126.087-98.537-198.002C2.555,657.985-2.666,581.083,7.542,503.872c10.208-77.211,35.232-150.114,74.379-216.684,37.81-64.298,87.135-120.012,146.604-165.594,59.469-45.581,126.087-78.734,198.002-98.537C500.984,2.554,577.886-2.666,655.096,7.542c77.21,10.207,150.114,35.232,216.685,74.378,64.298,37.811,120.012,87.136,165.594,146.605,45.582,59.469,78.734,126.087,98.537,198.002,20.502,74.456,25.723,151.358,15.516,228.569-10.208,77.211-35.232,150.114-74.379,216.685-37.81,64.298-87.135,120.012-146.604,165.594-59.469,45.582-126.087,78.734-198.002,98.537-49.784,13.709-100.668,20.586-152,20.586ZM579.083,7.523C296.754,7.523,50.485,217.194,12.499,504.528c-20.021,151.447,20.132,301.627,113.064,422.873,92.932,121.247,227.518,199.047,378.965,219.068,25.303,3.345,50.495,4.974,75.357,4.976,282.329.026,528.599-209.671,566.584-497.005,20.021-151.447-20.132-301.627-113.064-422.873S805.888,32.52,654.44,12.499c-25.303-3.345-50.495-4.976-75.357-4.976Z" fill="#000000" id="ze2C6R7tv86utdHSePYmm" />
    </g>
    <g id="ar3O4LRGmfV3b7txQ-73h">
      <path d="M519.541,571.559c-4.377,33.106,18.913,63.492,52.019,67.868,33.106,4.377,63.492-18.913,67.868-52.019,4.377-33.106-18.913-63.492-52.019-67.868-33.106-4.377-63.492,18.913-67.868,52.019Z" fill="#B6B6B6" id="adEDVOlaMHyYW7p73l5ER" />
      <path d="M579.53,644.954c-2.848,0-5.727-.186-8.625-.569-17.335-2.292-32.741-11.197-43.378-25.076-10.638-13.879-15.234-31.069-12.942-48.405,2.292-17.335,11.197-32.741,25.076-43.379,13.878-10.637,31.069-15.234,48.405-12.942,35.786,4.731,61.051,37.694,56.321,73.48-4.348,32.888-32.541,56.89-64.855,56.89ZM579.37,524.009c-12.121,0-23.845,3.955-33.627,11.453-11.759,9.013-19.304,22.065-21.245,36.752h0c-1.942,14.688,1.952,29.252,10.965,41.011s22.064,19.304,36.752,21.245c2.454.324,4.897.482,7.308.483,27.38.002,51.264-20.334,54.948-48.2,4.008-30.32-17.397-58.248-47.717-62.256-2.469-.326-4.935-.488-7.384-.488Z" fill="#000000" id="eIVcMSJ7e5tRcrqwEWxoq" />
    </g>
    <circle cx="619.107" cy="279.766" r="151.163" fill="#2A292F" id="lCINogjKTn8AxKU9UUfCV" />
    <circle cx="539.861" cy="879.202" r="151.163" fill="#2A292F" id="O2Pq_ZTfx2NsiRCOetWgP" />
    <circle cx="279.766" cy="539.861" r="151.163" fill="#2A292F" id="d4CsZW7xIKKor2BF41ZZ" />
    <circle cx="879.202" cy="619.107" r="151.163" fill="#2A292F" id="DXGIWPqoAbidIYQ6m2XQl" />
    <g id="K7OI6rHJhayIcJDNg2sZW">
      <path d="M654.768,10.02C340.262-31.558,51.598,189.694,10.02,504.2c-41.578,314.506,179.674,603.169,494.18,644.747,314.506,41.578,603.169-179.674,644.748-494.18S969.274,51.598,654.768,10.02ZM979.676,933.76c-22.669,25.557-47.932,49.069-75.087,69.882-27.155,20.814-56.424,39.099-86.994,54.348-30.851,15.39-63.297,27.82-96.437,36.945-68.943,18.985-140.174,23.815-211.715,14.357s-139.07-32.632-200.711-68.88c-29.63-17.423-57.731-37.858-83.523-60.736-25.556-22.669-49.068-47.932-69.882-75.087-20.814-27.155-39.099-56.425-54.348-86.994-15.39-30.851-27.82-63.297-36.945-96.437-18.985-68.943-23.815-140.175-14.357-211.716s32.632-139.07,68.881-200.712c17.424-29.63,37.858-57.731,60.736-83.523,22.669-25.557,47.932-49.069,75.087-69.882,27.155-20.814,56.424-39.099,86.994-54.348,30.851-15.39,63.297-27.82,96.437-36.945,68.943-18.985,140.174-23.815,211.715-14.357,71.541,9.458,139.07,32.632,200.711,68.88,29.63,17.423,57.731,37.858,83.523,60.736,25.556,22.669,49.068,47.932,69.882,75.087,20.814,27.155,39.099,56.425,54.348,86.994,15.39,30.851,27.82,63.297,36.945,96.437,18.985,68.943,23.815,140.175,14.357,211.716-9.458,71.541-32.632,139.07-68.881,200.712-17.424,29.63-37.858,57.731-60.736,83.523Z" fill="#B6B6B6" id="eHizT6vzG81hHcGCC7d-p" />
      <path d="M580.442,1158.997c-25.549,0-51.202-1.695-76.896-5.092-77.544-10.251-150.764-35.385-217.624-74.702-64.578-37.974-120.533-87.513-166.311-147.239-45.778-59.726-79.074-126.632-98.963-198.859C.055,658.324-5.188,581.089,5.063,503.545s35.385-150.764,74.702-217.624c37.975-64.578,87.513-120.533,147.239-166.311,59.726-45.778,126.632-79.074,198.859-98.963C500.644.055,577.88-5.188,655.423,5.064c77.544,10.251,150.764,35.385,217.624,74.702,64.578,37.975,120.533,87.513,166.311,147.239,45.778,59.726,79.074,126.632,98.963,198.859,20.592,74.781,25.835,152.016,15.584,229.56-10.251,77.544-35.385,150.763-74.702,217.624-37.975,64.577-87.513,120.532-147.239,166.311-59.726,45.778-126.632,79.074-198.859,98.963-50.001,13.769-101.109,20.675-152.664,20.676ZM579.085,10.023C297.99,10.023,52.797,218.777,14.977,504.856c-19.934,150.785,20.044,300.308,112.57,421.025s226.523,198.177,377.309,218.11c25.192,3.33,50.274,4.952,75.027,4.954,281.095.025,526.288-208.754,564.108-494.832,19.934-150.785-20.044-300.308-112.57-421.025-92.526-120.717-226.523-198.176-377.309-218.11-25.192-3.33-50.275-4.954-75.028-4.954ZM580.416,1118.994c-23.795,0-47.693-1.579-71.629-4.744-72.209-9.546-140.371-32.939-202.59-69.527-29.906-17.585-58.271-38.212-84.307-61.306-25.795-22.881-49.526-48.379-70.533-75.786-21.007-27.407-39.462-56.949-54.854-87.804-15.534-31.139-28.081-63.89-37.292-97.341-19.164-69.591-24.04-141.489-14.494-213.698,9.546-72.208,32.939-140.37,69.528-202.591,17.586-29.907,38.212-58.272,61.306-84.306,22.879-25.794,48.377-49.525,75.786-70.533,27.406-21.006,56.947-39.462,87.803-54.854,31.143-15.535,63.893-28.081,97.342-37.292,69.589-19.163,141.489-24.039,213.698-14.494,72.209,9.546,140.371,32.939,202.59,69.527,29.907,17.586,58.271,38.212,84.307,61.306,25.795,22.88,49.526,48.379,70.533,75.786,21.007,27.407,39.462,56.949,54.854,87.804,15.534,31.14,28.081,63.89,37.292,97.341,19.164,69.591,24.04,141.489,14.494,213.698-9.546,72.208-32.939,140.37-69.528,202.591-17.585,29.905-38.214,58.273-61.306,84.306h0c-22.879,25.795-48.378,49.525-75.787,70.533-27.406,21.006-56.947,39.462-87.803,54.854-31.143,15.535-63.893,28.082-97.342,37.292-46.522,12.811-94.081,19.237-142.069,19.237ZM578.558,49.976c-47.1,0-93.766,6.305-139.421,18.878-32.827,9.039-64.968,21.352-95.533,36.599-30.286,15.108-59.282,33.223-86.184,53.842-26.903,20.62-51.931,43.913-74.388,69.232-22.665,25.552-42.908,53.389-60.167,82.74-35.907,61.061-58.864,127.958-68.234,198.832-9.37,70.875-4.585,141.439,14.221,209.733,9.04,32.829,21.354,64.971,36.599,95.532,15.107,30.286,33.223,59.282,53.842,86.184,20.62,26.902,43.913,51.93,69.232,74.389,25.552,22.665,53.39,42.908,82.74,60.167,61.06,35.907,127.956,58.864,198.832,68.234,70.877,9.37,141.44,4.585,209.733-14.221,32.826-9.039,64.968-21.352,95.533-36.599,30.286-15.108,59.282-33.223,86.184-53.842,26.903-20.62,51.931-43.913,74.388-69.232,22.665-25.552,42.908-53.389,60.167-82.74,35.907-61.061,58.864-127.958,68.234-198.833,9.37-70.875,4.585-141.439-14.221-209.733-9.04-32.829-21.354-64.971-36.599-95.532-15.107-30.286-33.223-59.282-53.842-86.184-20.62-26.902-43.913-51.93-69.232-74.388-25.552-22.665-53.39-42.908-82.74-60.167-61.06-35.907-127.956-58.864-198.832-68.234-23.494-3.106-46.958-4.657-70.312-4.657Z" fill="#000000" id="IYeU0Ur85kdnHgTrkTewb" />
    </g>
  </g></g></g><g transform="translate(895 352)" data-asset-index="1"><g clip-path="url(#assetClipPath_5NdFPijL)" transform="scale(1.1840238701971793 1.1840238701971793)" data-asset-index="1"><g id="Plaster_bust">
    <g id="DkJqYO_WKUno5cnXL8z2">
      <g id="QmqZcbsySZcfTf10akiIv">
        <rect x="241.352" y="1277.382" width="736.939" height="508.614" fill="#F4F4F4" id="ESVgWQWiNkmpaV3MsPPS" />
        <path d="M983.292,1790.996H236.352v-518.614h746.939v518.614ZM246.352,1780.996h726.939v-498.614H246.352v498.614Z" fill="#000000" id="q69UbVOz4iWK2TPOxWN7o" />
      </g>
      <g id="H7YadlugCP6oiRAyxgGR">
        <g id="X5p58sNFjqcey0jZMPxuz">
          <rect x="288.207" y="1321.472" width="72.434" height="417.284" rx="36.217" ry="36.217" fill="#F4F4F4" id="nNO-107PWzdh4XuyyhDbX" />
          <path d="M324.424,1743.757c-22.728,0-41.217-18.49-41.217-41.217v-344.85c0-22.727,18.49-41.217,41.217-41.217s41.217,18.49,41.217,41.217v344.85c0,22.727-18.49,41.217-41.217,41.217ZM324.424,1326.472c-17.213,0-31.217,14.004-31.217,31.217v344.85c0,17.213,14.004,31.217,31.217,31.217h0c17.213,0,31.217-14.004,31.217-31.217v-344.85c0-17.213-14.004-31.217-31.217-31.217Z" fill="#000000" id="NzkzuL1QUX-coZNc_yB2" />
        </g>
        <g id="JHm5PK3n8LCC3SdXv7s1l">
          <rect x="430.578" y="1321.472" width="72.434" height="417.284" rx="36.217" ry="36.217" fill="#F4F4F4" id="K1IFxC2vXNn0a8vKGQ7qB" />
          <path d="M466.795,1743.757c-22.728,0-41.217-18.49-41.217-41.217v-344.85c0-22.727,18.49-41.217,41.217-41.217s41.217,18.49,41.217,41.217v344.85c0,22.727-18.49,41.217-41.217,41.217ZM466.795,1326.472c-17.213,0-31.217,14.004-31.217,31.217v344.85c0,17.213,14.004,31.217,31.217,31.217h0c17.213,0,31.217-14.004,31.217-31.217v-344.85c0-17.213-14.004-31.217-31.217-31.217Z" fill="#000000" id="dKGpEA9oQwZjpjVF6Fp" />
        </g>
        <g id="JoW3bk6VcDha_2oCBtY5n">
          <rect x="572.949" y="1321.472" width="72.434" height="417.284" rx="36.217" ry="36.217" fill="#F4F4F4" id="d-yICTJ9GTxSzuFd4t" />
          <path d="M609.166,1743.757c-22.728,0-41.217-18.49-41.217-41.217v-344.85c0-22.727,18.49-41.217,41.217-41.217s41.217,18.49,41.217,41.217v344.85c0,22.727-18.49,41.217-41.217,41.217ZM609.166,1326.472c-17.213,0-31.217,14.004-31.217,31.217v344.85c0,17.213,14.004,31.217,31.217,31.217h0c17.213,0,31.217-14.004,31.217-31.217v-344.85c0-17.213-14.004-31.217-31.217-31.217Z" fill="#000000" id="Sbea1PN1tFnL86p0_9nA" />
        </g>
        <g id="v5GUd8fdAuVLIg5TND_">
          <rect x="715.32" y="1321.472" width="72.434" height="417.284" rx="36.217" ry="36.217" fill="#F4F4F4" id="Z9yrY2PCOe3ET9TU1BM8" />
          <path d="M751.537,1743.757c-22.728,0-41.217-18.49-41.217-41.217v-344.85c0-22.727,18.49-41.217,41.217-41.217s41.217,18.49,41.217,41.217v344.85c0,22.727-18.49,41.217-41.217,41.217ZM751.537,1326.472c-17.213,0-31.217,14.004-31.217,31.217v344.85c0,17.213,14.004,31.217,31.217,31.217h0c17.213,0,31.217-14.004,31.217-31.217v-344.85c0-17.213-14.004-31.217-31.217-31.217Z" fill="#000000" id="lslq1xTsaTqvosJbJmVEe" />
        </g>
        <g id="t-eymIGN4Uhlve4xAAzX-">
          <rect x="857.691" y="1321.472" width="72.434" height="417.284" rx="36.217" ry="36.217" fill="#F4F4F4" id="lZaHnWusiuub657gzHs5S" />
          <path d="M893.909,1743.757c-22.728,0-41.217-18.49-41.217-41.217v-344.85c0-22.727,18.49-41.217,41.217-41.217s41.217,18.49,41.217,41.217v344.85c0,22.727-18.49,41.217-41.217,41.217ZM893.909,1326.472c-17.213,0-31.217,14.004-31.217,31.217v344.85c0,17.213,14.004,31.217,31.217,31.217h0c17.213,0,31.217-14.004,31.217-31.217v-344.85c0-17.213-14.004-31.217-31.217-31.217Z" fill="#000000" id="kcpaesNmGkt6p4JXO-RGN" />
        </g>
      </g>
      <g id="DVWk2xi2MvnRA0nfd6ouT">
        <rect x="148.618" y="1771.247" width="922.408" height="135.923" fill="#F4F4F4" id="mFEco1FIqbYk-s8UH5qCL" />
        <path d="M1076.026,1912.17H143.618v-145.922h932.408v145.922ZM153.618,1902.17h912.408v-125.922H153.618v125.922Z" fill="#000000" id="o_oStYMDpMzTIH5Sj38xN" />
      </g>
    </g>
    <g id="Neck">
      <g id="OVg9nHn98qeC9vKebyO_H">
        <path d="M1144.608,1134.355c-66.852-179.537-331.943-184.877-331.943-184.877l1.247-92.671-490.505,53.728S60.729,1014.206,14.723,1096.737c-18.484,33.159-9.051,78.566,15.126,107.834,28.128,34.052,262.104,219.804,299.537,399.107h672.323c50.895-88.994,92.503-182.115,125.032-279.336,20.531-61.364,40.446-129.347,17.866-189.987Z" fill="#F4F4F4" id="yeaV5PTWp5xRRtZosztnD" />
        <path d="M1004.609,1608.678H325.322l-.831-3.978c-30.08-144.083-187.464-291.464-263.1-362.292-17.365-16.261-29.912-28.011-35.398-34.652-23.405-28.334-36.292-76.402-15.638-113.453,19.573-35.112,78.013-77.53,173.698-126.075,70.81-35.925,136.857-62.084,137.516-62.344l.624-.246,496.792-54.416-1.257,93.46c16.889.855,74.535,5.13,137.355,25.145,43.867,13.976,81.703,32.785,112.458,55.903,38.658,29.059,66.163,65.019,81.75,106.881h0c22.781,61.181,3.693,129.049-17.811,193.319-32.585,97.389-74.787,191.672-125.434,280.232l-1.44,2.518ZM333.418,1598.678h665.387c49.685-87.261,91.125-180.076,123.194-275.922,20.937-62.574,39.566-128.531,17.923-186.656-33.832-90.858-120.84-135.389-187.874-156.746-73.092-23.288-138.83-24.864-139.485-24.877l-4.966-.1,1.237-91.984-484.211,53.038c-14.228,5.684-261.986,105.62-305.534,183.742-18.469,33.132-6.628,76.5,14.614,102.216,5.078,6.148,17.429,17.714,34.523,33.721,38.163,35.737,95.836,89.744,149.12,154.343,63.002,76.38,102.034,146.743,116.071,209.226Z" fill="#000000" id="YI5yeTGK27MJ_xK5ciqik" />
      </g>
      <g id="Pu4EtMtLutRUd9e4tkVO">
        <path d="M644.442,1082.958c-144.226.302-219.869-58.637-320.553-138.549l-6.17-432.489,498.903-27.386-2.988,434.177c5.202,94.77-63.322,164.025-169.192,164.247Z" fill="#F4F4F4" id="qZyF2KQUeoD4g_VbpK9u" />
        <path d="M872.058,960.59c-29.858-5.668-58.788-6.107-59.077-6.111l-5.225-.068.298-5.217c.011-.2,1.14-20.145.588-30.208l-.007-.228-3.977-428.559-481.871,26.451,5.667,397.193-47.229,19.755-3.858-9.226,40.992-17.146-5.707-400.035,501.909-27.551,4.073,438.912c.397,7.441-.028,19.311-.336,26.075,9.822.377,32.171,1.685,55.626,6.138l-1.865,9.825Z" fill="#000000" id="zxFUMUEsTwnvD9rLebzuP" />
      </g>
    </g>
    <g id="Dn7Rt5sIjsmgh3HncYo8">
      <path d="M710.301,963.288c-153.617,9.061-315.569-114.08-355.03-290.13-8.374,8.836-18.578,15.579-30.3,19.51-44.709,14.937-94.479-16.997-111.166-71.361-16.713-54.337,11.032-126.745,38.542-164.993,39.117-54.385,234.54-263.11,389.335-272.244,175.818-10.365,327.762,156.317,339.382,372.31,11.595,215.966-94.945,396.515-270.763,406.907Z" fill="#F4F4F4" id="dQeBQXvHjy7p9AN_RfW3S" />
      <path d="M694.162,968.762c-33.17,0-66.811-5.869-100.237-17.506-38.054-13.248-74.078-33.338-107.07-59.712-66.635-53.267-114.139-127.143-134.45-208.781-7.688,6.549-16.351,11.461-25.844,14.645-20.127,6.725-42.311,4.714-62.467-5.658-25.583-13.165-45.654-38.306-55.068-68.976-18.145-58.992,13.54-133.615,39.263-169.38,41.597-57.833,237.595-265.14,393.099-274.316,37.962-2.239,75.563,3.548,111.76,17.198,34.92,13.168,67.706,33.315,97.448,59.883,79.66,71.158,129.034,180.486,135.461,299.952,5.781,107.673-17.619,208.361-65.888,283.515-24.451,38.07-54.426,68.451-89.092,90.298-36.289,22.87-76.824,35.774-120.481,38.354h0c-5.462.322-10.942.483-16.433.483ZM358.097,662.907l2.053,9.157c37.43,166.99,194.394,295.383,349.856,286.232h0c83.004-4.906,152.768-47.81,201.749-124.074,47.144-73.402,69.985-171.98,64.316-277.574-6.285-116.828-54.448-223.633-132.138-293.031-58.553-52.303-130.281-78.782-201.958-74.555-81.625,4.816-172.937,66.84-235.165,118.023-73.083,60.112-131.041,125.226-150.405,152.149-29.617,41.177-52.938,111.459-37.822,160.603,8.629,28.112,26.884,51.082,50.085,63.021,17.74,9.129,37.172,10.929,54.717,5.067,10.698-3.588,20.207-9.714,28.256-18.207l6.455-6.812Z" fill="#000000" id="kmT_MAFgVU--xgEIZX8Fg" />
    </g>
    <g id="kxoFSsckroIg5BUlEUTU">
      <circle cx="868.457" cy="532.951" r="22.452" fill="#000000" id="czEyc2FQrS2H9DT5GEwIT" />
      <circle cx="656.494" cy="535.908" r="22.452" fill="#000000" id="xpU_J2UnnOsSntCWj8aRk" />
      <path d="M783.613,689.84c-8.923,0-17.611-1.696-25.88-5.058l3.766-9.264c8.092,3.29,16.659,4.713,25.466,4.229,32.714-1.796,57.869-29.872,56.073-62.587-.868-15.812-7.863-30.358-19.698-40.958-11.835-10.602-27.062-15.962-42.888-15.094-9.334.512-18.128,3.104-26.138,7.705l-4.98-8.671c9.376-5.386,19.662-8.42,30.57-9.019,18.486-1.014,36.282,5.246,50.108,17.63,13.825,12.383,21.997,29.38,23.011,47.859,2.098,38.22-27.291,71.022-65.511,73.12-1.304.072-2.605.107-3.899.107Z" fill="#000000" id="T1dRgJiZ5Me9AFKyaEGL" />
      <path d="M754.08,790.8c-23.218,0-44.467-2.733-61.651-6.03l1.884-9.821c34.889,6.693,87.056,11.012,137.454-6.417l3.269,9.451c-27.493,9.508-55.415,12.817-80.955,12.817Z" fill="#000000" id="dfTvRFKeVkVxmileY922-" />
    </g>
    <g id="Hair">
      <g id="oSkjQT4uHZiL38dHlWp0a">
        <path id="Hair_1" d="M981.923,197.496s52.571-11.487,44.67-67.541c-22.781-161.608-308.01-98.414-308.01-98.414,0,0-112.965-56.058-267.757-5.234-102.105,33.525-147.811,100.904-147.811,100.904,0,0-192.855,35.366-208.281,132.733-8.97,56.615,50.824,90.498,50.824,90.498,0,0-46.814,24.068-37.87,78.729,8.969,54.811,77.732,93.677,77.732,93.677l22.892,65.661s.451-90.375,89-88.361c45.176,1.027,70.423,55.255,70.423,55.255,0,0-4.8,37.741,7.856,58.939,10.118,16.948,27.864,23.533,27.864,23.533,0,0-2.899-29.105-.282-53.374,4.864-45.121,14.324-106.147,20.257-141.86,30.818,4.995,60.356-19.188,72.198-48.076,11.842-28.888,10.209-61.284,8.385-92.451,12.596,38.074,48.306,67.436,88.097,72.435,39.791,5,81.654-14.615,103.278-48.39,40.029,28.079,100.571,21.292,133.388-14.955,97.869,0,119.616,98.675,142.143,160.907,196.12-177.478,11.005-274.616,11.005-274.616Z" fill="#F4F4F4" />
        <path d="M409.222,645.349l-7.507-2.785c-.792-.294-19.521-7.408-30.417-25.658-12.043-20.172-9.481-53.033-8.697-60.598-3.981-7.765-27.517-50.299-65.402-51.161-24.41-.556-44.029,6.199-58.295,20.074-25.107,24.421-25.589,62.927-25.591,63.313l-.145,29.087-31.861-91.385c-10.957-6.526-69.985-43.899-78.552-96.258-4.923-30.085,6.34-51.327,16.655-63.849,5.968-7.244,12.258-12.438,16.884-15.735-5.878-4.122-14.739-11.08-23.248-20.648-19.12-21.499-27.16-45.907-23.25-70.585,3.713-23.433,17.431-45.256,40.774-64.862,18.302-15.372,42.579-29.451,72.157-41.846,44.311-18.569,87.663-27.825,97.375-29.769,3.584-4.888,15.01-19.528,35.248-37.126,22.418-19.495,60.379-46.423,113.916-64.001,80.916-26.568,150.312-23.707,194.28-16.629,42.005,6.762,68.945,18.284,75.652,21.372,8.614-1.781,48.922-9.648,97.2-11.521,73.355-2.847,129.305,8.715,166.289,34.365,27.625,19.159,44.063,46.113,48.856,80.114,4.407,31.267-9.08,49.543-21.169,59.368-5.824,4.733-11.838,7.967-16.744,10.104,6.983,4.579,17.079,11.922,27.576,22.012,24.982,24.011,40.155,52.226,43.88,81.596,6.892,54.345-23.662,112.713-90.814,173.482l-5.521,4.997-2.535-7.002c-2.43-6.713-4.814-13.74-7.339-21.18-20.449-60.256-45.854-135.119-127.936-136.412-16.601,17.481-39.803,28.659-65.599,31.551-24.789,2.779-48.936-2.433-68.584-14.71-23.414,32.946-65.058,51.5-105.273,46.447-33.35-4.19-63.638-24.355-81.296-52.628.594,23.13-.806,47.306-9.936,69.58-6.38,15.565-17.288,29.388-30.713,38.924-13.3,9.446-27.708,13.812-41.955,12.773-6.708,40.756-15.109,96.693-19.441,136.878-2.528,23.452.258,52.057.287,52.343l.792,7.968ZM294.413,495.115c.998,0,2,.011,3.012.034,47.734,1.086,73.757,55.814,74.841,58.144l.609,1.309-.182,1.432c-.045.359-4.421,36.299,7.189,55.745,5.093,8.529,12.428,14.223,17.895,17.582-.674-10.648-1.349-28.964.422-45.395,4.524-41.962,13.45-100.94,20.296-142.143l.816-4.913,4.916.797c29.423,4.769,56.362-19.645,66.771-45.037,11.641-28.397,9.717-61.264,8.02-90.263l-2.226-38.025,11.964,36.162c12.077,36.505,45.824,64.251,83.973,69.044,38.148,4.793,77.712-13.742,98.444-46.125l2.812-4.393,4.27,2.995c37.77,26.495,95.843,19.985,126.81-14.217l1.489-1.644h2.218c40.505,0,72.046,16.03,96.426,49.006,20.655,27.938,32.604,63.146,43.145,94.209,1.629,4.801,3.2,9.43,4.758,13.898,60.698-56.55,88.303-110.233,82.072-159.646-8.272-65.6-74.907-101.396-75.579-101.75l-12.124-6.384,13.372-2.924c1.961-.437,47.938-11.297,40.796-61.96-4.387-31.123-19.407-55.779-44.641-73.284-43.758-30.354-111.182-34.484-160.042-32.604-53.4,2.055-96.862,11.562-97.295,11.657l-1.723.381-1.581-.784c-.276-.136-28.408-13.869-74.828-21.287-42.784-6.837-110.33-9.554-189.146,16.325-99.129,32.548-144.786,98.303-145.236,98.964l-1.175,1.727-2.058.381c-1.894.348-189.551,35.849-204.245,128.597-8.311,52.455,47.787,85.045,48.354,85.368l8.027,4.569-8.21,4.226c-.102.053-11.158,5.874-20.957,17.892-12.909,15.834-17.708,34.535-14.264,55.582,8.471,51.769,74.593,89.755,75.259,90.133l1.638.927,16.578,47.546c3.27-14.599,10.379-33.886,25.833-48.917,15.655-15.227,36.667-22.938,62.482-22.938Z" fill="#000000" id="CM0m64dZPJLheIE7-Kx7" />
      </g>
      <g id="rVDc6Ip6J4QdDqMuLp368">
        <path d="M693.755,337.068l-7.945-6.072c10.977-14.363,23.826-45.956,26.099-81.378,1.853-28.871-2.925-69.234-36.205-97.57l6.483-7.614c36.434,31.022,41.699,74.67,39.701,105.824-2.406,37.501-16.27,71.288-28.133,86.81Z" fill="#000000" id="cS3ZWF8FHIFwfLzT_FVlg" />
        <path d="M832.411,314.637l-7.271-6.865c16.416-17.388,32.082-52.552,27.687-88.668-3.16-25.965-16.615-47.275-38.91-61.626l5.413-8.409c24.877,16.014,39.893,39.814,43.424,68.827,4.785,39.317-12.374,77.708-30.342,96.741Z" fill="#000000" id="TO1MiTqROpURNzVeytUdi" />
        <path d="M266.933,508.033c-26.882-7.298-48.584-29.483-55.29-56.519-6.705-27.036,2.116-56.791,22.472-75.805l6.826,7.308c-17.475,16.322-25.348,42.881-19.592,66.09,5.756,23.208,25.127,43.011,48.204,49.276l-2.62,9.651Z" fill="#000000" id="jImqy74Rf_PaRUTWgeEvj" />
      </g>
    </g>
  </g></g></g><g transform="translate(516 2461)" data-asset-index="2"><g clip-path="url(#assetClipPath_sV3qY06z)" transform="scale(1.187648456057007 1.187648456057007)" data-asset-index="2"><path id="Popcorn_2" d="M29.4,8.102C14.582,13.685.68,24.414,6.259,44.808c4.178,15.274,26.5,25.041,26.5,25.041,0,0-31.761,32.454-5.723,57.119,22.229,21.057,63.981-6.376,75.854-17.542,11.856,17.594,37.04,24.219,56.505,15.778,19.465-8.44,31.742-30.403,29.929-51.542-1.813-21.138-16.915-40.25-36.634-48.077-19.719-7.827-43.137-4.609-60.769,7.19-4.741-8.691-29.501-37.115-62.522-24.673Z" fill="#FFF99F" /><path d="M47.719,139.634c-8.881,0-17.28-2.557-24.12-9.037-7.654-7.25-11.627-15.811-11.81-25.444-.268-14.134,7.844-26.959,13.091-33.747-7.571-4.328-20.115-13.116-23.443-25.281C-3.814,26.934,5.493,11.767,27.637,3.423h0c15.474-5.83,31.459-4.164,46.227,4.819,9.12,5.548,15.756,12.647,19.547,17.731,18.766-10.742,41.749-12.727,61.124-5.035,21.85,8.673,37.833,29.689,39.771,52.297,2.025,23.621-11.82,47.406-32.922,56.556-20.269,8.788-45.16,2.974-59.207-13.109-12.605,10.31-34.718,22.951-54.459,22.951ZM45.959,9.999c-4.667,0-9.616.83-14.796,2.782h0C5.343,22.509,9.662,38.299,11.082,43.488c2.897,10.59,18.081,19.314,23.687,21.782l6.611,2.911-5.047,5.165c-.144.148-14.875,15.481-14.545,31.657.142,6.934,2.983,12.931,8.688,18.335,4.751,4.5,10.765,6.298,17.281,6.298,19.403.001,43.282-15.927,51.709-23.852l4.285-4.03,3.287,4.878c10.301,15.287,32.897,21.563,50.369,13.985,17.277-7.492,28.606-27.059,26.937-46.527-1.623-18.924-15.084-36.548-33.497-43.857-17.861-7.089-39.374-4.524-56.144,6.698l-4.549,3.044-2.621-4.805c-3.243-5.945-19.118-25.171-41.573-25.171Z" fill="#000000" id="Qfe_TDoM7wyw8Xp6gPx0a" /></g></g><g transform="translate(879 2518)" data-asset-index="3"><g clip-path="url(#assetClipPath_lqklgQUh)" transform="scale(1.1927480916030533 1.1927480916030533)" data-asset-index="3"><path id="Popcorn_3" d="M113.81,24.212c11.36,14.006,8.492,35.154-6.392,47.226-13.076,10.605-31.048,10.701-42.946,1.103-16.52,12.028-39.23,9.769-51.581-5.459C.078,51.284,3.202,27.529,19.843,14.031,36.02.911,59.011,2.285,72.062,16.86c14.218-7.647,31.786-4.931,41.749,7.351Z" fill="#FFF99F" /><path d="M41.084,85.248c-12.2,0-24.06-5.133-32.077-15.017C-5.519,52.321-2.071,25.368,16.693,10.148c17.171-13.927,41.226-13.406,56.426.664,15.831-6.717,34.077-2.692,44.574,10.25,6.372,7.856,9.112,17.856,7.717,28.159-1.379,10.187-6.651,19.456-14.843,26.1-13.595,11.027-32.448,12.207-46.205,3.304-7.26,4.449-15.341,6.622-23.278,6.622ZM45.01,9.977c-7.638,0-15.462,2.621-22.018,7.938-14.482,11.746-17.272,32.39-6.219,46.017,10.625,13.098,30.283,15.104,44.755,4.567l3.099-2.256,2.984,2.407c10.256,8.274,25.672,7.814,36.657-1.095,6.207-5.034,10.196-12.022,11.232-19.676,1.021-7.54-.958-14.827-5.574-20.517-8.243-10.162-23.171-12.727-35.497-6.098l-3.467,1.865-2.626-2.933c-6.066-6.775-14.574-10.218-23.326-10.218Z" fill="#000000" id="yyhmRf8S_Rqtjv5eTp68T" /></g></g><g transform="translate(2157 1323)" data-asset-index="4"><g clip-path="url(#assetClipPath_H65Oh-wo)" transform="scale(1.18071710252609 1.18071710252609)" data-asset-index="4"><g id="Bowling_pin">
    <g id="Xua_1xhjvS9wrBCt2CYA">
      <path d="M272.909,419.508c-52.844-103.965-33.632-193.851-25.776-228.047,7.856-34.197,8.497-78.217,8.497-78.217-.239-103.289-71.261-107.325-71.261-107.325-10.438-1.22-20.956-1.225-31.395-.014,0,0-70.958,4.472-70.7,107.764,0,0,.896,43.854,8.941,78.111,8.046,34.257,27.881,123.806-24.532,228.106C14.271,524.187,4.844,642.504,5.002,711.07c.158,68.565,21.783,246.564,75.7,362.043,0,0,8.802,14.471,20.216,14.446l136.207-.457c21.198-.129,25.862-14.738,25.862-14.738,53.341-115.656,73.507-293.307,73.331-361.897-.175-68.591-10.564-186.992-63.408-290.958Z" fill="#EFE6C1" id="ognJL6jVbYp_kXecvSk73" />
      <path d="M100.892,1092.558c-13.817,0-23.413-15.122-24.463-16.848l-.258-.483c-30.132-64.536-48.39-144.296-58.4-199.843C4.769,803.236.073,741.783.002,711.081c-.145-63.064,7.745-185.046,62.214-293.44,52.413-104.301,31.127-194.935,24.132-224.718-8.074-34.376-9.036-77.34-9.073-79.152-.14-55.452,20.124-83.15,37.147-96.638C132.472,2.833,150.53,1.077,152.507.925c10.722-1.235,21.594-1.231,32.316.013,2.066.148,20.092,1.824,38.168,15.972,17.1,13.383,37.51,40.958,37.638,96.322-.027,1.903-.741,45.029-8.624,79.348-6.839,29.771-27.65,120.369,25.361,224.662,55.268,108.735,63.79,230.378,63.95,293.211.079,30.897-4.24,92.43-16.67,164.166-9.613,55.471-27.308,135.113-57.03,199.641-.991,2.662-7.604,17.703-30.462,17.842l-136.22.457c-.013,0-.028,0-.042,0ZM85.106,1070.727c2.205,3.486,8.939,11.831,15.782,11.831h.019l136.201-.457c17.028-.104,20.975-10.861,21.135-11.319l.203-.513c51.859-112.442,73.051-289.816,72.872-359.791-.158-61.943-8.536-181.818-62.865-288.705-54.655-107.527-33.231-200.786-26.192-231.432,7.642-33.269,8.364-76.736,8.371-77.171-.094-40.28-11.632-70.754-33.368-88.043-16.363-13.015-33.026-14.207-33.192-14.218l-.281-.025c-10.031-1.173-20.205-1.177-30.238-.014l-.262.023c-.15.01-16.797,1.305-33.088,14.421-21.641,17.424-33.027,47.972-32.926,88.34.008.344.98,43.649,8.809,76.98,7.2,30.657,29.11,123.951-24.932,231.495-53.539,106.541-61.293,226.753-61.15,288.927.161,69.614,22.357,246.491,75.104,359.669Z" fill="#000000" id="RTcBVAlVmkuCKrJaG-Sh2" />
    </g>
    <g id="grD8LTCDsn02Fu4qgZJVO">
      <path d="M244.227,340.8s-4.666-24.118-6.005-45.71c-1.019-16.446-.855-31.455-.855-31.455l-135.93-.406c.082,2.131.135,4.302.172,6.495-.194,39.299-5.226,63.212-6.912,71.076h149.53Z" fill="#FF5300" id="JH8cSfL3jRv1YOnisDJB5" />
      <path d="M244.227,345.8H88.511l1.297-6.049c4.381-20.426,6.669-43.975,6.801-69.997-.041-2.358-.095-4.431-.168-6.333l-.199-5.207,146.181.436-.055,5.039c-.001.148-.15,15.031.846,31.091,1.302,21.005,5.877,44.831,5.924,45.07l1.15,5.949h-6.06ZM100.808,335.8h137.435c-1.479-8.565-4.056-24.994-5.01-40.4-.665-10.725-.831-20.935-.866-26.779l-125.784-.376c.009.454.018.919.026,1.395v.109c-.119,24.213-2.069,46.396-5.801,66.051Z" fill="#000000" id="ho4yq3Xx_jHwd1YDfXq4X" />
    </g>
  </g></g></g><g transform="translate(2084 2499)" data-asset-index="5"><g clip-path="url(#assetClipPath_imxR3tii)" transform="scale(1.1815538591634136 1.1815538591634136)" data-asset-index="5"><g id="Popcorn_4">
    <g id="AF9NwKKdFlSQHepo0Dlfr">
      <path d="M47.182,8.535c-16.309,8.518-21.826,32.58-10.858,47.352-11.071-2.239-22.981,4.251-28.133,14.303-5.152,10.052-3.833,22.785,2.283,32.281,6.116,9.496,16.349,17.119,27.603,18.084,40.931,3.508,44.102-15.518,44.102-15.518,0,0,14.27,22.197,49.151,12.156,8.64-2.487,23.505-11.407,29.553-18.06s8.89-16.826,4.963-24.915c-3.093-6.37-9.775-10.396-16.669-12.011-6.894-1.615-14.084-1.156-21.149-.688,13.539-8.378,15.623-30.318,3.903-41.095-12.425-11.425-28.523-5.244-39.394,4.172-12.209-12.525-25.927-26.206-45.354-16.059Z" fill="#FFF99F" id="oBVLYN84hCLkH_FNWuO1U" />
      <path d="M47.527,125.979c-3.053,0-6.338-.14-9.876-.443-11.925-1.022-23.949-8.823-31.38-20.358-7.317-11.36-8.31-25.989-2.529-37.269,4.769-9.305,14.246-15.74,24.164-17.155-2.525-6.722-3.003-14.377-1.254-22.005,2.505-10.924,9.145-19.907,18.216-24.646h0c21.01-10.973,36.467,2.098,48.082,13.773,12.351-9.039,28.963-13.458,42.366-1.135,6.649,6.114,10.056,15.684,9.114,25.601-.475,5.005-2.022,9.715-4.425,13.764,3.419.09,6.892.429,10.313,1.231,9.244,2.165,16.543,7.521,20.027,14.695,4.567,9.406,2.252,21.647-5.761,30.462-6.535,7.19-22.022,16.668-31.869,19.502-26.273,7.563-42.056-1.639-49.521-8.39-4.62,5.673-14.548,12.372-35.666,12.372ZM31.836,60.442c-7.637,0-15.461,4.743-19.195,12.028-4.184,8.163-3.384,18.876,2.037,27.293,5.79,8.988,14.919,15.046,23.826,15.81,33.849,2.9,38.445-10.381,38.751-11.43l1.519-13.994,7.611,12.183c.496.746,12.945,18.87,43.562,10.055,7.985-2.299,21.985-10.841,27.236-16.619,5.208-5.729,6.92-13.693,4.165-19.368-2.13-4.386-7.106-7.873-13.312-9.327-6.226-1.458-13.064-1.005-19.678-.567l-20.041,1.328,17.079-10.568c5.036-3.116,8.429-9.049,9.077-15.869.647-6.82-1.568-13.285-5.928-17.294-12.513-11.506-28.221.36-32.737,4.271l-3.563,3.086-3.291-3.376c-13.512-13.862-24.251-23.06-39.458-15.117-6.475,3.382-11.25,9.948-13.099,18.017-1.85,8.068-.414,16.058,3.941,21.923l7.77,10.465-12.776-2.584c-1.151-.233-2.322-.345-3.497-.345Z" fill="#000000" id="zS8WL4544aVmVHVej2eBH" />
    </g>
    <path d="M113.06,51.499c.74-.825,1.404-1.96.993-2.99-.517-1.297-2.261-1.45-3.656-1.391-10.639.452-31.033,8.133-31.033,8.133,0,0-16.609-13.763-19.492-12.143-3.099,1.741-.37,15.771,1.781,18.602-5.666,5.512-15.766,24.728-15.766,24.728,0,0,15.091-1.937,19.889-4.451,6.136-3.214,10.811-7.05,10.811-7.05,0,0,4.813,6.956,13.003,10.556,7.197,3.164,22.831,4.518,22.831,4.518,0,0-3.546-9.923-9.132-16.195-4.059-4.557-13.663-7.405-13.663-7.405,0,0,12.855-7.25,15.545-9.116,2.69-1.865,5.702-3.36,7.888-5.796Z" fill="#FEDD65" id="GcC0wAQOW8SCpxrEIFQBI" />
  </g></g></g><g transform="translate(2368 2293)" data-asset-index="6"><g clip-path="url(#assetClipPath_6yWFQ9Vt)" transform="scale(1.1902439024390243 1.1902439024390243)" data-asset-index="6"><g id="Tickets">
    <g id="FTpHnm_1CRdi2FJzh2Vl">
      <path d="M376.033,83.784l-.084-18.187L130.415,22.562c-1.64,6.881-8.325,11.405-15.386,10.166-7.055-1.24-11.805-7.766-11.007-14.794L30.231,5l-12.641,72.11c9.658,2.249,16.861,9.682,19.218,18.783,112.941-7.82,225.946-15.947,339.224-12.109Z" fill="#3B6DF2" id="fvonEz07UqupVMdpiW0F7" />
      <path d="M36.805,100.893c-2.262,0-4.263-1.528-4.837-3.746-1.965-7.585-7.909-13.396-15.512-15.167-2.585-.602-4.249-3.119-3.791-5.733L25.306,4.137c.477-2.72,3.069-4.536,5.788-4.062l73.792,12.935c2.604.457,4.403,2.862,4.105,5.49-.506,4.448,2.527,8.536,6.904,9.305,4.379.767,8.618-2.043,9.656-6.401.613-2.572,3.122-4.224,5.727-3.766l245.534,43.034c2.383.418,4.125,2.482,4.137,4.902l.083,18.188c.006,1.359-.542,2.663-1.517,3.61-.975.947-2.292,1.46-3.653,1.41-110.224-3.735-222.124,4.02-330.34,11.52l-8.37.58c-.117.008-.233.012-.348.012ZM23.269,73.672c7.74,3.11,13.882,9.213,17.051,16.966l4.513-.313c106.773-7.4,217.124-15.048,326.176-11.705l-.041-8.82L133.579,28.193c-3.684,6.855-11.446,10.86-19.414,9.46-7.968-1.4-13.901-7.805-15.034-15.5L34.292,10.788l-11.023,62.884Z" fill="#000000" id="Ep8oT2Wu-DSfw8OHrAVtZ" />
    </g>
    <g id="AQryW3EMAnAuGmOtATOsk">
      <path d="M29.978,166.772c.064,13.842-10.763,25.103-24.418,25.915l.326,73.207,74.926-.337c-.022-.295-.091-.578-.093-.882-.033-7.442,5.978-13.506,13.42-13.539,7.442-.033,13.505,5.973,13.538,13.415.002.304-.065.59-.086.887l297.409-1.333-.325-73.087c-14.239-.045-25.806-11.554-25.867-25.815-.067-14.265,11.393-25.869,25.631-26.046l-.325-73.087-297.403,1.332c-.392,7.06-6.174,12.699-13.339,12.729-7.165.036-12.992-5.55-13.451-12.608l-74.92.336.326,73.207c13.666.684,24.59,11.848,24.652,25.707Z" fill="#55B8F9" id="JiKTp_BwuMatauKgd26o_" />
      <path d="M5.886,270.894c-1.318,0-2.583-.521-3.52-1.449-.942-.933-1.474-2.203-1.48-3.529l-.326-73.207c-.012-2.655,2.053-4.856,4.703-5.013,11.107-.661,19.767-9.842,19.715-20.901h0c-.049-11.072-8.791-20.181-19.902-20.737-2.652-.133-4.738-2.316-4.75-4.971L0,67.881c-.012-2.761,2.216-5.01,4.978-5.022l74.92-.336c2.632-.013,4.84,2.037,5.012,4.675.29,4.456,3.974,7.933,8.395,7.933.014,0,.028,0,.042,0,4.448-.019,8.124-3.536,8.372-8.007.147-2.641,2.325-4.71,4.97-4.722l297.403-1.332c1.297-.006,2.601.515,3.542,1.449.942.934,1.475,2.203,1.48,3.529l.325,73.087c.012,2.746-2.192,4.988-4.938,5.022-11.464.142-20.747,9.573-20.693,21.023.049,11.455,9.417,20.802,20.883,20.838,2.747.009,4.972,2.231,4.984,4.978l.325,73.087c.012,2.761-2.216,5.01-4.978,5.022l-297.409,1.333c-1.391.015-2.725-.569-3.676-1.586-.951-1.018-1.434-2.386-1.333-3.775.016-.219.042-.434.07-.65v-.003c-.102-4.605-3.909-8.349-8.513-8.287-2.264.01-4.389.902-5.985,2.511-1.559,1.573-2.428,3.645-2.457,5.851.038.274.062.479.078.687.103,1.383-.373,2.746-1.314,3.765-.941,1.018-2.263,1.6-3.65,1.606l-74.926.337h-.022ZM10.579,197.035l.285,63.836,65.295-.293c.747-3.366,2.428-6.461,4.916-8.97,3.475-3.506,8.107-5.449,13.042-5.471,8.78.01,16.169,6.075,18.08,14.281l287.781-1.289-.282-63.526c-14.598-2.424-25.822-15.14-25.888-30.377-.071-15.233,11.037-28.049,25.611-30.606l-.282-63.527-288.312,1.291c-2.41,7.399-9.337,12.713-17.432,12.747-.03,0-.062,0-.092,0-8.048,0-14.979-5.24-17.447-12.59l-65.831.295.285,63.835c14.097,2.899,24.604,15.309,24.671,30.078h0c.068,14.759-10.326,27.257-24.399,30.286Z" fill="#000000" id="g7nUMtYFQ9dVNlrm1ekSP" />
    </g>
    <path d="M348.437,101.285l2.07,127.937-213.333.953.264-128.135,210.999-.755Z" fill="#F4F4F4" id="ct1tvSYX75xVTlp9R7-6F" />
    <g id="Dh7IcWBqme9DIGiXM2sB8">
      <rect x="89.462" y="77.914" width="10" height="4.5" fill="#000000" id="pAzpsWYRoGmCZS0qmfPsG" />
      <path d="M99.462,242.113h-10v-8.872h10v8.872ZM99.462,224.369h-10v-8.872h10v8.872ZM99.462,206.624h-10v-8.872h10v8.872ZM99.462,188.88h-10v-8.872h10v8.872ZM99.462,171.136h-10v-8.872h10v8.872ZM99.462,153.391h-10v-8.872h10v8.872ZM99.462,135.647h-10v-8.872h10v8.872ZM99.462,117.902h-10v-8.872h10v8.872ZM99.462,100.158h-10v-8.872h10v8.872Z" fill="#000000" id="Pq5OLBNVVE98WWJU9qcef" />
      <rect x="89.462" y="250.985" width="10" height="4.5" fill="#000000" id="mMRSDmbLwZO4GQSu3G4Km" />
    </g>
  </g></g></g></svg>