<?xml version="1.0" encoding="UTF-8"?>
<svg id="Layer_1" data-name="Layer 1" xmlns="http://www.w3.org/2000/svg" viewBox="0 0 907.325 452.126">
  <g id="sketchbook">
    <g>
      <path d="M887.581,266.071l-567.677,181.326c-6.64,2.121-13.888,1.046-19.626-2.911L10.54,244.709c-10.978-7.569-8.318-24.477,4.453-28.311L511.264,67.422c21.617-6.489,44.974-3.482,64.242,8.272l312.075,190.376Z" style="fill: #ff5300;"/>
      <path d="M313.106,452.111c-5.269,0-10.508-1.577-14.908-4.61L8.461,247.724c-6.249-4.309-9.397-11.643-8.218-19.141,1.179-7.498,6.428-13.511,13.697-15.693L510.21,63.914c22.581-6.778,47.075-3.625,67.202,8.654l312.075,190.376c1.224.747,1.9,2.139,1.729,3.562-.171,1.423-1.157,2.617-2.522,3.053l-567.677,181.326c-2.574.822-5.247,1.226-7.912,1.226ZM534.086,67.736c-7.308,0-14.643,1.054-21.77,3.194L16.046,219.906c-4.616,1.386-7.819,5.055-8.568,9.816-.749,4.761,1.173,9.236,5.141,11.972l289.737,199.776c4.771,3.289,10.912,4.2,16.433,2.437l560.039-178.886-305.23-186.201c-12.001-7.321-25.707-11.085-39.512-11.085Z"/>
    </g>
    <g>
      <path d="M828.198,263.578l-510.428,163.039c-5.97,1.907-12.487.94-17.647-2.617L39.606,244.371c-9.988-7.582-8.2-13.792-8.421-19.34-.234-5.879-.016-35.077-.016-35.077l458.663-104.992c19.437-5.835,40.438-3.131,57.763,7.438l280.603,171.177Z" style="fill: #efe6c1;"/>
      <path d="M311.66,431.225c-4.812,0-9.597-1.44-13.615-4.21L37.527,247.386c-.046-.032-.091-.064-.135-.098-10.01-7.599-9.922-14.677-9.857-19.845.01-.77.021-1.524-.009-2.267-.234-5.897-.027-34.054-.019-35.25.013-1.698,1.19-3.164,2.845-3.543l458.545-104.964c20.372-6.079,42.454-3.219,60.605,7.855l280.603,171.177c1.224.747,1.9,2.139,1.729,3.562-.17,1.423-1.156,2.617-2.522,3.053l-510.427,163.039c-2.351.751-4.792,1.12-7.226,1.12ZM41.756,241.404l260.447,179.581c4.195,2.894,9.599,3.695,14.453,2.144l502.79-160.6-273.757-167.001c-16.413-10.013-36.388-12.585-54.803-7.057-.078.023-.156.044-.235.062L34.813,192.877c-.048,7.515-.152,27.368.032,32.008.036.9.024,1.79.014,2.649-.057,4.576-.107,8.529,6.897,13.87Z"/>
    </g>
    <g>
      <path d="M887.758,205.633l-578.382,184.723c23.986,15.198,22.808,54.993,3.06,58.096l575.322-182.416c15.275-7.435,26.417-40.86,0-60.403Z" style="fill: #ff523b;"/>
      <path d="M312.432,452.115c-1.672,0-3.167-1.148-3.562-2.823-.439-1.865.632-3.752,2.458-4.332l3.943-1.25c5.179-2.738,7.087-9.188,7.711-12.2,2.505-12.082-2.099-29.527-15.567-38.061-1.202-.761-1.854-2.149-1.672-3.561.182-1.411,1.164-2.589,2.519-3.022l578.382-184.723c1.121-.359,2.345-.155,3.292.544,16.799,12.427,17.994,28.521,17.21,37.008-1.193,12.931-8.507,25.116-17.786,29.632-.161.078-.326.145-.496.198l-570.921,181.021c-1.546.735-3.198,1.249-4.939,1.522-.192.03-.383.045-.572.045ZM317.118,391.728c11.903,11.099,15.722,28.323,13.038,41.27-.5,2.412-1.218,4.644-2.13,6.669l558.356-177.037c6.88-3.501,12.527-13.373,13.471-23.606.618-6.701-.289-19.206-12.812-29.317l-569.923,182.021Z"/>
    </g>
    <g>
      <path d="M887.581,205.668l-578.204,184.688L10.54,184.306c-10.978-7.569-8.318-24.477,4.453-28.311L511.264,7.019c21.617-6.489,44.974-3.482,64.242,8.272l312.075,190.376Z" style="fill: #ff523b;"/>
      <path d="M309.376,394.019c-.734,0-1.46-.221-2.079-.647L8.461,187.321c-6.249-4.308-9.397-11.642-8.218-19.14,1.179-7.498,6.428-13.512,13.697-15.694L510.21,3.511c22.582-6.778,47.076-3.625,67.202,8.654l312.075,190.376c1.224.747,1.9,2.139,1.729,3.562-.171,1.423-1.157,2.617-2.522,3.053l-578.205,184.688c-.364.117-.74.174-1.114.174ZM534.087,7.333c-7.308,0-14.643,1.054-21.77,3.194L16.046,159.503c-4.616,1.386-7.819,5.055-8.568,9.816-.749,4.76,1.173,9.235,5.141,11.971l297.355,205.029,568.854-181.702L573.598,18.418c-12-7.321-25.706-11.085-39.511-11.085Z"/>
    </g>
    <g>
      <path d="M615.466,39.668L55.097,209.667c-3.234.981-5.494,3.9-5.634,7.276l-2.203,53.085,32.211,22.21,2.892-52.639c.183-3.338,2.435-6.204,5.635-7.171L651.87,61.876l-36.404-22.208Z" style="fill: #d98d39;"/>
      <path d="M79.472,295.901c-.73,0-1.457-.218-2.08-.647l-32.211-22.21c-1.036-.714-1.632-1.91-1.58-3.167l2.203-53.085c.204-4.926,3.512-9.198,8.23-10.629L614.403,36.163c1-.303,2.08-.166,2.97.378l36.404,22.208c1.233.752,1.909,2.158,1.726,3.59-.183,1.433-1.19,2.624-2.572,3.042L89.058,235.933c-1.719.52-2.939,2.074-3.038,3.867l-2.891,52.639c-.073,1.323-.854,2.504-2.044,3.087-.511.25-1.063.375-1.613.375ZM51.003,268.16l25.169,17.355,2.533-46.117c.267-4.858,3.575-9.068,8.231-10.477L642.975,60.74l-28.016-17.091L56.16,213.172c-1.742.528-2.962,2.104-3.038,3.923l-2.119,51.065Z"/>
    </g>
  </g>
</svg>