<svg xmlns="http://www.w3.org/2000/svg" fill="none" viewBox="0 0 3000 3000" width="3000" height="3000"><defs><clipPath id="assetClipPath_wNhvRBj8"><path d="m0 0 h 887.374 v 1172.717 h -887.374 v -1172.717 z" id="path_jVlAGWab" fill="#ffffff" /></clipPath><clipPath id="assetClipPath_FIjMgXVO"><path d="m0 0 h 1207.106 v 1636.27 h -1207.106 v -1636.27 z" id="path_l85a_Hwl" fill="#ffffff" /></clipPath><clipPath id="assetClipPath_ufsCbO0r"><path d="m0 0 h 847.134 v 964.383 h -847.134 v -964.383 z" id="path_iQGMuxOl" fill="#ffffff" /></clipPath><clipPath id="assetClipPath_rehRznwO"><path d="m0 0 h 1032.719 v 1543.333 h -1032.719 v -1543.333 z" id="path_ZESivMr0" fill="#ffffff" /></clipPath><clipPath id="assetClipPath_AxhO31xL"><path d="m0 0 h 1611.887 v 756.822 h -1611.887 v -756.822 z" id="path_Zgyhr3LK" fill="#ffffff" /></clipPath><clipPath id="assetClipPath_FBySS9jN"><path d="m0 0 h 1372.913 v 1326.571 h -1372.913 v -1326.571 z" id="path_sbnlfSZ_" fill="#ffffff" /></clipPath><clipPath id="assetClipPath_uCK13gFH"><path d="m0 0 h 558.211 v 403.722 h -558.211 v -403.722 z" id="path_VXvoCyTH" fill="#ffffff" /></clipPath></defs><g transform="translate(1943 778)" data-asset-index="0"><g clip-path="url(#assetClipPath_wNhvRBj8)" transform="scale(0.9984516111583165 0.9984516111583165)" data-asset-index="0"><g id="Book_6">
    <g id="RHmCRkIbNlKlksOxZMYGJ">
      <polygon points="209.937 13.194 209.937 956.448 873.569 1043.296 873.569 100.041 209.937 13.194" fill="#192D4F" id="kBNNxGnidogHaun-THyj1" />
      <path d="M873.569,1045.796c-.108,0-.217-.007-.325-.021l-663.632-86.848c-1.245-.162-2.176-1.224-2.176-2.479V13.194c0-.72.31-1.404.851-1.879.541-.475,1.262-.695,1.973-.6l663.632,86.848c1.245.162,2.176,1.224,2.176,2.479v943.255c0,.72-.31,1.404-.851,1.879-.458.402-1.045.621-1.648.621ZM212.437,954.254l658.632,86.193V102.236L212.437,16.042v938.212Z" fill="#000000" id="LdMd7ss9SintQV9trbiEI" />
    </g>
    <g id="GFhJyaFdi_91nGi0Gwv8d">
      <g id="D1ZZBwPZEuYz6D0VBNb9S">
        <polygon points="682.192 281.816 15.519 136.552 209.099 26.198 870.41 111.695 682.192 281.816" fill="#E8C68C" id="qDKL5BHYWwBBUVMjg_8iF" />
        <path d="M682.192,284.316c-.177,0-.355-.019-.532-.058L14.987,138.994c-1.011-.22-1.782-1.041-1.939-2.064s.333-2.037,1.233-2.55L207.861,24.026c.472-.269,1.021-.377,1.559-.308l661.312,85.497c.967.125,1.774.802,2.065,1.733.291.931.014,1.946-.71,2.601l-188.218,170.121c-.464.42-1.063.646-1.676.646ZM22.419,135.496l659.05,143.604,183.24-165.622L209.609,28.784,22.419,135.496Z" fill="#000000" id="ZR0yggP6C1_VlfinOAnM8" />
      </g>
      <g id="PqvQxXqSUz-X00Im2V_7B">
        <path d="M847.426,1039.875s-53.401,17.502-101.842,56.794c-51.669,41.911-84.149,64.595-84.149,64.595l16.92-940.024s29.593-32.439,81.012-67.233c52.259-35.363,111.043-42.312,111.043-42.312l-22.984,928.18Z" fill="#CFA765" id="LtaNl0r-HBZSA2JHITUOC" />
        <path d="M661.435,1163.764c-.403,0-.807-.097-1.176-.294-.829-.441-1.341-1.312-1.324-2.251l16.919-940.024c.011-.608.243-1.19.652-1.64.298-.327,30.384-33.058,81.458-67.618,52.159-35.296,111.557-42.654,112.15-42.725.719-.088,1.441.146,1.977.635.536.488.833,1.185.815,1.909l-22.984,928.18c-.026,1.058-.715,1.984-1.72,2.314-.53.174-53.548,17.832-101.046,56.36-51.147,41.488-83.966,64.476-84.292,64.703-.428.299-.929.45-1.432.45ZM680.837,222.243l-16.813,934.109c10.215-7.338,39.263-28.594,79.985-61.625,43.453-35.247,91.465-53.287,100.96-56.649l22.868-923.488c-12.359,1.93-62.427,11.278-107.069,41.487-46.488,31.457-75.364,61.321-79.931,66.166ZM847.426,1039.874h.01-.01Z" fill="#000000" id="FEcxRefcXfyxtnP3tmFs1" />
      </g>
    </g>
    <g id="BTtW52TIPdtEH5FjhEetM">
      <path d="M34.136,115.828s-22.626,12.411-28.604,17.069c-7.495,5.84,1.263,8.559,1.263,8.559l663.631,86.848v941.166l11.765-10.482,8.257-949.864L34.136,115.828Z" fill="#3B6DF2" id="yihIK12t9PS49jZyI5NuD" />
      <path d="M670.427,1171.969c-.346,0-.694-.071-1.022-.219-.898-.403-1.477-1.296-1.477-2.281V230.497L6.471,143.934c-.141-.019-.28-.049-.417-.091-.537-.167-5.267-1.74-5.97-5.594-.453-2.484.863-4.949,3.912-7.324,6.066-4.728,28.007-16.778,28.938-17.289.474-.259,1.018-.358,1.554-.283l656.312,93.295c1.24.177,2.159,1.244,2.148,2.497l-8.257,949.863c-.006.706-.31,1.376-.837,1.845l-11.765,10.482c-.467.416-1.062.634-1.664.634ZM7.363,139.008l663.389,86.816c1.245.162,2.176,1.224,2.176,2.479v935.59l6.774-6.036,8.228-946.566L34.611,118.421c-3.907,2.158-22.382,12.427-27.542,16.447-1.798,1.401-2.102,2.284-2.066,2.483.08.449,1.238,1.253,2.36,1.656Z" fill="#000000" id="CC9nY4Ixkj_O5EkHgxVw-" />
    </g>
    <g id="ubEtGxynTRhUXdozbRpHv">
      <polygon points="670.427 1169.469 6.795 1082.621 2.5 139.209 670.427 228.303 670.427 1169.469" fill="#3B6DF2" id="XMsSykhsuGpXQwHhlRO8y" />
      <path d="M670.427,1171.969c-.108,0-.216-.007-.324-.021L6.471,1085.1c-1.241-.162-2.17-1.216-2.176-2.467L0,139.22c-.003-.723.306-1.412.849-1.889.543-.478,1.265-.695,1.981-.602l667.927,89.096c1.242.165,2.169,1.225,2.169,2.478v941.166c0,.72-.31,1.404-.851,1.879-.458.402-1.046.621-1.649.621ZM9.285,1080.426l658.642,86.194V230.492L5.013,142.066l4.272,938.36Z" fill="#000000" id="M81LKjiQQpzfR3iISSZ5s" />
    </g>
    <g id="bpC0AVtm8fYCiZ_yhYgfp">
      <g id="HPPdrKU5v9gbZ8Zw-w2QC">
        <path d="M867.561,87.707L221.215,3.122c-1.95-.22-3.953-.428-6.004-.622-1.433.627-2.808,1.379-4.076,2.285-2.766,1.976-4.931,4.966-4.501,8.497,1.119.089,2.227.17,3.362.272l652.751,86.78c-6.269,44.929-67.246,97.608-172.298,108.789l-20.022,19.18c92.819-4.005,174.188-47.656,203.189-97.264v912.256l11.23-9.916V97.266c.028-10.774-17.286-9.559-17.286-9.559Z" fill="#3B6DF2" id="k6C8oSLfMhGSADk_UiWP4" />
        <path d="M873.616,1045.796c-.348,0-.698-.072-1.027-.221-.896-.404-1.472-1.296-1.472-2.279V139.59c-15.563,22.431-41.511,43.307-74.053,59.423-38.103,18.868-81.855,29.86-126.528,31.788-1.025.025-1.998-.56-2.407-1.517-.409-.957-.182-2.066.57-2.787l20.021-19.18c.399-.382.915-.622,1.465-.681,48.206-5.131,90.404-19.415,122.035-41.309,26.386-18.264,43.607-41.035,47.648-62.855L209.721,16.039c-.764-.068-1.517-.127-2.269-.186l-1.018-.08c-1.184-.096-2.138-1.011-2.282-2.19-.49-4.023,1.526-7.972,5.53-10.832,1.342-.959,2.865-1.814,4.526-2.541.389-.17.812-.235,1.237-.199,2.066.195,4.084.404,6.049.626l646.158,84.561c1.764-.082,11.375-.326,16.462,4.428,2.122,1.983,3.24,4.628,3.232,7.647v936.107c0,.717-.308,1.399-.845,1.874l-11.23,9.916c-.466.411-1.057.626-1.655.626ZM873.617,128.539c.217,0,.437.028.654.087,1.089.295,1.846,1.284,1.846,2.413v906.714l6.23-5.501V97.266c.004-1.666-.517-2.93-1.641-3.982-3.235-3.031-10.461-3.253-12.973-3.082-.165.012-.333.008-.497-.016L220.891,5.6c-1.686-.189-3.449-.374-5.254-.548-1.118.526-2.141,1.119-3.048,1.768-.897.641-2.682,2.127-3.295,4.165.307.025.615.052.925.079.036.003.071.007.107.012l652.75,86.78c.66.088,1.258.436,1.661.966.403.529.578,1.198.486,1.858-6.483,46.461-68.201,99.364-173.66,110.838l-14.54,13.929c41.646-2.659,82.245-13.297,117.822-30.915,35.177-17.42,62.386-40.417,76.614-64.754.456-.78,1.286-1.238,2.158-1.238Z" fill="#000000" id="LMFPTWcClKFi0LuLcSVob" />
      </g>
      <g id="Aq7JzVjXwPIoWLSn2gSQo">
        <path d="M884.847,1030.969V95.919s-3.971,52.015-69.733,90.745c-73.673,43.389-144.687,41.639-144.687,41.639v941h0v.166s63.32,10.011,149.753-43.184c44.531-27.406,65.567-77.044,64.667-95.316Z" fill="#3B6DF2" id="UFBVg2U4tycAZ_dlqC0bc" />
        <path d="M683.79,1172.728c-8.581,0-13.395-.732-13.754-.789-1.215-.192-2.109-1.239-2.109-2.47V228.303c0-.674.272-1.318.754-1.789s1.117-.738,1.807-.71c.703.017,71.202,1.2,143.357-41.294,33.328-19.628,50.177-42.72,58.443-58.636,8.955-17.241,10.056-30.021,10.066-30.148.106-1.338,1.254-2.362,2.591-2.303,1.341.053,2.401,1.154,2.401,2.496v934.989c.901,19.367-20.879,69.824-65.856,97.506-45.003,27.696-83.688,38.062-108.215,41.881-12.25,1.907-22.219,2.433-29.485,2.433ZM672.927,1167.237c11.633,1.08,70.081,3.607,145.942-43.08,24.469-15.06,39.896-35.626,48.528-50.227,10.88-18.402,15.35-34.774,14.952-42.838-.002-.041-.003-.082-.003-.123V115.622c-1.404,3.727-3.197,7.862-5.484,12.292-8.557,16.574-25.996,40.595-60.48,60.904-65.622,38.646-129.985,41.763-143.455,41.976v936.442Z" fill="#000000" id="Vhmc49w3GNr4AyXUX56Y" />
      </g>
    </g>
  </g></g></g><g transform="translate(1320 587)" data-asset-index="1"><g clip-path="url(#assetClipPath_FIjMgXVO)" transform="scale(0.9982553313462115 0.9982553313462115)" data-asset-index="1"><g id="Book_5">
    <g id="LZZpZ3fVgEcoV7tUZjYgu">
      <path d="M31.816,1517.89l19.468,2.548c2.387-5.046,4.79-10.084,7.213-15.113l-1.448-.189h0c-22.878-3.47-35.105-5.139-36.488-20.15-1.443-15.673,13.666-31.268,32.05-38.866,11.725-4.846,25.448-6.662,40.046-6.899,1.014-1.798,2.01-3.606,3.039-5.397,1.836-3.196,3.702-6.375,5.586-9.544-19.049.404-37.28,3.308-54.071,9.619-27.284,10.255-46.07,32.35-44.635,57.538.71,12.468,16.941,24.282,29.239,26.454Z" fill="#CFA765" id="h6a0UTZvpMEURiiXmK1nt" />
      <path d="M51.285,1522.938c-.108,0-.216-.007-.325-.021l-19.468-2.548c-.037-.005-.074-.01-.11-.017-12.512-2.21-30.472-14.226-31.301-28.773-1.444-25.357,16.71-48.916,46.251-60.02,16.118-6.059,34.588-9.349,54.897-9.778.917-.047,1.755.455,2.213,1.24.457.785.453,1.756-.012,2.537-2.033,3.418-3.854,6.529-5.566,9.511-.652,1.136-1.292,2.278-1.931,3.422l-1.099,1.958c-.436.772-1.249,1.257-2.137,1.271-16.037.261-28.837,2.455-39.132,6.71-16.21,6.699-31.897,21.329-30.516,36.326,1.129,12.254,9.499,14.137,33.535,17.78l2.236.31c.795.104,1.493.583,1.874,1.289.382.706.402,1.552.053,2.274-2.42,5.024-4.82,10.057-7.205,15.098-.417.882-1.303,1.431-2.259,1.431ZM32.197,1515.418l17.606,2.305c1.646-3.473,3.299-6.941,4.961-10.405-21.946-3.331-35.172-5.594-36.692-22.103-1.678-18.219,16.233-34.234,33.584-41.406,10.571-4.368,23.511-6.682,39.521-7.06l.392-.7c.649-1.159,1.297-2.319,1.959-3.471,1.048-1.824,2.135-3.695,3.286-5.654-17.962.778-34.334,3.906-48.723,9.314-27.45,10.317-44.336,31.928-43.018,55.055.615,10.803,15.327,22.016,27.124,24.125Z" fill="#000000" id="lQRR63weZzhDR_wv2h2I0" />
    </g>
    <g id="vMOwffM8Eu_88Sy7FKYW">
      <path d="M15.105,143.754L2.5,1488.893s-.154,9.731,8.263,17.75c8.108,7.725,21.053,11.247,21.053,11.247l508.63-28.997V140.784l-525.342,2.97Z" fill="#FF5300" id="xtFw2TqSGAXndBIwYxC9b" />
      <path d="M31.816,1520.39c-.221,0-.442-.029-.656-.088-.554-.15-13.652-3.781-22.121-11.849C-.067,1499.778-.007,1489.295,0,1488.853L12.605,143.731c.013-1.366,1.12-2.469,2.486-2.477l525.342-2.97h.014c.661,0,1.294.262,1.763.728.472.469.737,1.107.737,1.772v1348.108c0,1.325-1.035,2.421-2.358,2.496l-508.63,28.997c-.047.003-.095.004-.142.004ZM17.581,146.24L5,1488.916c0,.093.023,8.806,7.487,15.917,6.798,6.477,17.489,9.901,19.613,10.536l505.846-28.838V143.299l-520.365,2.941Z" fill="#000000" id="e8KAfP1hASJghdGlwf_Gw" />
    </g>
    <g id="Mk22AQ7FXEEpVkAGUMhTO">
      <path d="M15.105,143.754s31.338-57.34,89.591-90.447C169.99,16.199,261.681,8.654,261.681,8.654l67.511,9.92,211.255,118.909v3.301L31.816,189.89l-16.711-46.136Z" fill="#E6332A" id="wroAHwjGfAlrm_Uzy5y3" />
      <path d="M31.815,192.39c-1.043,0-1.988-.652-2.349-1.648l-16.711-46.136c-.244-.675-.187-1.421.157-2.051.317-.579,32.353-58.346,90.55-91.422C168.483,14.179,260.553,6.238,261.476,6.162c.19-.015.381-.009.568.018l67.511,9.919c.303.045.596.145.863.295l211.255,118.909c.787.443,1.274,1.275,1.274,2.179v3.302c0,1.288-.978,2.364-2.26,2.488L32.056,192.378c-.081.008-.162.012-.242.012ZM17.848,143.987l15.658,43.228,503.788-48.638L328.369,20.98l-66.762-9.81c-5.633.506-93.395,8.914-155.676,44.311-52.824,30.021-83.664,80.878-88.083,88.507Z" fill="#000000" id="pzi_FhgDrebuuatzYA4F-" />
    </g>
    <g id="hOzI6Hp9pBZYE4PrD01dF">
      <path d="M33.947,175.215l19.968,11.607,237.032-87.55,11.081-63.329C197.685,57.18,94.281,111.964,33.947,175.215Z" fill="#7C8EA3" id="qK8z9FttECfqoXOBSEi_2" />
      <path d="M53.915,189.322c-.436,0-.87-.114-1.256-.339l-19.968-11.607c-.662-.385-1.111-1.052-1.219-1.81s.138-1.523.666-2.077c30.029-31.48,70.897-61.178,118.189-85.881,47.889-25.017,100.173-43.729,151.202-54.116.808-.165,1.649.081,2.242.658s.862,1.409.719,2.223l-11.081,63.329c-.153.877-.761,1.606-1.596,1.914L54.781,189.167c-.281.104-.574.155-.866.155ZM37.959,174.655l16.194,9.414,234.579-86.645,10.198-58.287C199.803,60.073,98.128,112.874,37.959,174.655Z" fill="#000000" id="L6dXw0njzWStdkevnseLo" />
    </g>
    <g id="fn5wEb0rnqorHVmiWyRD5">
      <polygon points="303.147 18.574 303.147 1278.453 1189.542 1394.453 1189.542 134.574 303.147 18.574" fill="#E6332A" id="M-L0hGOntJfGbrSwV9hRc" />
      <path d="M1189.542,1396.953c-.108,0-.216-.007-.324-.021l-886.395-116c-1.245-.162-2.176-1.223-2.176-2.479V18.573c0-.72.31-1.404.851-1.879.541-.475,1.262-.692,1.974-.6l886.395,116c1.245.162,2.176,1.224,2.176,2.479v1259.88c0,.72-.31,1.404-.851,1.879-.458.402-1.046.621-1.649.621ZM305.647,1276.259l881.395,115.346V136.768L305.647,21.422v1254.837Z" fill="#000000" id="tyOC_L6U5Slmnh38gTEzo" />
    </g>
    <g id="QlUUY2ti4OXy-fR_AAWQ_">
      <g id="rlq8brEXn9bbJES9TrKk5">
        <polygon points="933.925 377.365 43.468 183.34 302.028 35.943 1154.624 150.139 933.925 377.365" fill="#EFE6C1" id="cNfC2jWYF6Bw87hpDFtdj" />
        <path d="M933.924,379.865c-.177,0-.355-.019-.532-.058L42.936,185.782c-1.011-.22-1.783-1.041-1.939-2.064-.157-1.023.333-2.037,1.233-2.55L300.789,33.771c.476-.271,1.025-.38,1.57-.306l852.596,114.197c.936.125,1.721.767,2.03,1.659s.089,1.883-.569,2.561l-220.699,227.227c-.476.489-1.125.758-1.793.758ZM50.368,182.284l882.731,192.343,216.272-222.669L302.532,38.532,50.368,182.284Z" fill="#000000" id="gYxQpfDGgU8i-xc2AdFf" />
      </g>
      <g id="VWWb8JP64GANBHyviooV">
        <path d="M1154.624,1389.884s-71.327,23.377-136.027,75.858c-69.013,55.98-112.878,136.676-112.878,136.676l12.493-1303.892s20.158-45.399,88.837-91.873c69.801-47.233,147.576-56.515,147.576-56.515v1239.745Z" fill="#EFE6C1" id="Een3LPQMnCBlJZawMRICA" />
        <path d="M905.719,1604.918c-.208,0-.419-.025-.628-.08-1.111-.288-1.883-1.296-1.873-2.444l12.493-1303.891c.003-.342.077-.679.215-.991.835-1.88,21.236-46.587,89.721-92.929,69.5-47.028,147.897-56.833,148.681-56.927.714-.086,1.422.138,1.956.613.534.474.84,1.154.84,1.869v1239.745c0,1.08-.694,2.039-1.721,2.376-.709.232-71.66,23.857-135.231,75.424-67.843,55.031-111.82,135.126-112.256,135.929-.445.818-1.297,1.306-2.196,1.306ZM920.706,299.097l-12.396,1293.865c13.228-22.106,53.009-83.978,108.712-129.161,58.768-47.67,123.778-71.727,135.102-75.701V153.018c-14.487,2.203-82.576,14.362-143.675,55.706-63.589,43.03-85.42,85.567-87.743,90.373ZM1154.624,1389.884h.01-.01Z" fill="#000000" id="ctN9d5N9DEq2sfpBbuXMG" />
      </g>
    </g>
    <g id="VUlIesIIDBlM8Ifi-0Mah">
      <path d="M318.211,5.121C261.723-1.247,172.889-.582,79.045,61.328-17.397,124.952,19.518,187.718,31.816,189.89l886.395,116v1327.88l15.713-14V291.89L57.049,177.135h0c-28.344-4.157-33.269-32.06-6.476-66.175,23.429-29.832,76.717-62.736,147.339-84.245,28.596-8.709,62.736-11.472,105.314-7.661l886.379,116.066v1259.333l15-13.245V121.121L318.211,5.121Z" fill="#FF523B" id="qg_BJKxtZDP0mPSQeSFMw" />
      <path d="M918.211,1636.27c-.346,0-.694-.071-1.022-.219-.898-.403-1.477-1.296-1.477-2.281V308.084L31.492,192.368c-.037-.005-.074-.01-.111-.017-6.167-1.089-14.813-11.873-18.027-27.397-2.192-10.586-2.669-27.438,7.507-47.605,10.354-20.521,29.467-40.071,56.808-58.108C119.633,31.556,164.899,13.36,212.209,5.157c34.105-5.914,68.87-6.738,106.281-2.521.015.002.03.004.044.005l886.395,116c1.245.162,2.176,1.223,2.176,2.479v1260.088c0,.717-.308,1.399-.845,1.874l-15,13.245c-.737.651-1.785.81-2.683.405-.896-.404-1.472-1.296-1.472-2.279V137.315L302.954,21.54c-41.336-3.694-75.462-1.22-104.313,7.567-65.351,19.904-121.333,51.86-146.101,83.397-14.64,18.641-20.277,36.243-15.468,48.294,3.018,7.561,10.051,12.354,20.34,13.863l876.837,114.75c1.244.162,2.175,1.224,2.175,2.479v1327.879c0,.713-.305,1.393-.837,1.866l-15.713,14.001c-.467.416-1.062.634-1.664.634ZM32.204,187.419l886.331,115.992c1.245.162,2.176,1.224,2.176,2.479v1322.304l10.713-9.546V294.084L56.725,179.613c-12.019-1.762-20.634-7.784-24.297-16.962-5.488-13.752.409-33.155,16.179-53.235,25.368-32.301,82.299-64.906,148.577-85.092,29.49-8.982,64.249-11.52,106.266-7.759.034.002.068.006.102.011l886.379,116.065c1.245.163,2.175,1.224,2.175,2.479v1253.79l10-8.83V123.315L317.909,7.603C230.037-2.301,152.358,15.957,80.421,63.414c-26.603,17.551-45.14,36.455-55.097,56.188-9.526,18.88-9.105,34.532-7.075,44.339,2.952,14.254,10.619,22.822,13.955,23.479Z" fill="#000000" id="lIC01t0QxSr1S10qMOe_c" />
    </g>
    <g id="wvS_JpCXqZdCbu6tu5a_">
      <polygon points="918.211 1633.77 31.816 1517.77 31.816 189.89 918.211 305.89 918.211 1633.77" fill="#FF5300" id="cThx0Ect3bddTWzNR7xsV" />
      <path d="M918.211,1636.27c-.108,0-.216-.007-.325-.021L31.492,1520.248c-1.245-.162-2.176-1.223-2.176-2.479V189.89c0-.72.31-1.404.851-1.879.541-.475,1.262-.695,1.973-.6l886.395,116c1.245.162,2.176,1.224,2.176,2.479v1327.88c0,.72-.31,1.404-.851,1.879-.458.402-1.045.621-1.649.621ZM34.316,1515.575l881.395,115.346V308.084L34.316,192.738v1322.837Z" fill="#000000" id="MHouRs5XeiXqBLSW0OW3" />
    </g>
    <g id="YDVHdJnsyLRs_F1cGd7Yv">
      <path d="M761.788,830.096l-573.55-75.059v-222.132c0-30.191,26.553-53.495,56.488-49.577l447.442,58.556c39.83,5.212,69.619,39.154,69.619,79.324v208.888Z" fill="#FFA7B7" id="WwVpt_dw6evuAJWW8N6fS" />
      <path d="M761.788,832.597c-.108,0-.216-.007-.324-.021l-573.549-75.06c-1.245-.162-2.176-1.224-2.176-2.479v-222.131c0-15.11,6.513-29.492,17.869-39.459,11.355-9.966,26.458-14.56,41.443-12.597l447.442,58.555c40.93,5.356,71.795,40.524,71.795,81.803v208.889c0,.72-.31,1.404-.851,1.879-.458.402-1.046.621-1.649.621ZM190.739,752.843l568.549,74.405v-206.04c0-38.777-28.995-71.813-67.443-76.846l-447.442-58.555c-13.558-1.771-27.222,2.38-37.496,11.397-10.275,9.018-16.167,22.03-16.167,35.701v219.937Z" fill="#000000" id="lMDTH9IuLQD6J_VqO21GJ" />
    </g>
    <g id="f1eXU3Sn3J3RQOpvUJFtP">
      <g id="Iw8RW60sUycJP5xFzd3fC">
        <path d="M1106.384,1128.128c-1.381,0-2.5-1.119-2.5-2.5V334.437c0-1.381,1.119-2.5,2.5-2.5s2.5,1.119,2.5,2.5v791.191c0,1.381-1.119,2.5-2.5,2.5Z" fill="#000000" id="cVX6C4A1Tfud28oK_7tSP" />
        <path d="M1004.448,1278.534c-1.381,0-2.5-1.119-2.5-2.5v-663.938c0-1.381,1.119-2.5,2.5-2.5s2.5,1.119,2.5,2.5v663.938c0,1.381-1.119,2.5-2.5,2.5Z" fill="#000000" id="uNf10PlDgIf6b7f4O0YxJ" />
        <path d="M1029.256,779.805c-1.381,0-2.5-1.119-2.5-2.5v-353.299c0-1.381,1.119-2.5,2.5-2.5s2.5,1.119,2.5,2.5v353.299c0,1.381-1.119,2.5-2.5,2.5Z" fill="#000000" id="fCVJURbfhg1nPncASGEeh" />
        <path d="M1061.559,1437.268c-1.381,0-2.5-1.119-2.5-2.5v-248.803c0-1.381,1.119-2.5,2.5-2.5s2.5,1.119,2.5,2.5v248.803c0,1.381-1.119,2.5-2.5,2.5Z" fill="#000000" id="j3fKTXqv_V0vweHdeJyw6" />
      </g>
      <path d="M1014.63,173.669c-.103,0-.207-.006-.312-.02L332.767,88.898c-1.37-.17-2.343-1.419-2.172-2.789.17-1.37,1.412-2.351,2.79-2.172l681.551,84.752c1.37.17,2.343,1.419,2.172,2.789-.157,1.266-1.235,2.191-2.478,2.191Z" fill="#000000" id="cwKpzMqqez0zp5Ousry8C" />
      <path d="M666.134,175.893c-.107,0-.215-.007-.325-.021l-492.999-63.971c-1.369-.178-2.335-1.432-2.157-2.801.177-1.369,1.425-2.329,2.801-2.158l492.999,63.971c1.369.178,2.335,1.432,2.157,2.801-.163,1.261-1.238,2.179-2.476,2.179Z" fill="#000000" id="RFCoaDbEaixFu8y5tAbZG" />
      <path d="M850.694,233.17c-.111,0-.224-.007-.337-.022l-251.645-33.941c-1.369-.185-2.328-1.443-2.144-2.812s1.444-2.332,2.812-2.144l251.645,33.941c1.369.185,2.328,1.443,2.144,2.812-.169,1.255-1.242,2.166-2.475,2.166Z" fill="#000000" id="ygxrDPtB7kmt4QIBqP75P" />
    </g>
  </g></g></g><g transform="translate(1460 1312)" data-asset-index="2"><g clip-path="url(#assetClipPath_ufsCbO0r)" transform="scale(0.9939395656413271 0.9939395656413271)" data-asset-index="2"><g id="A_man_holds_a_book">
    <g id="Vn5r8V9nOi7xhVlot6ZMI">
      <g id="QhlNViLH0jkdyaaePdCjE">
        <path d="M783.069,227.877s28.854-18.07,31.583-46.505c9.018-4.561,27.678-17.335,29.941-27.83,0,0,.831-10.495-5.042-11.697,0,0,5.307-7.604,3.294-14.277-2.015-6.679-9.881-6.207-9.881-6.207,0,0-2.703-18.104-18.311-11.588,0,0-25.618,19.39-30.217,22.48,7.926-22.48-4.611-26.73-4.611-26.73,0,0-5.088-.885-9.455,4.301-5.547,6.586-13.06,13.713-31.219,25.359-20.937,13.428-22.594,43.4-22.594,43.4,0,0,5.687,29.181,66.513,49.293Z" fill="#FCDABE" id="yfJcAsKfnKwRJtldgImv9" />
        <path d="M783.4,230.62l-1.116-.369c-61.508-20.338-67.938-49.938-68.182-51.189l-.06-.305.017-.311c.07-1.276,1.978-31.408,23.74-45.366,18.566-11.906,25.706-18.987,30.657-24.865,5.233-6.214,11.529-5.201,11.796-5.154l.374.095c.457.155,4.534,1.662,7.052,6.843,2.07,4.257,2.44,9.63,1.114,16.032,8.964-6.607,24.153-18.101,24.351-18.25l.253-.192.293-.122c5.14-2.146,9.664-2.153,13.444-.02,4.915,2.771,7.036,8.435,7.854,11.492,3.616.417,8.58,2.368,10.251,7.908,1.59,5.273-.559,10.822-2.169,13.936,3.673,2.886,4.319,9.119,4.015,12.958l-.048.33c-2.403,11.148-20.512,23.804-30.046,28.903-3.552,28.528-31.393,46.271-32.595,47.023l-.996.624ZM719.078,178.371c.801,2.883,9.359,28.486,63.62,46.747,4.919-3.396,27.165-20.006,29.466-43.984l.132-1.371,1.229-.622c8.945-4.523,26.422-16.738,28.587-25.958.112-1.965-.093-8.281-3.061-8.888l-3.725-.762,2.176-3.118c.043-.062,4.583-6.714,2.951-12.125-1.428-4.731-7.277-4.438-7.338-4.434l-2.285.137-.338-2.264c-.01-.067-1.18-7.33-5.83-9.938-2.303-1.292-5.25-1.234-8.761.171-2.86,2.164-25.663,19.403-30.072,22.365l-6.259,4.206,2.507-7.112c2.876-8.156,3.258-14.808,1.105-19.237-1.36-2.796-3.381-3.929-3.985-4.216-.826-.053-4.006.01-6.917,3.466-5.204,6.179-12.656,13.587-31.782,25.853-18.449,11.833-21.149,37.76-21.421,41.083Z" fill="#000000" id="RcpG6q7xB9VAbHkjSH7lR" />
      </g>
      <rect x="792.352" y="131.591" width="44.602" height="5" transform="translate(69.182 488.933) rotate(-34.801)" fill="#000000" id="iZP9m6QMCNVt5AhDlJIQ" />
      <rect x="808.134" y="149.026" width="34.4" height="5" transform="translate(57.816 490.72) rotate(-34.246)" fill="#000000" id="CVRg7nBrOiUKU28BDzd8g" />
      <path d="M764.23,178.667l-4.01-2.986c.216-.294,5.262-7.315,2.451-16.693-.627-2.092-.674-4.221-.136-6.156.718-2.581,2.562-5.983,7.276-7.533,5.332-1.751,15.189-10.375,14.334-30.481l4.995-.213c.982,23.097-11.193,33.284-17.769,35.444-2.128.7-3.443,2.048-4.02,4.122-.285,1.025-.248,2.194.108,3.381,3.552,11.854-2.952,20.742-3.23,21.114Z" fill="#000000" id="O96HVOK1BUQB71Pw5oSb" />
    </g>
    <g id="owRb9xoHrJpiDVSF_v27q">
      <g id="K5_weSQl7L4g-CfVsVeBK">
        <g id="niFNdBqotrHEHOZ40H0sv">
          <path d="M636.553,916.745l-251.49,10.185c-7.08,21.519-3.441,29.19,2.846,31.515,3.254,1.203,31.783,1.242,63.965,1.078,2.194-.011,6.627-.036,6.627-.036,0,0,42.82-.298,59.827-.277,5.822.007,11.075.038,15.528.102,20.255.292,74.953.659,84.77-2.436,28.81-9.082,22.564-33.578,17.928-40.131Z" fill="#F4F4F4" id="NAlOLmKkKUyCXBIBoSmmZ" />
          <path d="M428.541,962.269c-27.626,0-39.07-.391-41.561-1.312-14.204-5.253-6.871-27.54-4.461-34.864l.581-1.764,254.799-10.318.84,1.188c3,4.239,6.481,14.753,3.058,24.922-2.106,6.257-7.697,14.686-22.366,19.31-10.677,3.366-68.229,2.812-85.614,2.56-4.175-.061-9.243-.094-15.493-.103-16.803-.024-59.376.274-59.805.277l-6.632.036c-8.825.045-16.572.068-23.345.068ZM387.04,929.53c-4.789,15.311-4.187,24.191,1.797,26.404,3.849,1.213,45.315,1.002,63.022.911l6.625-.036c.425-.003,43.012-.312,59.845-.277,6.274.008,11.365.042,15.563.103,33.788.488,76.042.175,83.927-2.312,10.054-3.17,16.413-8.523,18.9-15.911,2.565-7.618.321-15.293-1.628-18.927l-248.052,10.045Z" fill="#000000" id="cfEtOqKUu0wdbin_WdkZ-" />
        </g>
        <g id="nBjh_-YEZv2-mAzTtDSRC">
          <path d="M502.633,845.803c19.683-.3,34.922,14.79,34.922,14.79,0,0,76.352,25.888,88.194,36.85,14.794,13.694,13.31,24.514,13.31,24.514,0,0-5.386,14.086-23.659,16.372-43.215,5.406-107.754-.207-128.307-1.646-49.073-3.435-58.361,1.262-102.031-9.754-13.424-21.824,5.491-66.614,5.491-66.614,0,0-6.427-11.619,7.045-14.513,9.058,12.211,22.875,23.251,37.986,24.315,45.178,3.181,60.006-17.751,67.048-24.315Z" fill="#686765" id="D1MRG5PMlCiPeuag9cpxB" />
          <path d="M570.655,943.298c-30.355,0-61.001-2.268-77.284-3.472-2.471-.183-4.642-.344-6.465-.472-15.983-1.118-27.596-1.368-37.843-1.588-21.06-.453-34.972-.752-64.656-8.24l-1.056-.267-.57-.927c-12.941-21.038,1.928-60.659,4.851-67.951-.864-2.08-2.198-6.442-.362-10.479,1.546-3.398,4.832-5.659,9.765-6.719l1.686-.362,1.027,1.385c10.146,13.677,23.613,22.365,36.023,23.238,39.263,2.771,54.944-13.323,62.48-21.055.954-.979,1.778-1.824,2.553-2.547l.754-.703,1.031-.016c18.863-.291,33.577,12.505,36.384,15.123,7.54,2.569,76.883,26.392,88.592,37.23,15.638,14.475,14.212,26.345,14.144,26.844l-.042.305-.11.287c-.244.637-6.186,15.616-25.828,18.073-13.565,1.697-29.285,2.311-45.078,2.312ZM386.807,924.607c28.35,7.073,41.938,7.366,62.372,7.806,10.308.222,21.99.473,38.102,1.601,1.829.128,4.007.289,6.486.472,24.595,1.819,82.191,6.081,121.301,1.188,15.046-1.883,20.43-12.295,21.352-14.348.039-1.648-.351-10.681-12.489-21.916-9.371-8.674-66.148-29.129-87.235-36.279l-.585-.199-.439-.435c-.14-.138-14.166-13.76-31.957-14.016-.493.488-1.033,1.042-1.625,1.649-8.099,8.309-24.947,25.597-66.692,22.66-13.493-.95-27.907-9.861-38.849-23.942-2.255.723-3.729,1.814-4.394,3.256-1.132,2.459.156,5.834.748,6.927l.612,1.131-.494,1.196c-.181.429-17.692,42.505-6.214,63.25Z" fill="#000000" id="aHMm3jehjDbuCSw6zjmmi" />
        </g>
      </g>
      <g id="bHYTNxx-aKUpIcZIAQRE">
        <path d="M521.255,568.535c-.449-.649-78.934-112.703-100.189-143.049-3.33-4.755-63.042-88.71-63.042-88.71l-139.604-15.439c-11.706,15.376-44.239,56.528-39.45,103.403,2.983,29.192,20.283,56.74,39.45,78.96,38.052,44.115,156.263,175.139,156.263,175.139,28.527,33.814,83.505,44.903,123.277,17.403,41.698-28.833,52.127-86.009,23.295-127.707Z" fill="#D98D39" id="oItZNqGMMrmy45WFbK3NH" />
        <path d="M447.047,714.192c-27.754,0-55.674-11.692-74.274-33.74-1.128-1.248-118.611-131.487-156.246-175.118-23.962-27.781-37.435-54.811-40.043-80.339-4.762-46.6,25.877-86.738,38.96-103.878l1.844-2.419,142.124,15.718.649.913c.597.84,59.755,84.017,63.053,88.725,16.649,23.771,99.729,142.384,100.198,143.062,29.57,42.764,18.836,101.614-23.929,131.185-15.512,10.726-33.887,15.893-52.335,15.893ZM219.55,323.978l-.131.172c-12.724,16.669-42.522,55.706-37.961,100.337,2.502,24.489,15.575,50.591,38.855,77.581,37.599,43.589,155.045,173.787,156.227,175.097,29.404,34.852,83.211,42.458,119.999,17.021,19.618-13.565,32.779-33.958,37.059-57.422,4.28-23.463-.833-47.189-14.398-66.807h0c-.683-.984-83.565-119.316-100.18-143.037-3.1-4.426-55.886-78.648-62.382-87.782l-137.085-15.161Z" fill="#000000" id="pC1FJ8IVpBXOM-XaDJ1ev" />
      </g>
      <path d="M537.548,620.888c.007-2.951-1.09-31.868-16.293-52.353-30.213-40.709-86.009-52.127-127.707-23.295-37.632,26.021-35.758,96.21-16.579,136.19,0,0-1.353,11.819-1.66,21.08-2.158,65.012,2.404,125.723,6.695,189.97,56.198-1.559,105.348-12.204,157.477-32.639,1.088-65.315,1.136-167.845-1.933-238.953Z" fill="#D98D39" id="jLDu3_zamRAnV7diH--IA" />
      <g id="Nk3WMHvnUs7-pb45P4DNv">
        <path d="M381.899,893.421h-2.343l-.151-2.338c-.586-9.049-1.182-17.889-1.767-26.579-3.666-54.388-6.832-101.359-4.971-157.401.158-4.759,1.385-20.491,1.725-24.799-3.536-3.935-19.029-21.172-21.337-23.736l3.717-3.345c2.608,2.898,22.057,24.538,22.057,24.538l.718.799-.085,1.071c-.016.203-1.622,20.338-1.797,25.638-1.852,55.791,1.306,102.646,4.962,156.899.536,7.942,1.079,16.01,1.616,24.248,51.364-.289,100.236-10.091,153.443-30.77,1.025-63.905.454-165.102-2.634-236.648l-.002-.114c0-.294-.359-30.05-15.801-50.856-2.695-3.631-5.222-7.314-7.666-10.877-1.182-1.723-2.342-3.414-3.487-5.048l4.096-2.868c1.154,1.647,2.323,3.352,3.514,5.088,2.418,3.525,4.919,7.17,7.558,10.726,15.992,21.546,16.757,51.962,16.785,53.767,3.118,72.273,3.673,174.727,2.609,238.592l-.028,1.675-1.559.611c-55.223,21.647-105.8,31.73-159.17,31.73Z" fill="#000000" id="qow_8TpbqZCzD0GVPlVF6" />
        <path d="M380.247,868.583c-1.298,0-2.396-1.003-2.491-2.319-.1-1.377.935-2.574,2.312-2.675,4.722-.343,8.867-.63,12.613-.89,20.265-1.405,28.653-1.986,53.638-6.222,27.916-4.733,63.521-11.658,91.308-23.281,1.275-.533,2.738.068,3.271,1.341.533,1.274-.067,2.738-1.341,3.271-28.255,11.82-64.223,18.82-92.402,23.599-25.229,4.277-33.689,4.864-54.128,6.28-3.741.26-7.88.546-12.597.89-.062.004-.123.006-.184.006Z" fill="#000000" id="uPsf0JD3lhymdvFYTugUE" />
      </g>
    </g>
    <g id="fUtdIe8pS2jLKew5nvzPI">
      <g id="inkcYlLTZLyDW9b55XVV4">
        <g id="cWI_J2Ur8rPPwdk0BKJlY">
          <path d="M260.645,918.858l-251.49,10.185c-7.08,21.519-3.441,29.19,2.846,31.515,6.287,2.324,106.886.303,145.946.867,20.255.292,74.953.659,84.77-2.436,28.81-9.082,22.564-33.578,17.928-40.131Z" fill="#F4F4F4" id="bbRQ8j7CgBbS17Fi8sN3V" />
          <path d="M52.335,964.379c-24.095,0-38.547-.307-41.263-1.311-14.204-5.251-6.871-27.539-4.461-34.863l.581-1.764,254.799-10.318.84,1.188c2.999,4.239,6.481,14.754,3.057,24.923-2.107,6.256-7.697,14.685-22.366,19.309-10.677,3.366-68.229,2.812-85.614,2.56-14.396-.209-36.812-.065-60.545.084-17.408.11-32.52.193-45.029.193ZM11.133,931.642c-4.789,15.311-4.187,24.191,1.797,26.403,4.105,1.293,48.626,1.012,84.4.785,23.76-.149,46.204-.292,60.656-.084,33.788.487,76.041.174,83.926-2.312,10.054-3.17,16.413-8.522,18.9-15.91,2.565-7.618.321-15.294-1.627-18.928l-248.053,10.045Z" fill="#000000" id="u2PO9UgrbdeOYAJUkzRxU" />
        </g>
        <g id="VEQSkNADbQi9j4i48FfJK">
          <path d="M126.725,847.915c19.683-.3,34.922,14.79,34.922,14.79,0,0,76.352,25.888,88.194,36.85,14.794,13.694,13.31,24.514,13.31,24.514,0,0-5.386,14.086-23.659,16.372-43.215,5.406-107.754-.207-128.307-1.646-49.073-3.435-58.361,1.262-102.031-9.754-13.424-21.824,5.491-66.614,5.491-66.614,0,0-6.427-11.619,7.045-14.513,9.058,12.211,22.875,23.251,37.986,24.315,45.178,3.181,60.006-17.751,67.048-24.315Z" fill="#686765" id="dWidCRtLTEKQxVzg-I-8i" />
          <path d="M194.748,945.411c-30.355,0-61.002-2.268-77.284-3.472-2.471-.184-4.641-.344-6.464-.472-15.982-1.118-27.596-1.368-37.843-1.589-21.06-.452-34.973-.752-64.656-8.239l-1.056-.267-.57-.927c-12.941-21.038,1.928-60.659,4.852-67.952-.864-2.08-2.198-6.442-.362-10.478,1.546-3.399,4.832-5.66,9.765-6.719l1.686-.362,1.027,1.385c10.145,13.677,23.612,22.365,36.023,23.238,39.261,2.765,54.945-13.323,62.48-21.055.954-.979,1.778-1.824,2.553-2.547l.754-.703,1.031-.016c18.841-.282,33.577,12.505,36.384,15.123,7.54,2.569,76.883,26.392,88.592,37.23,15.638,14.475,14.212,26.345,14.144,26.844l-.042.305-.11.287c-.244.637-6.186,15.617-25.828,18.073-13.565,1.697-29.284,2.312-45.077,2.312ZM10.899,926.719c28.351,7.073,41.939,7.365,62.373,7.806,10.307.222,21.99.473,38.102,1.601,1.829.128,4.006.289,6.485.472,24.595,1.819,82.19,6.081,121.301,1.188,15.046-1.882,20.43-12.294,21.352-14.348.039-1.648-.351-10.681-12.489-21.916-9.371-8.674-66.148-29.129-87.235-36.279l-.585-.199-.439-.435c-.14-.138-14.166-13.76-31.957-14.016-.493.488-1.033,1.042-1.625,1.649-8.099,8.309-24.945,25.598-66.692,22.66-13.493-.95-27.907-9.861-38.849-23.942-2.264.726-3.742,1.824-4.402,3.275-1.324,2.91.729,6.859.75,6.897l.63,1.139-.506,1.199c-.181.429-17.693,42.505-6.215,63.25Z" fill="#000000" id="EIdr9bhcf51-9F2txJXC" />
        </g>
      </g>
      <g id="cPnNFN6XF_mLVKkpSFvx">
        <path d="M328.162,694.137c.182-.768,30.923-134.075,39.248-170.177,1.304-5.657,23.73-106.211,23.73-106.211l-141.54-117.212c-19.259,1.591-46.867,42.757-46.867,42.757,0,0-21.576,28.213-29.055,82.426-7.962,57.712-25.568,233.32-25.568,233.32-6.035,43.826,22.516,92.1,69.567,103.25,49.33,11.689,98.795-18.824,110.485-68.153Z" fill="#D98D39" id="DMSLqMas4T04u4631rQts" />
        <path d="M238.846,767.275c-7.178,0-14.464-.826-21.746-2.552-45.958-10.891-78.018-58.453-71.466-106.024.165-1.665,17.69-176.222,25.567-233.32,7.379-53.492,28.064-81.644,29.497-83.539,1.65-2.452,28.668-42.14,48.695-43.794l1.016-.083,143.503,118.837-.333,1.493c-.224,1.006-22.442,100.628-23.733,106.229l-2.698,11.698c-10.886,47.208-36.376,157.746-36.554,158.494h0c-10.263,43.311-49.055,72.561-91.749,72.561ZM248.832,303.148c-14.817,2.365-36.693,30.61-44.023,41.54l-.09.126c-.21.276-21.276,28.42-28.564,81.25-7.865,57.006-25.38,231.471-25.557,233.227-6.22,45.181,24.135,90.255,67.656,100.568,23.208,5.501,47.169,1.632,67.468-10.89,20.3-12.522,34.508-32.199,40.007-55.408h0c.236-1.006,25.68-111.338,36.547-158.464l2.698-11.698c1.2-5.206,20.595-92.158,23.393-104.699l-139.534-115.551Z" fill="#000000" id="L6qhxitPxRCyu0N1-TBM8" />
      </g>
      <path d="M300.164,741.279c2.198-1.97,22.951-22.136,27.998-47.142,10.031-49.693-18.824-98.795-68.153-110.485-44.519-10.55-95.421,37.814-112.294,78.82,0,0-9.688,6.904-16.775,12.873-49.753,41.903-102.116,132.653-127.829,190.737,47.046,28.149,200.486,7.359,200.486,7.359l84.75-121.401s6.257-5.303,11.817-10.763Z" fill="#D98D39" id="qZo55jXRO50boPqg9F9Kt" />
      <g id="vOdU2kEl8dqAd2nhlxD7">
        <path d="M94.32,882.894c-37.632,0-74.729-3.352-92.552-14.702L0,867.066l.8-1.938c25.544-61.846,71.786-143.889,124.96-188.673,3.642-3.068,16.153-12.684,19.582-15.313.557-5.261,2.998-28.308,3.359-31.739l4.973.522c-.408,3.878-3.472,32.811-3.472,32.811l-.113,1.069-.853.653c-.162.124-16.198,12.406-20.254,15.822-51.918,43.727-97.252,123.71-122.733,184.769,41.701,23.482,182.009,7.687,195.937,6.046l86.748-124.937.288-.229c.146-.117,14.748-11.762,19.742-18.23,6.1-7.9,13.958-20.222,16.75-34.056.896-4.435,1.942-8.781,2.954-12.983.489-2.028.968-4.02,1.417-5.962l4.872,1.124c-.452,1.958-.935,3.965-1.427,6.009-1.002,4.158-2.038,8.458-2.914,12.801-2.983,14.779-11.269,27.8-17.693,36.122-5.017,6.498-18.118,17.107-20.298,18.856l-87.608,126.176-1.108.138c-3.779.469-57.194,6.97-109.585,6.971Z" fill="#000000" id="DXPZBxarfi_ULtgC2rPfg" />
        <path d="M122.891,860.979c-6.733,0-13.18-.061-19.341-.183-52.068-1.033-82.227-6.19-92.202-15.767-.996-.956-1.028-2.539-.072-3.535.956-.996,2.538-1.029,3.535-.072,14.395,13.82,85.792,17.967,201.041,11.677,1.397-.087,2.557.981,2.632,2.36.076,1.378-.981,2.557-2.36,2.632-35.177,1.92-66.437,2.887-93.234,2.887Z" fill="#000000" id="u7Ma4ub99Qkfq9f3iRNf" />
      </g>
    </g>
    <g id="body">
      <g id="Viaitj9_ArHkBP3wwxTAR">
        <path d="M188.913,352.641c-10.42,26.481-18.706,53.361-18.706,53.361,0,0,49.512,25.41,68.135,34.801,35.864,18.087,149.249,52.618,149.249,52.618l4.633-22.373,17.148,35.476,45.05-39.341s-17.742-37.45-17.669-37.497l-247.84-77.045Z" fill="#F4F4F4" id="EN7hdIrDPwfm0gXpX92" />
        <path d="M408.548,510.563l-15.37-31.796-3.695,17.844-2.621-.798c-4.638-1.413-114-34.8-149.646-52.777-18.417-9.289-67.655-34.555-68.15-34.81l-1.865-.957.618-2.003c.083-.27,8.434-27.274,18.769-53.54l.85-2.161,255.191,79.33-2.7,1.728c2.674,5.736,10.972,23.288,16.753,35.49l.81,1.709-48.943,42.741ZM391.269,463.329l18.927,39.156,41.157-35.941c-1.479-3.123-4.769-10.072-8.054-17.024-2.214-4.686-4.425-9.373-6.079-12.892-.829-1.763-1.517-3.232-1.996-4.263-.099-.213-.196-.422-.288-.625l-244.543-76.02c-8.27,21.269-15.12,42.533-17.171,49.02,9.22,4.729,49.896,25.587,66.245,33.832,32.245,16.262,129.037,46.359,146.232,51.655l5.57-26.897Z" fill="#000000" id="FIogjQBtw64_BDd-phiiM" />
      </g>
      <g id="IkxlQ2omy_pD1hUGhg3cM">
        <path d="M554.032,219.956l-31.87-26.288s-17.685-24.529-52.139-38.635c-39.372-16.119-80.285-20.339-80.285-20.339l-112.079,88.477c-9.857,9.191-30.234,51.49-36.688,57.741-13.46,13.035-33.458,33.728-47.814,56.353-2.735,4.31-4.244,15.375-4.244,15.375,0,0,88.232,41.102,118.743,52.036,83.483,29.916,129.096,25.009,129.096,25.009,17.18-10.931,9.438-21.321,14.638-27.979,16.323-20.903,48.513-65.214,65.833-83.748,47.963-51.324,36.809-98.002,36.809-98.002Z" fill="#FEDD65" id="dlgsIM_luoQgqfxFCkgdI" />
        <path d="M428.137,432.516c-17.076,0-58.323-2.909-121.324-25.486-30.27-10.847-118.072-51.711-118.956-52.123l-1.67-.778.249-1.826c.162-1.188,1.667-11.739,4.61-16.376,11.08-17.463,27.292-36.577,48.186-56.81,2.594-2.512,8.476-12.86,14.165-22.868,8.248-14.51,16.776-29.514,22.558-34.906l.156-.134,112.875-89.105,1.009.104c.413.042,41.726,4.443,80.976,20.512,33.184,13.585,50.878,36.338,53.022,39.217l32.277,26.623.195.814c.119.497,2.872,12.386-.388,30.772-2.985,16.833-11.832,42.558-37.025,69.518-12.315,13.178-32.454,39.815-48.636,61.219-6.381,8.44-12.408,16.413-17.053,22.36-1.354,1.733-1.551,3.991-1.802,6.85-.515,5.871-1.22,13.91-13.464,21.701l-.493.314-.581.062c-.456.049-3.445.344-8.884.344ZM191.67,351.165c12.415,5.76,89.105,41.223,116.83,51.158,76.932,27.569,121.926,25.33,127.421,24.924,9.669-6.334,10.171-12.055,10.657-17.59.284-3.24.578-6.59,2.843-9.49,4.62-5.917,10.636-13.875,17.005-22.299,16.252-21.496,36.478-48.249,48.971-61.618,43.049-46.066,37.467-88.681,36.356-94.935l-31.429-25.923-.189-.261c-.173-.24-17.729-24.139-51.06-37.785-35.224-14.42-72.117-19.281-78.597-20.052l-111.186,87.772c-5.231,4.943-13.898,20.191-21.55,33.652-6.398,11.256-11.924,20.978-15.033,23.988-20.611,19.96-36.573,38.766-47.442,55.897-1.674,2.638-2.981,8.877-3.598,12.559Z" fill="#000000" id="ktkDaYk21zHxXd3kC3m3O" />
      </g>
      <path d="M389.918,472.014c-8.206-19.608-10.957-35.435-8.177-47.04l4.862,1.165c-2.527,10.551.14,25.336,7.927,43.944l-4.612,1.931Z" fill="#000000" id="XdmmZXZKkqbKD8b4w5udm" />
    </g>
    <g id="CjkFx6IrsoFgk-TYLpxa">
      <path d="M783.58,224.932c-7.775-3.99-18.271-9.83-22.859-14.414-5.978-5.974-16.417-15.372-23.817-19.452-5.043-2.781-14.208-9.903-17.807-15.048-1.515-2.165-5.21-1.167-7.242.521-8.398,6.977-25.27,21.026-37.868,31.819-8.233,7.054-17.974,19.105-24.293,27.253-15.945-5.694-44.124-15.249-67.622-18.296-11.239-9.429-25.112-16.155-41.067-20.811-7.816-2.281-18.842-2.835-18.842-2.835,0,0-40.003,18.464-44.252,49.123-6.571,47.409,25.92,90.779,25.92,90.779l39.107,8.92,102.475,19.542c21.429,5.579,57.544-10.276,70.177-28.461,6.836-9.84,17.047-17.53,24.983-27.906,17.678-23.114,33.134-48.037,39.091-58.143,2.302-3.905,4.674-7.335,6.766-10.125,3.112-4.15,1.766-10.096-2.85-12.464Z" fill="#FEDD65" id="UIPyA9oyomZ8iyzDXUCiN" />
      <path d="M653.076,365.085h-.01c-8.537-.003-14.795-1.806-23.456-4.3-7.715-2.222-17.316-4.988-32.176-7.453-9.448-1.567-19.194-2.931-27.793-4.135-11.68-1.635-21.768-3.046-28.687-4.573-8.029-1.772-29.059-7.798-35.092-9.539l-8.321,10.369-3.899-3.129,10.408-12.971,1.603.465c.272.079,27.319,7.922,36.379,9.921,6.729,1.484,16.727,2.884,28.303,4.504,8.628,1.208,18.407,2.576,27.918,4.154,15.146,2.512,24.902,5.322,32.742,7.581,8.268,2.381,14.241,4.103,22.074,4.105h.008c11.323,0,36.602-7.085,52.713-19.903,25.262-20.099,60.337-74.619,71.721-93.93,2.063-3.5,4.392-6.984,6.92-10.356,1.046-1.395,1.422-3.167,1.032-4.859-.387-1.679-1.489-3.094-3.023-3.881-8.069-4.141-18.694-10.083-23.485-14.869-6.899-6.894-16.766-15.452-23.257-19.031-5.162-2.847-14.753-10.237-18.648-15.805-.024-.035-.082-.117-.367-.155-.879-.117-2.299.394-3.229,1.167-15.675,13.022-28.759,24.016-37.839,31.794-6.119,5.243-14.175,14.289-23.944,26.886l-1.11,1.432-1.706-.609c-28.017-10.005-49.966-15.949-67.103-18.171l-.726-.094-.56-.47c-10.584-8.88-23.721-15.529-40.16-20.326-7.448-2.173-18.16-2.733-18.268-2.738l-1.125-.057-.703-.88c-.023-.029-2.328-2.907-5.252-6.021l3.645-3.423c2.106,2.242,3.873,4.328,4.806,5.455,3.057.208,11.683.934,18.298,2.864,16.83,4.911,30.384,11.727,41.41,20.827,17.03,2.292,38.555,8.095,65.715,17.719,9.597-12.279,17.303-20.855,23.53-26.19,9.099-7.794,22.203-18.806,37.897-31.844,1.544-1.282,4.33-2.646,7.09-2.276,1.609.216,2.922.992,3.798,2.245,3.432,4.905,12.34,11.741,16.966,14.292,7.393,4.076,17.752,13.253,24.377,19.873,3.381,3.377,11.277,8.334,22.234,13.958,2.848,1.461,4.894,4.087,5.612,7.206.722,3.132.028,6.406-1.904,8.983-2.418,3.224-4.643,6.554-6.612,9.895-.414.702-41.757,70.514-72.915,95.304-17.217,13.697-43.479,20.989-55.826,20.99Z" fill="#000000" id="RlBybwQJmdg1tjqNIpI_o" />
      <path d="M505.705,335.224l-3.75-3.308c6.478-7.344,22.638-39.76,23.687-47.513l4.955.671c-1.18,8.714-17.697,41.991-24.892,50.15Z" fill="#000000" id="mhY_WZEp5AOVyXWHcBmR" />
      <path d="M657.908,276.639l-4.881-1.083c2.396-10.803-.048-27.855-5.567-38.821l4.467-2.248c5.967,11.858,8.594,30.373,5.981,42.152Z" fill="#000000" id="QfJZdwp_v1Q8rqD8_AwjF" />
    </g>
    <g id="AhgzC-EAqm6rY_Mx2SkT2">
      <path id="neck" d="M438.98,203.683c34.312,14.644,58.732-8.305,64.343-18.565l34.452-66.101-83.488-45.652-41.966,79.843c-9.163,16.757,7.066,42.113,26.66,50.475Z" fill="#FCDABE" />
      <path d="M460.77,210.858c-7.046,0-14.685-1.424-22.772-4.876-12.718-5.428-24.289-17.809-28.793-30.81-2.98-8.602-2.662-16.612.921-23.164l43.129-82.057,87.868,48.047-35.585,68.274c-5.17,9.456-21.813,24.583-44.769,24.585ZM455.316,76.777l-40.784,77.594c-3.667,6.708-2.35,14.121-.603,19.165,4.071,11.749,14.532,22.94,26.032,27.848h0c7.427,3.169,14.436,4.476,20.881,4.477,20.729.002,35.67-13.5,40.286-21.941l33.296-63.884-79.108-43.257Z" fill="#000000" id="Z5OhCdoLg_ihVugYEUMlE" />
    </g>
    <g id="Head">
      <g id="yaIopFn3_KIpty70_5BY9">
        <path d="M559.058,131.803c-2.962,9.424-12.39,14.855-21.061,12.13-1.253-.394-2.422-.938-3.498-1.609-17.913,34.74-51.919,54.216-82.264,44.679-30.477-9.578-47.247-45.282-41.846-84.221-1.815.109-3.664-.104-5.479-.674-8.668-2.724-13.295-12.571-10.333-21.996,2.962-9.424,12.39-14.855,21.058-12.131,1.657.521,3.164,1.302,4.502,2.289,17.45-36.66,52.564-57.579,83.794-47.765,31.111,9.777,47.935,46.773,41.484,86.648,1.105.094,2.212.308,3.307.653,8.671,2.725,13.298,12.572,10.336,21.997Z" fill="#FCDABE" id="TKeDch2shSMYN9Kq21NKu" />
        <path d="M467.98,191.891c-5.625,0-11.168-.829-16.496-2.503-15.271-4.799-28.011-16.301-35.874-32.387-7.306-14.947-10.133-33.241-8.046-51.794-1.151-.125-2.289-.363-3.405-.713-9.97-3.133-15.339-14.407-11.968-25.131,3.37-10.724,14.219-16.898,24.192-13.767.938.295,1.847.666,2.718,1.108,18.685-36.88,54.297-56.413,85.577-46.583,31.172,9.796,49.247,46.134,43.574,86.964.41.098.816.209,1.218.336,9.971,3.133,15.342,14.407,11.972,25.131h0c-3.37,10.724-14.224,16.901-24.196,13.765-.578-.182-1.146-.393-1.701-.632-8.938,16.387-21.758,29.742-36.309,37.771-10.127,5.588-20.832,8.435-31.256,8.435ZM413.284,100.104l-.419,3.021c-5.305,38.248,11.567,72.52,40.119,81.493,28.371,8.916,61.718-9.354,79.293-43.44l1.243-2.411,2.301,1.435c.915.57,1.899,1.023,2.925,1.346,7.34,2.306,15.382-2.402,17.926-10.495h0c2.543-8.094-1.36-16.556-8.701-18.862-.898-.283-1.831-.466-2.77-.547l-2.686-.229.431-2.661c6.366-39.352-10.358-74.622-39.766-83.864-29.574-9.29-63.551,10.243-80.787,46.455l-1.303,2.737-2.439-1.801c-1.145-.845-2.412-1.49-3.766-1.916-7.34-2.303-15.38,2.402-17.924,10.496-2.543,8.094,1.358,16.555,8.698,18.862,1.487.466,3.029.656,4.58.563l3.045-.183Z" fill="#000000" id="wlMLlsNrSb8sW7tXqChgW" />
      </g>
      <g id="LxGqvkbq8dZUOCKVUHc1D">
        <path d="M555.28,113.919c-1.769-1.867-3.984-3.304-6.559-4.113-1.095-.344-2.202-.558-3.307-.653-5.784,2.883-8.715,11.992-8.715,11.992l-7.195-2.261c9.051-32.608,1.744-49.758,1.744-49.758-27.766-21.422-66.408-28.056-81.108-25.489-14.703,2.566-24.855,42.495-24.855,42.495l-6.914-2.133c2.585-7.96,1.764-13.729,1.764-13.729-1.337-.987-2.844-1.768-4.502-2.289-2.098-.659-4.241-.841-6.329-.602,3.778-13.067,13.861-42.969,29.312-52.526,21.411-13.245,50.153-15.138,69.663-9.007,19.507,6.13,45.482,26.604,52.341,47.146,6.447,19.311,1.766,39.035-5.341,60.926Z" fill="#2A292F" id="k4uOpfhtXul3yF4zF4OeK" />
        <path d="M538.314,124.27l-11.864-3.726.646-2.329c7.771-27.999,3.141-44.36,2.058-47.544-27.282-20.734-64.994-26.944-78.582-24.571-10.744,1.875-20.146,29.978-22.863,40.648l-.648,2.547-11.849-3.655.783-2.413c1.74-5.358,1.821-9.664,1.742-11.562-.894-.548-1.849-.983-2.852-1.299-1.718-.54-3.501-.711-5.294-.502l-3.729.428,1.042-3.606c4.622-15.988,14.717-44.258,30.399-53.958,23.427-14.491,53.604-14.961,71.727-9.266,20.335,6.391,46.872,27.5,53.963,48.739,6.996,20.956,1.201,42.361-5.334,62.49l-1.299,4.001-2.894-3.054c-1.541-1.626-3.389-2.786-5.493-3.447-.666-.209-1.35-.365-2.042-.463-3.629,2.268-6.156,8.043-6.852,10.187l-.765,2.355ZM532.541,117.218l2.674.84c1.378-3.191,4.36-8.788,9.084-11.142l.628-.313.699.06c1.304.111,2.597.366,3.844.758,1.614.507,3.151,1.248,4.56,2.191,6.867-21.891,9.801-39.108,4.219-55.828-6.51-19.497-31.955-39.655-50.719-45.553-17.073-5.365-45.508-4.916-67.598,8.748-13.62,8.425-23.074,34.226-27.264,47.871,1.255.114,2.497.363,3.716.746,1.884.592,3.646,1.488,5.237,2.663l.843.622.147,1.037c.033.233.713,5.271-1.149,12.418l2.082.642c2.672-9.556,12.083-39.346,26.168-41.804,16.458-2.875,55.516,4.718,83.064,25.973l.517.399.256.601c.305.716,7.204,17.507-1.007,49.071Z" fill="#000000" id="MwJd1VXs-vZ4yV_33Jiba" />
      </g>
      <path d="M477.368,149.462c-11.303,0-20.116-5.067-26.274-15.139l4.266-2.608c6.677,10.921,16.686,14.767,30.605,11.761l1.057,4.887c-3.396.734-6.615,1.1-9.653,1.1Z" fill="#000000" id="X31s_YdYtaBeAy6h7JD2V" />
      <g id="q0py2UWYgrCv5ti5f6DS8">
        <circle cx="460.486" cy="92.587" r="4.739" fill="#000000" id="IP7aPCiLcJQ7ocsE2vxPN" />
        <circle cx="501.618" cy="105.117" r="4.739" fill="#000000" id="PCNkWmrVz3N4Lj1d4EKF" />
      </g>
    </g>
    <g id="Ul7USOt21QTKyBi2YfVri">
      <g id="v25gIXTDXqmxIWGopJ8V0">
        <g id="HmlifUFJuaQgrk8ZJhsc">
          <path d="M251.353,384.42c-6.949-16.625-15.406-25.515-37.438-22.167-8.448,1.283-37.535,8.637-37.535,8.637,0,0-2.469,16.305-3.606,21.519-1.521,6.982-9.013,24.238-10.225,28.339-3.624,12.27-7.286,25.298-4.831,37.757,2.829,14.358,9.4,27.017,21.478,35.509,4.98,3.501,10.636,2.288,14.208-3.007,3.92,3.673,6.46,6.5,12.276,7.861,4.011.939,9.555-1.051,12.566-4.708.699-.849,1.647-2.054,2.268-2.922,6.643,1.433,12.079,1.396,16.044-5.596,1.52-2.68,1.969-6.899-.178-11.249s-8.358-11.413-11.384-16.118c-5.446-8.468-5.325-13.625-5.62-21.938-.144-4.06.554-7.694,2.151-10.59,3.94-7.149,10.61-11.138,18.586-8.165,3.245,1.21,4.239,4.516,5.352,7.983,5.468,17.04,16.912,16.601,21.211,13.679,5.231-3.555,3.208-8.742,2.493-11.163-1.485-5.022-3.388-12.715-5.521-17.472-2.427-5.414-4.468-8.45-6.952-13.607-.748-1.554-.961-1.919-2.076-4.254-1.815-3.803-.664-2.099-3.267-8.326Z" fill="#FCDABE" id="AxUyaS9G36gZF1FLW2WET" />
          <path d="M207.797,501.6c-.924,0-1.827-.097-2.688-.298-5.413-1.267-8.37-3.727-11.465-6.629-1.889,1.943-4.129,3.187-6.593,3.641-3.156.582-6.368-.198-9.293-2.254-11.699-8.225-19.267-20.698-22.492-37.07-2.648-13.44,1.529-27.584,4.886-38.949.472-1.599,1.721-4.774,3.303-8.793,2.512-6.384,5.952-15.128,6.876-19.37,1.106-5.076,3.552-21.199,3.577-21.361l.249-1.642,1.61-.407c1.192-.301,29.302-7.398,37.772-8.685,23.663-3.594,32.896,6.393,40.12,23.675h0c1.35,3.23,1.73,4.42,2.008,5.289.245.765.379,1.187,1.209,2.924.638,1.338.978,2.021,1.294,2.658.235.475.459.926.778,1.589,1.064,2.21,2.064,4.056,3.031,5.84,1.254,2.313,2.55,4.706,3.95,7.829,1.7,3.791,3.195,9.131,4.514,13.843.396,1.415.771,2.754,1.123,3.942l.142.467c.838,2.725,2.8,9.105-3.626,13.473-2.356,1.6-6.847,2.87-11.748,1.182-4.135-1.424-9.79-5.385-13.249-16.165l-.074-.231c-1.076-3.357-1.833-5.451-3.771-6.173-8.723-3.254-13.762,3.832-15.523,7.029-1.334,2.421-1.971,5.635-1.841,9.294l.045,1.317c.248,7.436.397,11.924,5.179,19.358,1.186,1.844,2.899,4.087,4.712,6.461,2.672,3.5,5.437,7.119,6.811,9.903,2.682,5.433,1.816,10.582.111,13.588-4.449,7.845-10.791,8.272-17.161,7.122-.5.648-1.011,1.285-1.396,1.751-2.961,3.596-7.916,5.852-12.379,5.852ZM192.972,487.176l3.199,3.005c3.285,3.113,5.455,5.17,10.078,6.252,3.185.745,7.699-.988,10.067-3.864.646-.785,1.566-1.952,2.164-2.787l.955-1.335,1.605.346c6.415,1.383,10.24,1.086,13.342-4.386,1.074-1.893,1.573-5.227-.245-8.909-1.159-2.348-3.773-5.771-6.301-9.081-1.876-2.457-3.648-4.778-4.943-6.791-5.527-8.594-5.713-14.174-5.971-21.896l-.044-1.306c-.164-4.627.664-8.626,2.459-11.885,4.899-8.889,13.196-12.452,21.649-9.3,4.31,1.607,5.625,5.711,6.785,9.332l.073.229c2.827,8.809,7.062,11.912,10.117,12.964,2.952,1.016,5.799.436,7.309-.59,3.119-2.119,2.596-4.817,1.658-7.868l-.158-.519c-.357-1.209-.739-2.572-1.143-4.012-1.272-4.544-2.714-9.695-4.262-13.146-1.323-2.952-2.518-5.158-3.783-7.493-.995-1.836-2.023-3.735-3.14-6.053-.309-.641-.524-1.077-.752-1.535-.324-.654-.672-1.355-1.327-2.727-.931-1.95-1.151-2.592-1.459-3.557-.25-.781-.592-1.852-1.858-4.882h0c-6.612-15.82-14.112-23.8-34.755-20.66-7.1,1.079-29.483,6.632-35.69,8.186-.661,4.3-2.446,15.729-3.383,20.031-1.01,4.635-4.392,13.23-7.109,20.137-1.476,3.75-2.75,6.99-3.161,8.378-3.202,10.84-7.186,24.331-4.776,36.566,2.969,15.066,9.854,26.488,20.463,33.947,1.801,1.266,3.708,1.762,5.511,1.427,1.966-.363,3.759-1.672,5.186-3.788l1.641-2.433Z" fill="#000000" id="gOSBkSTChCgwBF6RX5pl" />
        </g>
        <path d="M191.506,492.478c-18.015-22.345-17.647-41.905-17.623-42.726l4.998.143c-.004.184-.261,18.633,16.517,39.446l-3.893,3.138Z" fill="#000000" id="QR2edEhbXfQCFak9Hy8r" />
        <path d="M219.036,492.528l-17.655-18.905c-7.759-9.063-9.062-25.777-9.113-26.484l4.986-.366c.012.157,1.237,15.737,7.891,23.558l17.545,18.784-3.654,3.413Z" fill="#000000" id="sHsBee1k3shi6WhAI0G1I" />
      </g>
      <g id="UN76ZhyP81dJ8qd_pIISq">
        <path d="M172.504,397.781c8.435-2.285,20.127-5.036,26.606-4.737,8.442.391,22.488.31,30.707-1.657,5.601-1.34,17.173-2.246,23.298-.866,2.577.58,4.637-2.646,5.003-5.262,1.511-10.813,4.523-32.561,6.569-49.024,1.337-10.759.424-26.228-.392-36.506,15.623-6.527,42.89-18.439,62.313-32.009,14.658-.597,29.444-4.966,44.374-12.268,7.314-3.577,15.839-10.592,15.839-10.592l6.805-107.525s-59.494-21.263-85.827-6.868c-8.799,4.81-36.55,18.359-36.55,18.359l-88.919,54.557c-19.599,10.305-35.622,46.346-32.717,68.297,1.572,11.878-.798,24.44.322,37.453,2.495,28.993,7.851,57.825,10.252,69.308.928,4.437,1.484,8.57,1.816,12.042.494,5.164,5.493,8.653,10.5,7.296Z" fill="#FEDD65" id="EXJbyt9TalnQYALcf_5" />
        <path d="M170.316,400.573c-2.179,0-4.327-.659-6.16-1.927-2.643-1.829-4.334-4.717-4.641-7.923-.384-4.012-.98-7.971-1.775-11.768-.167-.798-16.612-80.247-10.27-119.557,3.506-21.727,18.018-44.808,27.145-53.117,7.636-6.95,14.079-10.854,24.754-17.32,5.86-3.55,13.153-7.968,22.673-14.129,14.434-9.342,29.572-17.843,40.625-24.05,3.264-1.833,6.175-3.468,8.611-4.868,8.423-4.841,25.077-13.955,34.07-17.406,35.05-13.449,88.456,3.775,90.712,4.514l-1.557,4.751c-.537-.176-53.983-17.406-87.364-4.597-8.724,3.348-25.643,12.632-33.37,17.073-2.448,1.407-5.374,3.05-8.654,4.893-10.995,6.175-26.053,14.632-40.356,23.888-9.582,6.202-16.91,10.641-22.799,14.208-10.416,6.31-16.703,10.118-23.979,16.741-8.37,7.62-22.294,29.886-25.574,50.216-5.143,31.872,5.639,95.796,10.228,117.737.832,3.977,1.457,8.121,1.858,12.316.166,1.736,1.08,3.298,2.509,4.287,1.417.98,3.182,1.285,4.848.833,8.753-2.372,20.601-5.127,27.375-4.822,9.744.453,22.8.135,30.009-1.59,5.734-1.372,17.802-2.366,24.43-.874.042.011.138.032.375-.133.731-.505,1.435-1.839,1.602-3.037,2.819-20.174,5.089-37.113,6.564-48.986.994-7.995.858-20.107-.403-36l-.143-1.806,1.671-.698c16.806-7.022,83.548-37.931,96.085-52.234l3.76,3.296c-13.62,15.539-81.281,46.386-96.25,52.842,1.174,15.547,1.252,27.079.241,35.217-1.479,11.897-3.752,28.862-6.574,49.061-.278,1.987-1.416,4.871-3.709,6.457-1.335.924-2.827,1.236-4.319.899-5.84-1.315-17.03-.371-22.168.858-8.211,1.965-22.047,2.157-31.404,1.722-4.778-.216-13.951,1.433-25.836,4.653-.938.254-1.893.379-2.842.379Z" fill="#000000" id="DQU1ARfEphUkWZZvOpl5Y" />
        <path d="M262.17,301.046c-6.669-10.761-25.153-22.007-30.659-25.197l2.507-4.326c7.383,4.278,25.32,15.461,32.402,26.89l-4.25,2.634Z" fill="#000000" id="GsZRedCChhUXr9EICs0q" />
      </g>
    </g>
    <g id="USKCMIHVflOxJgl9q1KIm">
      <g id="aOVyoH4Tr0LO2XLH447Dj">
        <path d="M114.073,415.075h0c6.795,0,12.313,5.517,12.313,12.313v134.055h-24.625v-134.055c0-6.795,5.517-12.313,12.313-12.313Z" fill="#192D4F" id="cVMCIc6pGxDJRv31dKpCk" />
        <path d="M128.886,563.943h-29.625v-136.555c0-8.167,6.645-14.812,14.812-14.812s14.813,6.645,14.813,14.812v136.555ZM104.261,558.943h19.625v-131.555c0-5.411-4.402-9.812-9.812-9.812s-9.813,4.402-9.813,9.812v131.555Z" fill="#000000" id="KJJeHd89MWuQ3975WEw3M" />
      </g>
      <g id="VztU0QI4PL1R5Cxqw6H">
        <rect x="106.158" y="432.865" width="198.761" height="128.578" fill="#192D4F" id="Ay5QVKY5yZ0peXZ_qHGdH" />
        <path d="M307.419,563.943H103.658v-133.578h203.761v133.578ZM108.658,558.943h193.761v-123.578H108.658v123.578Z" fill="#000000" id="XKKf0fN7ziqC0yPL6JbQ" />
      </g>
      <path d="M292.606,415.075h0c6.795,0,12.313,5.517,12.313,12.313v134.055h-24.625v-134.055c0-6.795,5.517-12.313,12.313-12.313Z" fill="#192D4F" id="ZITOLeF4An-SJJqK1dgMr" />
      <g id="WAvoJU4O9sZBzwe8yuThV">
        <path d="M281.613,415.075h0c6.795,0,12.313,5.517,12.313,12.313v134.055h-24.625v-134.055c0-6.795,5.517-12.313,12.313-12.313Z" fill="#E8C68C" id="sA4P7iUuGlQjKG1uc38ah" />
        <path d="M296.426,563.943h-29.625v-136.555c0-8.167,6.645-14.812,14.812-14.812s14.812,6.645,14.812,14.812v136.555ZM271.801,558.943h19.625v-131.555c0-5.411-4.402-9.812-9.812-9.812s-9.812,4.402-9.812,9.812v131.555Z" fill="#000000" id="p_gVrzPeOBrd6CmzG_0J4" />
      </g>
      <g id="toQQr4uyfxMkQfA5xrxI">
        <path d="M280.294,450.807l-166.221.89-12.313-19.41s-.474-7.059,1.747-11.216c3.337-6.246,10.043-5.996,10.043-5.996h179.056s-6.981.06-10.26,5.509c-2.744,4.56-2.053,12.281-2.053,12.281v17.942Z" fill="#7C8EA3" id="GBsCilhU8DFVyzHYYAEVG" />
        <path d="M114.073,454.197c-.856,0-1.652-.438-2.111-1.161l-12.312-19.41c-.224-.353-.355-.755-.383-1.172-.054-.795-.451-7.907,2.036-12.562,4.027-7.537,12.008-7.325,12.341-7.315l178.963-.002c1.376,0,2.494,1.113,2.5,2.489s-1.102,2.499-2.479,2.511c-.044,0-5.644.151-8.139,4.297-1.895,3.149-1.873,8.844-1.705,10.772.006.072.01.147.01.22v17.941c0,1.375-1.111,2.493-2.487,2.5l-166.221.89h-.013ZM280.294,450.806h.01-.01ZM104.227,431.508l11.216,17.682,162.351-.87v-15.353c-.084-1.095-.551-8.749,2.411-13.671.379-.63.797-1.202,1.242-1.72H113.55c-.287-.016-5.309-.061-7.837,4.674-1.386,2.594-1.552,7.101-1.486,9.258Z" fill="#000000" id="pOS6yNfrtzrCo7JenY78m" />
      </g>
      <g id="o5wqI1xQrsmRmNvMWKCQ7">
        <rect x="101.761" y="432.865" width="178.533" height="128.578" fill="#192D4F" id="O8BWldFe2vYOP5w6Qm3wk" />
        <path d="M282.794,563.943H99.261v-133.578h183.533v133.578ZM104.261,558.943h173.533v-123.578H104.261v123.578Z" fill="#000000" id="OvQ-VXCuLH9wpL69sU5Ve" />
      </g>
      <path d="M307.419,563.943h-29.625v-136.555c0-8.167,6.645-14.812,14.812-14.812s14.812,6.645,14.812,14.812v136.555ZM282.794,558.943h19.625v-131.555c0-5.411-4.402-9.812-9.812-9.812s-9.812,4.402-9.812,9.812v131.555Z" fill="#000000" id="zbg5mEaPNJJ23CaIsWmz-" />
    </g>
    <g id="Upload">
      <g id="UVt92snJH2E3FVFGrfqyk">
        <path d="M240.553,415.074h25.721c-2.427-5.414-7.094-12.916-9.578-18.074-.748-1.554-.961-1.919-2.076-4.254-1.815-3.803-.664-2.099-3.267-8.326-6.949-16.625-15.406-25.515-37.438-22.167-8.448,1.283-37.535,8.637-37.535,8.637,0,0-2.47,16.305-3.606,21.519-1.521,6.982-9.013,24.238-10.225,28.339-3.624,12.27-7.286,25.298-4.831,37.757,2.829,14.358,9.4,27.017,21.478,35.509,4.98,3.501,10.636,2.288,14.208-3.007,3.92,3.673,6.46,6.5,12.276,7.861,4.011.939,9.555-1.051,12.566-4.708.699-.849,1.647-2.054,2.268-2.922,6.643,1.433,12.079,1.396,16.044-5.596,1.52-2.68,1.969-6.899-.178-11.249s-8.358-11.414-11.384-16.118c-5.446-8.469-5.325-13.625-5.619-21.938-.144-4.06.554-7.694,2.15-10.59,3.94-7.149,9.5-10.672,19.026-10.672Z" fill="#FCDABE" id="S3XVeAjDl_fESkLMTFOkw" />
        <path d="M207.797,501.6c-.924,0-1.827-.097-2.688-.298-5.413-1.267-8.37-3.727-11.465-6.629-1.889,1.943-4.129,3.187-6.593,3.641-3.156.582-6.368-.198-9.293-2.254-11.699-8.225-19.267-20.698-22.492-37.07-2.648-13.44,1.529-27.584,4.886-38.949.472-1.599,1.721-4.774,3.303-8.793,2.512-6.384,5.952-15.128,6.876-19.37,1.106-5.076,3.552-21.199,3.577-21.361l.249-1.642,1.61-.407c1.192-.301,29.302-7.398,37.772-8.685,23.663-3.594,32.896,6.393,40.12,23.675,1.35,3.23,1.73,4.42,2.008,5.289.245.765.379,1.187,1.209,2.924.638,1.338.978,2.021,1.294,2.658.235.475.459.926.778,1.589,1.082,2.246,2.593,4.956,4.193,7.824,1.981,3.553,4.031,7.227,5.414,10.312l1.579,3.522h-29.582c-8.287,0-13.165,2.717-16.837,9.379-1.334,2.421-1.971,5.635-1.841,9.294l.045,1.317c.248,7.436.397,11.923,5.178,19.358,1.186,1.843,2.898,4.085,4.711,6.459,2.673,3.5,5.438,7.12,6.812,9.904,2.682,5.433,1.816,10.582.111,13.588-4.449,7.845-10.791,8.272-17.161,7.122-.5.648-1.011,1.285-1.396,1.751-2.961,3.596-7.916,5.852-12.379,5.852ZM192.972,487.176l3.199,3.005c3.285,3.113,5.455,5.17,10.078,6.252,3.185.745,7.699-.988,10.067-3.864.646-.785,1.566-1.952,2.164-2.787l.955-1.335,1.605.346c6.415,1.383,10.24,1.086,13.342-4.386,1.074-1.893,1.573-5.227-.245-8.909-1.16-2.349-3.774-5.772-6.302-9.083-1.876-2.457-3.648-4.776-4.943-6.79-5.527-8.595-5.713-14.174-5.971-21.896l-.044-1.307c-.164-4.627.664-8.626,2.459-11.885,4.561-8.275,11.104-11.965,21.216-11.965h21.715c-1.066-2.048-2.292-4.247-3.493-6.399-1.638-2.936-3.185-5.708-4.332-8.09-.309-.641-.524-1.077-.752-1.535-.324-.654-.672-1.355-1.327-2.727-.931-1.95-1.151-2.592-1.459-3.557-.25-.781-.592-1.852-1.858-4.882-6.612-15.82-14.112-23.8-34.755-20.66-7.1,1.079-29.483,6.632-35.69,8.186-.661,4.3-2.446,15.729-3.383,20.031-1.01,4.635-4.392,13.23-7.109,20.137-1.476,3.75-2.75,6.99-3.161,8.378-3.202,10.84-7.186,24.331-4.776,36.566,2.969,15.066,9.854,26.488,20.463,33.947,1.801,1.266,3.708,1.762,5.511,1.427,1.966-.363,3.759-1.672,5.186-3.788l1.641-2.433Z" fill="#000000" id="AeO4BcYBUGRRffRnWthj_" />
      </g>
      <path d="M191.506,492.478c-18.015-22.345-17.647-41.905-17.623-42.726l4.998.143c-.004.184-.261,18.633,16.517,39.446l-3.893,3.138Z" fill="#000000" id="jf7pPLHk9SqHobmQ0kEZ" />
      <path d="M219.036,492.528l-17.655-18.905c-7.759-9.063-9.062-25.777-9.113-26.484l4.986-.366c.012.157,1.237,15.737,7.891,23.558l17.545,18.784-3.654,3.413Z" fill="#000000" id="a0OfnWOpwITJOUzoyECI5" />
      <g id="zRFwtW6QGO1SW5z8LJtq9">
        <path d="M154.319,345.343c2.2,14.519,4.509,26.594,5.869,33.1.928,4.437,1.484,8.57,1.816,12.042.494,5.164,5.494,8.653,10.5,7.296,8.435-2.286,20.127-5.037,26.606-4.737,8.442.391,22.487.31,30.707-1.657,5.601-1.339,17.173-2.246,23.298-.866,2.577.581,4.637-2.646,5.003-5.262,1.258-9.004,3.557-25.59,5.473-40.393l-109.271.478Z" fill="#FEDD65" id="CQ7BgjTpRhPKl4wTmV64Z" />
        <path d="M170.316,400.573c-2.179,0-4.327-.659-6.16-1.927-2.643-1.829-4.334-4.717-4.641-7.923-.384-4.012-.98-7.971-1.775-11.768-.292-1.397-7.191-34.627-10.296-69.599l4.98-.442c3.079,34.682,9.92,67.632,10.21,69.018.832,3.977,1.457,8.121,1.858,12.316.166,1.736,1.08,3.298,2.509,4.287,1.417.98,3.182,1.285,4.848.833,8.753-2.372,20.601-5.127,27.375-4.822,9.744.453,22.8.135,30.009-1.59,5.734-1.372,17.802-2.366,24.43-.874.042.011.138.032.375-.133.731-.505,1.435-1.839,1.602-3.037,2.819-20.174,5.089-37.113,6.564-48.986l4.962.617c-1.479,11.897-3.752,28.862-6.574,49.061-.278,1.987-1.416,4.871-3.709,6.457-1.335.924-2.827,1.236-4.319.899-5.84-1.315-17.03-.371-22.168.858-8.211,1.965-22.047,2.157-31.404,1.722-4.774-.214-13.95,1.432-25.836,4.653-.938.254-1.893.379-2.842.379Z" fill="#000000" id="sqXa9rw6qRJo3OWexVCMH" />
      </g>
    </g>
  </g></g></g><g transform="translate(730 931)" data-asset-index="3"><g clip-path="url(#assetClipPath_rehRznwO)" transform="scale(0.9983354620182257 0.9983354620182257)" data-asset-index="3"><g id="Book_3">
    <g id="BoyVn8kPKkKh3UBcaxIG7">
      <path d="M31.819,1424.953l19.468,2.548c2.387-5.046,4.79-10.084,7.213-15.113l-1.448-.189h0c-22.878-3.47-35.105-5.139-36.488-20.15-1.443-15.673,13.666-31.268,32.05-38.866,11.725-4.846,25.448-6.662,40.046-6.899,1.014-1.798,2.01-3.606,3.039-5.397,1.836-3.196,3.702-6.375,5.586-9.544-19.049.404-37.28,3.308-54.071,9.619-27.284,10.255-46.07,32.35-44.635,57.538.71,12.468,16.941,24.282,29.239,26.454Z" fill="#CFA765" id="BmC2HhN4BfW6soRFTUR0T" />
      <path d="M51.288,1430.001c-.108,0-.216-.007-.325-.021l-19.468-2.548c-.037-.005-.074-.01-.11-.017-12.512-2.21-30.472-14.226-31.3-28.773-1.445-25.357,16.71-48.916,46.251-60.02,16.118-6.059,34.588-9.349,54.897-9.778.914-.044,1.756.455,2.213,1.24.458.785.453,1.756-.011,2.537-2.033,3.418-3.854,6.529-5.567,9.511-.652,1.136-1.292,2.278-1.931,3.422l-1.098,1.958c-.436.772-1.25,1.257-2.137,1.271-16.037.261-28.837,2.455-39.132,6.71-16.21,6.699-31.897,21.329-30.516,36.326,1.129,12.254,9.499,14.137,33.534,17.78l2.236.31c.796.104,1.493.583,1.875,1.289.382.706.401,1.552.053,2.274-2.421,5.024-4.821,10.057-7.205,15.098-.417.882-1.302,1.431-2.259,1.431ZM32.2,1422.482l17.606,2.305c1.646-3.473,3.299-6.941,4.961-10.405-21.947-3.331-35.172-5.594-36.693-22.103-1.678-18.219,16.233-34.234,33.585-41.406,10.571-4.368,23.51-6.682,39.521-7.06l.392-.7c.648-1.159,1.297-2.319,1.959-3.471,1.048-1.824,2.135-3.695,3.286-5.654-17.962.778-34.334,3.906-48.723,9.314-27.45,10.317-44.336,31.928-43.019,55.055.615,10.803,15.327,22.016,27.125,24.125Z" fill="#000000" id="M37VqCOMl8BF5QiWLmDR" />
    </g>
    <g id="HSk7G4dEFH6hxM7MPCA9H">
      <path d="M540.449,1395.957l-508.631,28.997s-12.945-3.522-21.053-11.247c-8.417-8.019-8.263-17.75-8.263-17.75V67.05L38.978,20.077l69.858-10.517,431.613,56.629v1329.767Z" fill="#7C8EA3" id="hxdWtjRtAUy2VF86QemGg" />
      <path d="M31.818,1427.454c-.221,0-.442-.029-.656-.088-.553-.15-13.652-3.781-22.122-11.85C-.064,1406.843-.004,1396.359.003,1395.916V67.05c0-.556.185-1.095.525-1.533L37.003,18.543c.394-.507.968-.844,1.603-.938L108.464,7.087c.23-.033.465-.037.697-.006l431.613,56.629c1.245.163,2.175,1.224,2.175,2.479v1329.768c0,1.325-1.034,2.421-2.358,2.496l-508.63,28.997c-.048.003-.095.004-.143.004ZM5.003,67.907v1328.05c0,.116.023,8.829,7.487,15.939,6.799,6.478,17.491,9.902,19.614,10.537l505.845-28.838V68.382L108.861,12.084l-68.521,10.315L5.003,67.907ZM540.449,1395.956h.01-.01Z" fill="#000000" id="mge6vZGlEa8n7173RRCqZ" />
    </g>
    <g id="atchb8iADQ3-4CFzmTSVi">
      <polygon points="128.823 20.077 128.823 1279.957 1015.218 1395.957 1015.218 136.077 128.823 20.077" fill="#192D4F" id="lFJnqeTD9tPIE0oVMZ3Sy" />
      <path d="M1015.218,1398.456c-.108,0-.216-.007-.325-.021l-886.395-116c-1.245-.162-2.176-1.224-2.176-2.479V20.077c0-.72.31-1.404.851-1.879.541-.475,1.26-.694,1.974-.6l886.395,116c1.245.162,2.176,1.223,2.176,2.479v1259.88c0,.72-.31,1.404-.851,1.879-.458.402-1.046.621-1.649.621ZM131.323,1277.762l881.395,115.346V138.271L131.323,22.925v1254.837Z" fill="#000000" id="R2-tbf7VDxgTV1aBDp7vv" />
    </g>
    <g id="W3qLIO2jPVpQm18gyUGwL">
      <g id="oRpPR2PlInEmWOIWIBvGK">
        <path d="M933.927,284.429L53.189,104.919s-28.209-22.535,1.031-46.459c27.943-22.863,74.604-13.914,74.604-13.914l859.289,110.491-54.186,129.391Z" fill="#EFE6C1" id="j4O07Vk22xcCRO-KUPck" />
        <path d="M933.928,286.929c-.166,0-.333-.017-.5-.051L52.69,107.369c-.388-.079-.752-.249-1.061-.496-.535-.427-13.092-10.624-13.177-25.094-.052-9.013,4.72-17.509,14.185-25.253,28.212-23.083,73.709-14.99,76.579-14.449l859.216,110.481c.774.1,1.457.555,1.847,1.23.39.676.442,1.495.141,2.215l-54.186,129.392c-.395.943-1.314,1.534-2.305,1.534ZM54.317,102.598l878.097,178.972,52.125-124.471L128.505,47.026c-.05-.006-.101-.015-.151-.024-.455-.085-45.856-8.446-72.551,13.394-8.239,6.741-12.395,13.926-12.351,21.354.063,10.731,8.801,19.036,10.865,20.849Z" fill="#000000" id="jYbTPY7q1QY6eEkL94Tdu" />
      </g>
      <g id="kXV27qSeQF6lzzOOHTL1">
        <path d="M988.113,1391.913s-24.157,4.126-49.877,30.833c-23.928,24.846-46.776,86.736-46.776,86.736l26.753-1303.892s-.551-17.633,21.573-33.787c23.455-17.126,48.326-16.766,48.326-16.766v1236.875Z" fill="#EFE6C1" id="NRBpCzSbitLtpIyi99poV" />
        <path d="M891.462,1511.982c-.154,0-.31-.014-.467-.044-1.199-.227-2.059-1.287-2.034-2.507l26.752-1303.841c-.024-1.516.186-19.44,22.599-35.807,23.855-17.417,48.787-17.256,49.837-17.246,1.367.02,2.464,1.134,2.464,2.5v1236.875c0,1.217-.876,2.258-2.076,2.464-.294.052-23.765,4.419-48.5,30.104-23.288,24.181-46.005,85.253-46.231,85.867-.368.996-1.314,1.634-2.344,1.634ZM985.613,157.633c-6.722.437-26.09,2.854-44.353,16.189-20.659,15.084-20.562,31.03-20.548,31.702,0,.034,0,.082,0,.116l-26.468,1289.971c8.106-19.662,24.71-56.45,42.19-74.6,21.951-22.794,42.656-29.476,49.178-31.107V157.633ZM988.113,1391.913h.01-.01Z" fill="#000000" id="sTK6ulVVM5W5OWBinHWOx" />
      </g>
    </g>
    <g id="PsSyQNMKbOyCJowaynUZE">
      <path d="M143.824,6.077C109.456,1.309,75.541-.089,46.562,10.804,19.278,21.059,1.145,45.311,2.579,70.499c.71,12.468,16.941,24.282,29.239,26.454l886.395,116v1327.88l15.713-14V198.953L57.052,84.199h0c-22.878-3.47-35.105-5.139-36.488-20.15-1.443-15.673,13.666-31.267,32.05-38.866,21.113-8.726,48.701-7.637,76.225-5.172l886.379,116.066v1259.88l15-14V122.077L143.824,6.077Z" fill="#7C8EA3" id="kV2R-g1njJle2KK4Cw8c" />
      <path d="M918.213,1543.333c-.346,0-.694-.071-1.022-.219-.898-.403-1.477-1.296-1.477-2.281V215.148L31.494,99.432c-.037-.005-.073-.01-.11-.017C18.872,97.205.912,85.19.083,70.641-1.396,44.68,17.355,19.111,45.683,8.463,77.585-3.529,115.063-.436,144.152,3.598l886.391,116c1.244.163,2.175,1.224,2.175,2.479v1259.88c0,.693-.288,1.354-.794,1.827l-15,14c-.728.68-1.791.864-2.702.466-.913-.396-1.504-1.298-1.504-2.293V138.271L128.566,22.497c-25.027-2.239-53.517-3.879-74.997,4.997-16.21,6.699-31.897,21.329-30.516,36.326,1.129,12.254,9.499,14.137,33.534,17.78l.84.127,876.824,114.748c1.245.162,2.176,1.224,2.176,2.479v1327.879c0,.713-.304,1.393-.837,1.866l-15.713,14.001c-.467.416-1.062.634-1.664.634ZM32.199,94.482l886.339,115.993c1.245.162,2.176,1.224,2.176,2.479v1322.304l10.713-9.546V201.148L56.727,86.677l-.889-.134c-22.585-3.423-36.218-5.489-37.763-22.265-1.678-18.218,16.233-34.234,33.585-41.406,22.54-9.314,51.772-7.646,77.403-5.352.034.003.068.007.102.012l886.379,116.065c1.245.163,2.175,1.224,2.175,2.479v1254.127l10-9.333V124.271L143.499,8.555c-.007,0-.013,0-.019-.002-28.506-3.955-65.183-7.007-96.038,4.59C21.141,23.03,3.719,46.557,5.076,70.357c.615,10.803,15.326,22.016,27.124,24.125Z" fill="#000000" id="Tg_8XbEnbm1Au5Qy_kJmY" />
    </g>
    <g id="Z7PLh_PTM_dRo9MW8MvPD">
      <polygon points="918.214 1540.833 31.819 1424.833 31.819 96.953 918.214 212.953 918.214 1540.833" fill="#7C8EA3" id="aKt8DLBuJRQ8Do3ISz4Oj" />
      <path d="M918.214,1543.333c-.108,0-.216-.007-.324-.021L31.494,1427.312c-1.245-.162-2.176-1.224-2.176-2.479V96.954c0-.72.31-1.404.851-1.879.541-.474,1.26-.696,1.973-.6l886.395,116c1.245.162,2.176,1.223,2.176,2.479v1327.88c0,.72-.31,1.404-.851,1.879-.458.402-1.046.621-1.649.621ZM34.319,1422.639l881.395,115.346V215.148L34.319,99.802v1322.837Z" fill="#000000" id="ZiWm4GiMJuHyDBdtt2zs" />
    </g>
    <g id="EGFBN9rPY4kH9GkzIX9MK">
      <polygon points="761.791 812.16 188.241 737.101 188.241 383 761.791 458.059 761.791 812.16" fill="#686765" id="PHI_vEh_FlHlLwkx2TjG0" />
      <path d="M761.791,814.66c-.108,0-.216-.007-.324-.021l-573.55-75.059c-1.245-.162-2.176-1.224-2.176-2.479v-354.102c0-.72.31-1.404.851-1.879.541-.475,1.263-.694,1.973-.6l573.55,75.06c1.245.162,2.176,1.224,2.176,2.479v354.101c0,.72-.31,1.404-.851,1.879-.458.402-1.046.621-1.649.621ZM190.741,734.907l568.55,74.404v-349.058l-568.55-74.405v349.059Z" fill="#000000" id="E8yZ6ITOjYLm8CyOUzkuv" />
    </g>
    <g id="ECkZ2RUbqprxG27s-wIm-">
      <polygon points="761.791 988.736 188.241 913.677 188.241 866.152 761.791 941.211 761.791 988.736" fill="#FEDD65" id="g3khHHnu76eb2vPu4PpUq" />
      <path d="M761.791,991.236c-.108,0-.216-.007-.324-.021l-573.55-75.059c-1.245-.162-2.176-1.224-2.176-2.479v-47.525c0-.72.31-1.404.851-1.879.541-.474,1.263-.696,1.973-.6l573.55,75.059c1.245.162,2.176,1.224,2.176,2.479v47.525c0,.72-.31,1.404-.851,1.879-.458.402-1.046.621-1.649.621ZM190.741,911.483l568.55,74.404v-42.482l-568.55-74.404v42.482Z" fill="#000000" id="YQYQ_pbIKZVsOBcyUmTGP" />
    </g>
  </g></g></g><g transform="translate(765 404)" data-asset-index="4"><g clip-path="url(#assetClipPath_AxhO31xL)" transform="scale(1.0000701041698332 1.0000701041698332)" data-asset-index="4"><g id="Book_4">
    <g id="RqVOPkTjiPTGddV_lAUr">
      <path d="M900.383,3.748s-9.839-4.426-22.588,3.391L32.602,494.644s-23.06,22.88-20.834,88.678c2.018,59.618,30.435,65.961,30.435,65.961l112.177-46.525L1047.587,22.724,900.383,3.748Z" fill="#449A39" id="pBBckVq_Od3PDOAbR8RIK" />
      <path d="M42.203,651.783c-.182,0-.365-.02-.544-.06-1.238-.276-30.329-7.464-32.389-68.316-2.238-66.127,20.599-89.571,21.572-90.537.153-.152.325-.283.512-.391L876.546,4.973c12.39-7.597,22.387-4.463,24.476-3.664l146.885,18.935c1.04.134,1.885.902,2.118,1.924.233,1.022-.197,2.081-1.076,2.652L155.741,604.854c-.127.083-.263.154-.403.212l-112.177,46.525c-.305.127-.63.191-.958.191ZM34.173,496.624c-2.171,2.411-21.952,26.137-19.906,86.613,1.742,51.459,23.642,61.872,27.815,63.389l111.128-46.089L1040.518,24.333l-140.454-18.105c-.24-.031-.474-.097-.695-.195-.421-.182-8.952-3.699-20.267,3.237L34.173,496.624Z" fill="#000000" id="X-41FboGMjX4QG8LiOiJB" />
    </g>
    <g id="aTnTRH0WNYkov5_PxM5IB">
      <path d="M32.602,494.644s-23.061,22.88-20.834,88.678c2.018,59.618,30.435,65.961,30.435,65.961l112.177-46.525,113.012-73.388-234.79-34.726Z" fill="#157E39" id="vJ8_d9ROAawBmuuUeUpFM" />
      <path d="M42.203,651.783c-.182,0-.365-.02-.544-.06-1.238-.276-30.329-7.464-32.389-68.316-2.238-66.127,20.599-89.571,21.572-90.537.559-.555,1.347-.814,2.126-.698l234.79,34.726c1.028.152,1.855.925,2.077,1.941.221,1.016-.209,2.062-1.082,2.629l-113.012,73.388c-.127.083-.263.154-.404.212l-112.177,46.525c-.305.127-.63.191-.958.191ZM33.581,497.316c-3.943,4.796-21.234,29.188-19.314,85.921,1.742,51.459,23.642,61.872,27.815,63.389l111.128-46.09,107.273-69.661-226.902-33.559Z" fill="#000000" id="ZB-yN0I9zq6Rr8ORcuWir" />
    </g>
    <g id="Bq-LpwVcgVmK9pGWoAy">
      <path d="M46.837,548.204c-.781,14.678-2.218,46.366,4.113,59.632,6.33,13.266,19.06,10.355,33.697,11.705v-110.354c-30.093-2.795-36.096,6.801-37.809,39.016Z" fill="#2A292F" id="K-oYprX-28cGxJ-9I4VGa" />
      <path d="M84.646,622.041c-.076,0-.153-.003-.229-.011-2.911-.269-5.768-.365-8.53-.458-11.056-.374-21.5-.727-27.193-12.659-6.12-12.826-5.415-40.866-4.353-60.842l2.497.133-2.497-.133c.919-17.274,3.027-29.31,10.689-35.93,6.018-5.2,14.943-6.828,29.847-5.443,1.286.119,2.269,1.198,2.269,2.489v110.354c0,.703-.296,1.374-.815,1.847-.462.422-1.064.653-1.685.653ZM75.801,511.235c-8.283,0-13.83,1.517-17.503,4.69-6.3,5.442-8.14,16.893-8.965,32.412h0c-.596,11.195-2.408,45.262,3.872,58.423,4.386,9.191,12.13,9.453,22.85,9.815,1.979.067,4.006.135,6.09.267v-105.354c-2.275-.167-4.387-.252-6.344-.252Z" fill="#000000" id="RuLLyu3ijIgSPyz9guNNr" />
    </g>
    <g id="jYZPEcBVbFuLYgokQFa67">
      <polygon points="900.383 154.748 44.737 641.741 751.657 734.322 1609.387 246.143 900.383 154.748" fill="#449A39" id="kpoXqTKXnrbjVHK3-CO6j" />
      <path d="M751.657,736.822c-.108,0-.217-.007-.325-.021L44.413,644.22c-1.065-.14-1.922-.944-2.128-1.998s.283-2.122,1.216-2.654L899.147,152.575c.472-.269,1.017-.377,1.557-.307l709.003,91.395c1.066.138,1.925.941,2.133,1.996.208,1.055-.282,2.125-1.216,2.656l-857.729,488.179c-.379.215-.805.327-1.237.327ZM52.447,640.229l698.703,91.504,850.505-484.067-700.761-90.333L52.447,640.229Z" fill="#000000" id="UmNoXS3gXznf8e_KMdNg_" />
    </g>
    <g id="dbWememM58HgDLPmvDUp">
      <g id="hdeu-tU-7ExM3g8MXnNge">
        <path d="M873.177,182.539L151.382,469.371l-49.392,28.869-17.49-2.291v121.029l675.092,86.849,767.47-436.807s-9.346-28.432-8.767-66.025c.623-40.484,8.767-65.975,8.767-65.975l-653.885,47.519Z" fill="#F4F4F4" id="n7yQnkI8yrXREUjTgVbDK" />
        <path d="M759.591,706.327c-.106,0-.212-.007-.318-.021l-675.092-86.849c-1.247-.16-2.181-1.222-2.181-2.479v-121.03c0-.72.31-1.404.851-1.879.541-.475,1.261-.694,1.974-.6l16.643,2.18,48.653-28.437c.108-.063.221-.119.338-.165L872.254,180.216c.237-.094.487-.152.742-.17l653.885-47.519c.828-.062,1.631.295,2.145.947.514.651.67,1.516.418,2.307-.081.252-8.041,25.666-8.649,65.254-.564,36.695,8.551,64.925,8.643,65.207.37,1.129-.105,2.365-1.139,2.953l-767.47,436.808c-.379.215-.805.327-1.237.327ZM87,614.779l672.082,86.462,765.001-435.402c-2.095-7.108-8.787-32.462-8.288-64.882.496-32.248,5.649-54.846,7.878-63.184l-649.931,47.232L152.48,471.625l-49.229,28.772c-.479.28-1.033.395-1.586.32l-14.666-1.92v115.982Z" fill="#000000" id="yueRL6FTJA_j_y8N61yc7" />
      </g>
      <g id="VZPjMcFLFl5oyABEVY6">
        <polygon points="892.668 53.243 127.062 488.989 759.592 571.827 1527.062 135.02 892.668 53.243" fill="#F4F4F4" id="eKV11NUXsiK-s2krQeGhJ" />
        <path d="M759.592,574.327c-.108,0-.216-.007-.325-.021L126.737,491.468c-1.065-.14-1.922-.944-2.128-1.998-.207-1.054.283-2.123,1.217-2.654L891.431,51.07c.472-.268,1.016-.376,1.556-.307l634.395,81.777c1.066.138,1.925.941,2.133,1.996.208,1.055-.282,2.125-1.216,2.656l-767.47,436.808c-.378.215-.805.327-1.237.327ZM134.772,487.477l624.312,81.762,760.246-432.696L893.177,55.829,134.772,487.477Z" fill="#000000" id="M9WpMozI3LWPyr4fkdY-b" />
      </g>
      <g id="iL97P1iJ3L47o3mt2o1bU">
        <path d="M758.66,703.827s-9.346-28.432-8.767-66.025c.623-40.484,8.767-65.975,8.767-65.975" fill="#F4F4F4" id="s5QKKTIbCLZVKUnW41RNU" />
        <path d="M758.659,706.328c-1.05,0-2.028-.667-2.374-1.72-.387-1.177-9.47-29.263-8.892-66.845.622-40.39,8.548-65.642,8.886-66.697.42-1.315,1.826-2.041,3.141-1.621,1.315.42,2.041,1.826,1.622,3.141-.081.252-8.041,25.666-8.65,65.253-.564,36.695,8.551,64.926,8.643,65.207.431,1.312-.284,2.724-1.595,3.155-.259.085-.522.125-.781.125Z" fill="#000000" id="WPN6sEww44zvxPvdF28_I" />
      </g>
    </g>
    <g id="XLxpE1WouDdWIOx5zfFLl">
      <polygon points="947.116 9.772 101.15 498.129 751.657 583.322 1609.387 95.143 947.116 9.772" fill="#6FC069" id="VD_nspVb8akmjGNUHaUq-" />
      <path d="M751.657,585.822c-.108,0-.216-.007-.325-.021L100.825,500.608c-1.062-.139-1.918-.94-2.127-1.99-.209-1.051.274-2.118,1.202-2.654L945.866,7.607c.475-.274,1.027-.385,1.57-.314l662.27,85.371c1.066.137,1.926.941,2.133,1.996.208,1.055-.282,2.125-1.216,2.656l-857.729,488.179c-.378.215-.805.327-1.237.327ZM108.785,496.608l642.365,84.126L1601.655,96.667,947.634,12.36,108.785,496.608Z" fill="#000000" id="mXXTSO15Z-O6yf-ma4eY1" />
    </g>
    <g id="gpAxgCN7lltEyOD_FR2yo">
      <path d="M751.657,602.322L1609.387,114.143v-19l-857.729,488.178L44.737,490.741s-11.164.905-20.925,10.151c-9.751,9.236-21.687,28.705-21.304,71.013.499,55.192,7.188,76.752,36.588,88.761,1.052.43,5.641,1.076,5.641,1.076l706.92,92.58,857.729-488.178v-20l-857.729,488.178L44.737,641.741c-16.492-5.215-24.74-15.882-25.228-69.991-.344-37.923,9.721-52.798,15.751-58.29,3.589-3.269,9.478-3.719,9.478-3.719l706.92,92.58Z" fill="#6FC069" id="du7UtYUQmnFN_jnKAqy53" />
      <path d="M751.657,756.822c-.108,0-.217-.007-.325-.021L44.413,664.221c-1.497-.211-5.052-.747-6.261-1.241-15.571-6.36-24.982-15.485-30.514-29.588-5.142-13.108-7.352-30.916-7.628-61.465-.385-42.557,11.797-63.106,22.084-72.85,10.282-9.739,21.95-10.788,22.442-10.828.176-.015.353-.01.527.013l706.088,92.472L1608.151,92.97c.774-.44,1.724-.436,2.493.012s1.243,1.271,1.243,2.161v19c0,.899-.482,1.728-1.263,2.173l-857.73,488.179c-.474.269-1.023.378-1.561.306L44.702,512.258c-1.017.119-5.22.738-7.758,3.051-5.722,5.211-15.27,19.47-14.935,56.419.504,55.894,9.535,63.176,23.273,67.563l705.868,92.443,857-487.764c.774-.44,1.724-.436,2.493.012s1.243,1.271,1.243,2.161v20c0,.899-.482,1.728-1.263,2.173l-857.73,488.179c-.378.215-.805.327-1.236.327ZM44.711,493.259c-1.577.198-10.969,1.672-19.179,9.448-9.566,9.061-20.892,28.418-20.523,69.175.514,56.858,8.044,75.445,35.033,86.469.537.197,3.046.634,5.044.915l706.064,92.468,855.737-487.044v-14.247l-853.993,486.052c-.474.27-1.023.376-1.561.306L44.413,644.22c-.146-.019-.289-.051-.429-.095-17.885-5.655-26.483-17.924-26.975-72.352-.353-38.895,10.229-54.388,16.567-60.161,4.177-3.804,10.695-4.343,10.971-4.364.171-.014.344-.009.515.014l706.088,92.472L1606.887,112.689v-13.247l-853.993,486.052c-.474.27-1.023.377-1.561.306L44.711,493.259Z" fill="#000000" id="Wq_Gr1FO6L7o3W99ElSBR" />
    </g>
    <g id="RDpYfGRZ4mkyQwHl0Hvsb">
      <polygon points="601.793 563.695 751.657 583.322 858.736 522.378 601.793 563.695" fill="#FEDD65" id="rB_i4AMr8jCGM6cvUDOJ" />
      <path d="M751.657,585.822c-.108,0-.216-.007-.325-.021l-149.865-19.626c-1.231-.161-2.157-1.201-2.175-2.442-.019-1.241.877-2.308,2.103-2.505l256.943-41.317c1.198-.192,2.354.499,2.755,1.638.401,1.141-.071,2.405-1.122,3.003l-107.078,60.944c-.378.215-.805.327-1.237.327ZM619.113,563.442l132.037,17.292,94.34-53.694-226.377,36.402Z" fill="#000000" id="DH38m7HGVQwhfzmeaiiW5" />
    </g>
    <g id="rGH5oATtqNRsEAPwoX">
      <polygon points="1530.53 84.978 1473.8 172.313 1609.387 95.143 1530.53 84.978" fill="#FEDD65" id="aHxk6yJsLtqCX_7wa3wnQ" />
      <path d="M1473.801,174.813c-.671,0-1.334-.27-1.82-.785-.791-.839-.906-2.11-.278-3.077l56.73-87.335c.523-.805,1.458-1.238,2.417-1.118l78.856,10.165c1.066.138,1.925.941,2.133,1.996.208,1.055-.282,2.125-1.216,2.656l-135.587,77.17c-.387.22-.813.327-1.236.327ZM1531.77,87.659l-50.276,77.398,120.161-68.39-69.885-9.008Z" fill="#000000" id="vsSmuB_9o8Xumi2_veAbv" />
    </g>
    <g id="X_W-ieMz7tM9wHMHm6UYC">
      <path d="M660.675,619.27c-.104,0-.211-.006-.317-.02l-441.345-56.001c-1.37-.174-2.339-1.425-2.165-2.795.173-1.37,1.43-2.344,2.794-2.165l441.345,56.001c1.37.174,2.339,1.425,2.165,2.795-.16,1.263-1.236,2.185-2.477,2.185Z" fill="#000000" id="hSRBF3jo_rtqP45MSurnI" />
      <path d="M749.869,665.437c-.102,0-.205-.006-.309-.019l-203.864-25.109c-1.37-.169-2.344-1.417-2.176-2.787.169-1.37,1.412-2.341,2.787-2.176l203.864,25.109c1.37.169,2.344,1.417,2.176,2.787-.156,1.267-1.234,2.195-2.479,2.195Z" fill="#000000" id="vZaNtuJzIcRLCvF0RqA5H" />
      <path d="M1018.017,489.933c-.876,0-1.726-.461-2.184-1.279-.674-1.205-.244-2.729.96-3.403l500.279-280.009c1.205-.675,2.729-.244,3.403.96.674,1.205.244,2.729-.96,3.403l-500.279,280.009c-.386.216-.806.319-1.219.319Z" fill="#000000" id="EladVTvd3Aj5mz92u6UzL" />
      <path d="M927.813,574.328c-.864,0-1.705-.449-2.167-1.251-.69-1.196-.28-2.725.916-3.415l180.873-104.395c1.196-.692,2.724-.281,3.415.916.69,1.196.28,2.725-.916,3.415l-180.873,104.395c-.394.228-.823.335-1.247.335Z" fill="#000000" id="U7gTXXZUUwU-S_DgAwf7A" />
    </g>
  </g></g></g><g transform="translate(172 1271)" data-asset-index="5"><g clip-path="url(#assetClipPath_FBySS9jN)" transform="scale(0.9978782340905796 0.9978782340905796)" data-asset-index="5"><g id="Book_with_bookmark">
    <g id="BNn3kahP5sObGDBb1Rp3">
      <path d="M481.828,2.5L28.241,1075.587l-20.428,59.912c0,27.259,36.088,64.498,63.117,68.035l839.888,117.209,459.035-1061.088.56-8.156-855.294-111.643L481.828,2.5Z" fill="#55B8F9" id="iJWArwhMqihtZ6eUU3eyP" />
      <path d="M910.82,1323.244c-.115,0-.231-.008-.347-.024l-839.888-117.209c-29.269-3.83-65.271-42.711-65.271-70.511,0-.274.045-.547.134-.807l20.428-59.912c.019-.057.04-.112.063-.167L479.525,1.527c.42-.994,1.425-1.615,2.505-1.519,1.075.087,1.973.854,2.227,1.903l32.887,135.689,853.593,111.421c1.31.171,2.261,1.332,2.17,2.65l-.56,8.156c-.02.284-.087.562-.2.822l-459.035,1061.087c-.4.925-1.308,1.508-2.293,1.508ZM10.316,1135.906c.36,25.277,34.312,61.665,60.938,65.15l838.025,116.948,458.109-1058.948.369-5.382-852.963-111.339c-1.025-.134-1.862-.885-2.106-1.89l-31.507-129.997L30.578,1076.479l-20.262,59.427Z" fill="#000000" id="M3HrZDFi4x-6pMG9qiSIY" />
    </g>
    <g id="ZikN00IOTBikObfAyO5Xt">
      <path d="M37.638,1128.921c-.048,17.754,7.302,31.892,22.199,41.55,13.368,8.667,43.943,10.055,43.943,10.055l14.873-92.737c-77.969-20.479-80.967,23.378-81.016,41.132Z" fill="#192D4F" id="ryyMOCGyigaRSn0k31qv-" />
      <path d="M103.782,1183.026c-.038,0-.076,0-.115-.003-1.276-.058-31.412-1.521-45.19-10.454-15.538-10.073-23.391-24.761-23.339-43.654.033-11.97,1.685-29.12,15.596-39.818,13.975-10.749,37.041-12.002,68.555-3.725,1.244.327,2.037,1.544,1.833,2.813l-14.873,92.736c-.195,1.218-1.246,2.104-2.467,2.104ZM82.987,1084.949c-12.408,0-22.176,2.705-29.205,8.11-12.167,9.358-13.614,24.953-13.644,35.869-.047,17.084,7.039,30.355,21.059,39.445,10.615,6.882,33.298,9.005,40.474,9.516l14.153-88.246c-12.441-3.13-23.403-4.694-32.838-4.694Z" fill="#000000" id="cd26fwGIyfMSPSXFB_mo0" />
    </g>
    <g id="IqNLcGCamZ539n4mCvXR">
      <path d="M508.43,100.5L78.464,1076.702s-5.477,33.345-5.477,54.789c0,25.812,5.477,45.558,5.477,45.558l818.403,112.415L1340.953,247.931s-7.968-20.618-7.335-48.249c.89-38.822,7.335-63.691,7.335-63.691l-832.524-35.491Z" fill="#F4F4F4" id="CQ6Jmxir1ei0sDY_bK-P" />
      <path d="M896.867,1291.964c-.113,0-.227-.008-.341-.023l-818.402-112.416c-.989-.136-1.802-.847-2.069-1.809-.227-.819-5.568-20.37-5.568-46.226,0-21.401,5.285-53.824,5.51-55.194.034-.207.094-.41.179-.603L506.141,99.492c.416-.942,1.373-1.524,2.395-1.49l832.524,35.491c.754.032,1.453.403,1.902,1.01s.6,1.384.412,2.114c-.064.247-6.383,25.083-7.255,63.122-.615,26.825,7.089,47.09,7.167,47.291.235.607.223,1.283-.032,1.882l-444.087,1041.533c-.397.931-1.309,1.52-2.299,1.52ZM80.471,1174.8l814.844,111.928L1338.265,247.862c-1.583-4.467-7.714-23.47-7.146-48.237.711-31.025,5.013-53.475,6.719-61.264l-827.809-35.291L80.881,1077.416c-.549,3.42-5.394,34.174-5.394,54.074,0,21.038,3.735,38.168,4.985,43.31Z" fill="#000000" id="GeB5mc5LSUh8cJB3FSa-Q" />
    </g>
    <g id="lZkE0661MfOJzZpiLwTkM">
      <path d="M481.828,2.5L7.813,1111.053l6.126,7.506s7.299-38.679,48.721-38.098l848.206,111.002L1368.223,118.5,481.828,2.5Z" fill="#55B8F9" id="UQd0MLTUeW42aypK0zNkp" />
      <path d="M910.867,1193.964c-.107,0-.216-.007-.325-.021l-848.061-110.983c-38.717-.448-46.016,35.699-46.085,36.064-.18.955-.898,1.72-1.841,1.959-.943.237-1.938-.089-2.553-.842l-6.126-7.507c-.588-.721-.727-1.709-.362-2.564L479.529,1.517c.441-1.03,1.518-1.637,2.623-1.496l886.395,116c.775.102,1.459.56,1.847,1.239.388.679.436,1.5.129,2.22l-457.357,1072.964c-.396.93-1.308,1.52-2.299,1.52ZM61.744,1077.954c.316,0,.631.003.951.007.097.002.194.009.29.021l846.325,110.757L1364.631,120.551,483.382,5.224,10.707,1110.645l2.147,2.631c3.641-10.667,15.658-35.321,48.89-35.321Z" fill="#000000" id="eHwFoXLG4Ot2WHUhBtwH" />
    </g>
    <path d="M895.314,1290.792c-.629,0-1.258-.235-1.744-.709-8.369-8.148-14.137-23.698-15.43-41.596-1.457-20.175,2.902-41.011,12.274-58.672.647-1.22,2.161-1.684,3.38-1.036,1.22.646,1.684,2.16,1.037,3.38-19.981,37.652-12.169,80.324,2.227,94.342.989.963,1.01,2.546.047,3.535-.49.503-1.14.756-1.791.756Z" fill="#000000" id="t7ZyPLMt836dLGQG8KG0L" />
    <g id="JhMbVVcPzlP6-h91cmfi0">
      <path d="M71.256,1080.637c-2.708-.356-5.388-.529-8.039-.528-33.013.003-60.717,20.828-60.717,54.839h0c0,30.551,22.661,62.363,52.955,66.318l855.364,119.477.095-14.783-853.517-119.567c-22.745-2.97-39.897-28.507-39.897-51.445,0-25.273,20.509-39.837,45.719-39.839h.001c2.012,0,4.059.135,6.073.399l841.477,110.947.097-14.992-839.61-110.827Z" fill="#55B8F9" id="wfLBxOAXYsWK8y7BhIU6I" />
      <path d="M910.819,1323.244c-.115,0-.231-.008-.346-.024l-855.364-119.477c-14.959-1.953-28.985-10.525-39.472-24.136C5.699,1166.71,0,1150.433,0,1134.949c0-33.222,26.586-57.337,63.217-57.34,2.772,0,5.586.185,8.365.55h.002l839.61,110.827c1.25.165,2.181,1.234,2.173,2.495l-.097,14.991c-.005.717-.317,1.397-.858,1.868-.541.472-1.257.688-1.969.594l-841.476-110.947c-1.908-.251-3.842-.378-5.746-.378-21.513.003-43.22,11.549-43.22,37.34,0,20.83,15.491,46.062,37.721,48.966l853.54,119.57c1.241.174,2.161,1.239,2.153,2.491l-.095,14.784c-.005.72-.32,1.403-.865,1.875-.457.395-1.038.608-1.634.608ZM63.217,1082.609c-28.93.003-58.217,17.981-58.217,52.34,0,27.628,20.404,59.873,50.778,63.84l852.559,119.084.062-9.74-851.35-119.264c-24.771-3.234-42.05-31.014-42.05-53.92,0-24.926,19.828-42.337,48.219-42.34,2.122,0,4.275.142,6.4.421l838.669,110.577.064-9.953-837.421-110.538c-2.563-.336-5.158-.507-7.714-.507Z" fill="#000000" id="cemazJxvLoAAiCCM0aB3D" />
    </g>
    <g id="rAINeI5blQlFUd3rjTLfv">
      <g id="o7nDruUJA3lRxaaqnDb">
        <path d="M592.407,1290.938c-79.679-10.054-159.358-20.108-239.037-30.162l15.498,34.271s177.901,22.448,230.02,29.024l-6.48-33.133Z" fill="#E6332A" id="PCgd4S_XtfFHVLJRjtsyw" />
        <path d="M598.887,1326.572c-.104,0-.208-.007-.313-.02l-230.02-29.024c-.863-.109-1.607-.658-1.965-1.45l-15.498-34.271c-.373-.825-.271-1.787.266-2.515.538-.729,1.425-1.104,2.325-.996l239.037,30.162c1.07.135,1.934.941,2.141,2.001l6.48,33.134c.154.787-.079,1.601-.627,2.187-.476.509-1.139.793-1.827.793ZM370.569,1292.743l225.201,28.416-5.47-27.967-232.812-29.377,13.081,28.928Z" fill="#000000" id="qen3Iq4zQ6OrcWLTkkh2U" />
      </g>
      <g id="GDNwdvx1jpe3mzUsmZW3y">
        <path d="M425.453,1301.956c-13.597-1.716-27.433-3.497-39.912-9.165-12.478-5.668-23.62-15.921-26.903-29.228-3.259-13.21,1.543-26.925,6.278-39.681,7.143-19.243,14.419-31.292,19.184-58.151l-65.534-8.429c-4.765,26.858-12.11,39.29-19.252,58.533-4.735,12.755-9.538,26.471-6.278,39.681,3.283,13.306,14.425,23.56,26.903,29.228,12.479,5.668,26.314,7.449,39.912,9.165,27.561,3.478,55.122,6.955,82.683,10.433l-17.08-2.386Z" fill="#FF5300" id="V0aZH3CqqrQrnWfxuzTwh" />
        <path d="M442.536,1306.842c-.104,0-.209-.006-.316-.02l-82.683-10.433c-13.619-1.719-27.702-3.496-40.632-9.369-14.795-6.721-25.108-17.984-28.296-30.905-3.559-14.424,1.942-29.243,6.362-41.15,1.879-5.062,3.778-9.672,5.615-14.13,5.166-12.539,10.045-24.384,13.52-43.969.233-1.314,1.461-2.212,2.78-2.043l65.535,8.429c.678.087,1.291.448,1.696.999s.566,1.244.447,1.917c-3.551,20.015-8.473,31.903-13.683,44.489-1.841,4.445-3.744,9.043-5.619,14.095-4.181,11.265-9.385,25.283-6.195,38.213,2.778,11.257,12.314,21.556,25.509,27.55,12.241,5.561,25.942,7.289,39.191,8.961.011.002.022.003.033.005l17.08,2.386c1.361.189,2.313,1.442,2.132,2.805-.167,1.257-1.24,2.171-2.475,2.171ZM320.599,1160.085c-3.533,18.727-8.327,30.363-13.391,42.654-1.82,4.418-3.702,8.986-5.55,13.966-4.181,11.265-9.385,25.283-6.195,38.213,2.778,11.257,12.314,21.556,25.509,27.55,12.241,5.561,25.942,7.289,39.191,8.961l22.701,2.864c-13.913-6.792-23.584-17.694-26.653-30.131-3.559-14.424,1.942-29.243,6.362-41.15,1.907-5.139,3.829-9.779,5.687-14.268,4.874-11.773,9.49-22.922,12.906-40.87l-60.567-7.789Z" fill="#000000" id="MZ4J-7UJO6OIrFh3VSv60" />
      </g>
    </g>
    <path d="M579.031,1193.488c-.107,0-.216-.007-.325-.021l-364.393-47.213c-1.369-.178-2.335-1.432-2.158-2.801.178-1.369,1.438-2.328,2.801-2.158l364.393,47.213c1.369.178,2.335,1.432,2.158,2.801-.164,1.26-1.239,2.179-2.476,2.179Z" fill="#000000" id="c8slLODGVHIwg34wupU" />
    <path d="M613.419,1222.199c-.11,0-.222-.007-.334-.022l-211.111-28.234c-1.368-.183-2.33-1.44-2.146-2.809.183-1.369,1.436-2.337,2.81-2.146l211.111,28.234c1.368.183,2.33,1.44,2.146,2.809-.168,1.257-1.242,2.169-2.475,2.169Z" fill="#000000" id="TfABaGcmigB0wqRogHFue" />
    <g id="vh4k6ay2IppN6vufgC5Nv">
      <polygon points="1368.223 134.171 910.77 1206.456 910.866 1191.464 1368.223 118.623 1368.223 134.171" fill="#000000" id="UnrJsz4sD3CCo6_trhQ88" />
      <path d="M910.77,1208.955c-.168,0-.339-.017-.51-.053-1.166-.242-1.999-1.272-1.991-2.464l.097-14.99c.002-.332.07-.66.2-.965L1365.923,117.642c.466-1.092,1.636-1.705,2.8-1.469,1.164.238,2,1.262,2,2.45v15.548c0,.337-.068.671-.201.981l-457.454,1072.285c-.399.935-1.313,1.519-2.298,1.519ZM913.363,1191.983l-.013,2.054L1365.723,133.661v-2.798l-452.36,1061.12ZM1368.223,134.171h.01-.01Z" fill="#000000" id="WDY0XqQDHtemdrlFoF5BH" />
    </g>
    <g id="aHfxeKK73I7LrKjfJnGkH">
      <polygon points="1370.413 259.643 910.914 1320.319 911.011 1305.327 1370.413 251.5 1370.413 259.643" fill="#000000" id="pciyEs8kwna35LM8ansZ" />
      <path d="M910.915,1322.819c-.171,0-.344-.018-.516-.054-1.163-.245-1.993-1.274-1.985-2.463l.097-14.99c.002-.339.073-.673.208-.983L1368.122,250.501c.473-1.085,1.645-1.689,2.802-1.448,1.159.242,1.99,1.263,1.99,2.447v8.143c0,.342-.07.68-.206.994l-459.5,1060.676c-.402.928-1.313,1.506-2.293,1.506ZM913.507,1305.857l-.014,2.22,151.661-350.083-151.646,347.863ZM1370.413,259.643h.01-.01Z" fill="#000000" id="VKd04XCP2h3bXKTZA1Yf" />
    </g>
  </g></g></g><g transform="translate(2132 2186)" data-asset-index="6"><g clip-path="url(#assetClipPath_uCK13gFH)" transform="scale(0.9996220067322213 0.9996220067322213)" data-asset-index="6"><g id="Pen_2">
    <g id="f6L2SlRd_XG2m1k_cJO01">
      <path d="M383.148,221.545c6.183-50.2,27.336-57.575,71.661-84.239,14.528-8.232,72.349-37.849,74.452-48.48,3.436-11.432-2.278-19.51-16.741-30.565l17.568-22.984c21.572,16.49,32.582,35.707,20.85,59.8-12.853,26.395-66.414,45.462-84.431,55.099-28.811,15.41-67.973,35.178-72.594,72.695l-10.764-1.326Z" fill="#449A39" id="NYUr64jbF9Xozvi0wa4g-" />
      <path d="M393.912,225.371c-.102,0-.204-.006-.306-.019l-10.764-1.326c-1.37-.169-2.344-1.417-2.176-2.787,5.725-46.48,24.013-57.253,60.447-78.714,3.959-2.331,8.052-4.742,12.407-7.362,2.386-1.353,5.873-3.247,9.911-5.44,10.553-5.733,26.5-14.396,39.667-22.542,21.127-13.071,23.489-17.725,23.709-18.84.016-.079.035-.157.059-.234,2.875-9.565-1.128-16.596-15.865-27.859-1.097-.839-1.307-2.407-.468-3.505l17.568-22.983c.403-.526.998-.872,1.655-.959.66-.095,1.323.09,1.849.491,25.597,19.567,32.655,40.136,21.579,62.88-10.576,21.719-46.632,38.179-70.491,49.07-6.082,2.776-11.334,5.174-15.008,7.139l-2.728,1.457c-28.624,15.273-64.247,34.282-68.564,69.34-.081.658-.42,1.257-.943,1.665-.442.345-.984.529-1.539.529ZM385.951,219.371l5.837.72c5.977-36.065,43.357-56.013,70.815-70.665l2.724-1.454c3.812-2.04,9.131-4.468,15.29-7.279,23.209-10.595,58.283-26.606,68.073-46.711,9.726-19.971,3.963-37.553-18.149-55.18l-14.528,19.007c12.584,9.945,19.441,18.931,15.672,31.638-1.897,8.428-26.627,23.353-65.866,44.67-4.017,2.182-7.486,4.066-9.777,5.364-4.318,2.599-8.421,5.016-12.39,7.354-35.427,20.868-51.963,30.607-57.7,72.537Z" fill="#000000" id="Sz05CLOKSEzntp9BZMerN" />
    </g>
    <g id="z7IwW_Pn-0M8NeheYgjZz">
      <path d="M504.047,65.757l-21.08-28.119c-2.307-3.078-1.682-7.44,1.396-9.747l27.325-20.487c10.841-8.126,26.219-5.928,34.345,4.913,8.126,10.841,5.928,26.219-4.913,34.345l-27.325,20.487c-3.079,2.311-7.441,1.686-9.748-1.392Z" fill="#449A39" id="tIAuCB4as2BZSJ33XAU9" />
      <path d="M509.635,71.046c-.451,0-.904-.032-1.358-.098-2.501-.357-4.714-1.669-6.231-3.692l-21.08-28.118c-1.516-2.023-2.154-4.516-1.796-7.018.358-2.501,1.67-4.714,3.693-6.23l27.325-20.485c5.777-4.331,12.893-6.154,20.044-5.131,7.149,1.022,13.471,4.768,17.801,10.545s6.153,12.896,5.13,20.043c-1.022,7.148-4.767,13.471-10.544,17.801l-27.326,20.487c-1.655,1.242-3.625,1.896-5.659,1.896ZM526.358,4.998c-4.732,0-9.317,1.519-13.171,4.407l-27.325,20.486c-.955.716-1.573,1.759-1.742,2.938s.132,2.354.847,3.31l21.08,28.118h0c.715.955,1.759,1.573,2.938,1.742,1.178.168,2.354-.133,3.309-.849l27.327-20.488c4.708-3.529,7.761-8.682,8.594-14.508.833-5.826-.652-11.628-4.182-16.338-3.529-4.708-8.682-7.76-14.508-8.594-1.059-.151-2.116-.226-3.167-.226Z" fill="#000000" id="UqbqAPgPurktpNX3oNjGi" />
    </g>
    <g id="wxTDq2FRCQc6sWyC78MGe">
      <path d="M64.098,387.433c16.048-1.391,31.425-7.079,44.516-16.465L506.837,85.435c15.63-11.209,19.218-32.966,8.009-48.597-11.205-15.63-32.962-19.218-48.593-8.009L62.938,318.001c-9.852,7.064-18.17,16.052-24.451,26.42l-17.384,28.698c-4.793,7.913,1.429,17.915,10.642,17.118l32.353-2.805Z" fill="#BDDD79" id="PCySzLhif7I8jemA8Kch3" />
      <path d="M30.75,392.781c-4.753,0-9.158-2.425-11.702-6.518-2.758-4.437-2.791-9.97-.083-14.438l17.384-28.698c6.493-10.719,14.949-19.855,25.132-27.157L464.797,26.797c8.102-5.809,17.985-8.114,27.819-6.494,9.837,1.621,18.454,6.977,24.262,15.078,5.81,8.103,8.117,17.982,6.495,27.82s-6.977,18.455-15.079,24.265L110.071,372.999c-13.448,9.644-29.271,15.495-45.757,16.925l-32.353,2.805c-.405.035-.81.053-1.211.053ZM486.477,24.798c-6.699,0-13.214,2.082-18.766,6.062L64.395,320.034c-9.631,6.904-17.628,15.546-23.769,25.683l-17.384,28.698c-1.752,2.894-1.733,6.336.053,9.209s4.871,4.418,8.236,4.123l32.352-2.804.216,2.49-.216-2.49c15.592-1.353,30.557-6.888,43.275-16.007L505.38,83.404c7.018-5.032,11.655-12.495,13.06-21.015,1.405-8.521-.593-17.077-5.625-24.094-5.03-7.018-12.492-11.654-21.011-13.059-1.778-.293-3.559-.438-5.326-.438Z" fill="#000000" id="FQ2hX95HIo1iM1HqjA1kk" />
    </g>
    <g id="ns4yxIuidfcNjt4HBJZ9W">
      <path d="M44.312,389.232s7.053-8.523-1.731-18.934c-7.835-9.286-15.329-7.174-15.329-7.174l-22.277,23.119c-2.809,2.915-3.279,7.365-1.142,10.803h0c2.237,3.598,6.711,5.104,10.668,3.59l29.811-11.405Z" fill="#7C8EA3" id="dd3XgYRNBQWow36cn5NlJ" />
      <path d="M11.357,403.719c-3.832,0-7.529-1.946-9.646-5.352-2.746-4.415-2.144-10.114,1.464-13.858l22.277-23.119c.308-.319.695-.552,1.122-.672.369-.104,9.146-2.429,17.917,7.968,8.014,9.498,4.647,18.636,1.747,22.141-.275.332-.631.587-1.033.741l-29.811,11.404c-1.32.505-2.688.747-4.038.747ZM28.486,365.447l-21.711,22.531c-2.017,2.094-2.354,5.28-.819,7.749,1.602,2.576,4.82,3.658,7.652,2.575l29.111-11.137c1.125-1.738,4.206-7.843-2.049-15.255-5.472-6.484-10.499-6.636-12.184-6.464ZM44.312,389.233h.01-.01ZM44.312,389.233h.01-.01Z" fill="#000000" id="kgEYBHBgdsvN5BIkpRyk" />
    </g>
  </g></g></g></svg>